<?xml version="1.0" encoding="UTF-8"?><svg id="Capa_1" xmlns="http://www.w3.org/2000/svg" width="47.64" height="48.63" viewBox="0 0 47.64 48.63"><path d="M23.92,48.28c-3.4,0-6.7-.7-9.9-2.2-5.7-2.6-10.1-7.3-12.3-13.3C-.48,26.88-.18,20.48,2.42,14.78c2.6-5.7,7.3-10.1,13.3-12.3h.4c.3,0,.7,0,.8.4.1.3,0,.7-.4.8h-.4c-5.6,2.1-10.1,6.2-12.6,11.6s-2.7,11.5-.7,17.1c2.1,5.6,6.2,10.1,11.6,12.6,5.4,2.5,11.5,2.7,17.1.7,5.6-2.1,10.1-6.2,12.6-11.6,2.5-5.4,2.7-11.5.7-17.1-.6-1.7-1.4-3.2-2.4-4.7-.2-.3,0-.6.2-.8s.6-.1.8.2c1,1.5,1.9,3.2,2.5,4.9,2.2,5.9,1.9,12.3-.7,18-2.6,5.7-7.3,10.1-13.3,12.3-2.7,1-5.4,1.5-8.2,1.5h.2v-.1Z" style="fill:#0e1109; stroke:#0e1109; stroke-miterlimit:10; stroke-width:.5px;"/><path d="M13.62,9.58h-.2c-.3-.1-.5-.5-.4-.8l2-5.4-5.5-1.9c-.3,0-.5-.4-.4-.8.1-.3.4-.5.8-.4l6,2.1c.2,0,.3.2.3.3v.5l-2.2,6c0,.2-.3.4-.6.4,0,0,.2,0,.2,0Z" style="fill:#0e1109; stroke:#0e1109; stroke-miterlimit:10; stroke-width:.5px;"/><path d="M40.12,9.38c-.2,0-.3,0-.4-.2,0,0,0-.1-.2-.2-.2-.2-.2-.6,0-.8s.6-.2.8,0c0,0,0,.1.2.2.2.2.2.6,0,.8,0,.1-.3.2-.4.2ZM37.82,7.38s-.3,0-.4-.1l-.2-.1c-.3-.2-.3-.6,0-.8.2-.3.6-.3.8,0l.2.2c.3.2.3.6,0,.8,0,.1-.3.2-.5.2h.2l-.1-.2ZM35.32,5.58h-.5c-.3-.2-.4-.5-.2-.8s.5-.4.8-.2h.2c.3.2.4.5.2.8,0,.2-.3.3-.5.3h0v-.1ZM32.62,4.18h-.4c-.3,0-.4-.5-.3-.8,0-.3.5-.4.8-.3h.2c.3,0,.4.5.3.8,0,.2-.3.4-.5.4h0l-.1-.1ZM29.72,3.18h-.4c-.3,0-.5-.4-.4-.7,0-.3.4-.5.7-.4h.2c.3,0,.5.4.4.7,0,.3-.3.4-.6.4h.1ZM26.72,2.48h-.2c-.3,0-.6-.3-.5-.7,0-.3.3-.6.7-.5h.2c.3,0,.6.4.5.7,0,.3-.3.5-.6.5h-.1ZM23.62,2.28h-.2c-.3,0-.6-.3-.6-.6s.3-.6.6-.6.2,0,.2,0c.3,0,.6.3.6.6s-.3.6-.6.6Z" style="fill:#0e1109;"/><path d="M7.52,28.18l1.5-.2c.3,1.9,1.1,2.9,2.3,2.9s1.2-.3,1.7-.8c.5-.6.7-1.3.7-2.2s-.2-1.5-.7-2-1-.8-1.6-.8-.6,0-1,.2l.2-1.6h.2c.7,0,1.3-.2,1.8-.6.4-.4.7-1,.7-1.8s-.2-1.2-.6-1.6c-.4-.4-.8-.6-1.4-.6s-1,.2-1.4.6-.6,1.1-.7,2l-1.5-.3c.2-1.2.6-2.2,1.2-2.8.6-.6,1.4-.9,2.3-.9s1.8.4,2.4,1.1c.7.7,1,1.6,1,2.7s-.1,1.2-.4,1.7-.7.9-1.2,1.2c.5.1.9.3,1.2.7.3.3.6.7.7,1.2.2.5.3,1.1.3,1.7,0,1.3-.4,2.4-1.2,3.3s-1.7,1.3-2.8,1.3-1.9-.4-2.6-1.1-1.1-1.7-1.2-3l.1-.3Z" style="fill:#0e1109;"/><path d="M24.32,21.08h-1.5c-.1-.6-.3-1.1-.6-1.4-.4-.5-.9-.7-1.4-.7-.8,0-1.5.5-2,1.6-.4.9-.7,2.3-.7,4,.3-.6.8-1.1,1.3-1.4s1-.5,1.6-.5c.9,0,1.8.4,2.5,1.3s1.1,2,1.1,3.4-.2,1.8-.5,2.6c-.4.8-.8,1.4-1.4,1.7-.6.4-1.2.6-1.8.6-1.2,0-2.2-.5-3-1.6-.8-1.1-1.2-2.9-1.2-5.4s.4-4.8,1.2-6,1.8-1.8,3.1-1.8,1.7.3,2.3.9c.6.6,1,1.5,1.1,2.7h-.1ZM18.32,27.28c0,1,.2,1.9.7,2.5.5.6,1.1,1,1.7,1s1.1-.3,1.5-.9c.5-.6.7-1.4.7-2.5s-.2-1.8-.7-2.4-1-.8-1.6-.8-1.2.3-1.7.8c-.5.6-.7,1.3-.7,2.3h.1Z" style="fill:#0e1109;"/><path d="M25.92,24.88c0-2.4.3-4.3,1-5.5s1.6-1.9,2.9-1.9,2,.5,2.7,1.5c.8,1.2,1.2,3.2,1.2,5.9s-.3,4.3-1,5.5c-.7,1.3-1.6,1.9-2.9,1.9s-2.1-.6-2.8-1.7c-.7-1.1-1.1-3-1.1-5.7ZM27.42,24.88c0,2.4.2,3.9.7,4.7s1,1.2,1.7,1.2,1.2-.4,1.7-1.2c.4-.8.7-2.4.7-4.7s-.2-3.9-.7-4.7-1-1.2-1.8-1.2-1.2.4-1.7,1.2-.7,2.4-.7,4.7h.1Z" style="fill:#0e1109;"/><path d="M37.52,17.28c.8,0,1.4.3,1.8.9.5.7.8,1.6.8,2.8s-.3,2.1-.8,2.8c-.5.6-1.1.9-1.8.9s-1.4-.3-1.9-.9-.8-1.5-.8-2.7.3-2.2.8-2.9c.5-.6,1.1-.9,1.8-.9h.1ZM37.52,18.58c-.4,0-.8.2-1.1.6s-.4,1-.4,1.8.1,1.4.4,1.8c.3.4.6.6,1.1.6s.8-.2,1-.6.4-1,.4-1.8-.1-1.4-.4-1.8-.6-.6-1-.6Z" style="fill:#0e1109;"/></svg>