<?xml version="1.0" encoding="UTF-8"?>
<svg id="Capa_1" xmlns="http://www.w3.org/2000/svg" version="1.1" viewBox="0 0 52 52">
  <!-- Generator: Adobe Illustrator 29.8.2, SVG Export Plug-In . SVG Version: 2.1.1 Build 3)  -->
  <defs>
    <style>
      .st0, .st1 {
        fill: #1f77d6;
      }

      .st1 {
        stroke: #1f77d6;
        stroke-miterlimit: 10;
      }
    </style>
  </defs>
  <path class="st1" d="M26.5,50c-3.4,0-6.7-.7-9.9-2.2-5.7-2.6-10.1-7.3-12.3-13.3-2.2-5.9-1.9-12.3.7-18,2.6-5.7,7.3-10.1,13.3-12.3h.1s.2,0,.3,0c.3,0,.7,0,.8.4.1.3,0,.7-.4.8h-.4c-5.6,2.1-10.1,6.2-12.6,11.6-2.5,5.4-2.7,11.5-.7,17.1,2.1,5.6,6.2,10.1,11.6,12.6,5.4,2.5,11.5,2.7,17.1.7,5.6-2.1,10.1-6.2,12.6-11.6,2.5-5.4,2.7-11.5.7-17.1-.6-1.7-1.4-3.2-2.4-4.7-.2-.3,0-.6.2-.8s.6-.1.8.2c1,1.5,1.9,3.2,2.5,4.9,2.2,5.9,1.9,12.3-.7,18-2.6,5.7-7.3,10.1-13.3,12.3-2.7,1-5.4,1.5-8.2,1.5h.2Z"/>
  <path class="st1" d="M16.2,11.3h-.2c-.3-.1-.5-.5-.4-.8l2-5.4-5.5-1.9c-.3,0-.5-.4-.4-.8.1-.3.4-.5.8-.4l6,2.1c.2,0,.3.2.3.3v.5l-2.2,6c0,.2-.3.4-.6.4h.2Z"/>
  <path class="st0" d="M42.7,11.1c-.2,0-.3,0-.4-.2,0,0,0-.1-.2-.2-.2-.2-.2-.6,0-.8s.6-.2.8,0c0,0,0,.1.2.2.2.2.2.6,0,.8,0,.1-.3.2-.4.2ZM40.4,9.1c0,0-.3,0-.4-.1,0,0,0,0-.2-.1-.3-.2-.3-.6,0-.8.2-.3.6-.3.8,0,0,0,0,0,.2.2.3.2.3.6,0,.8,0,.1-.3.2-.5.2h.2ZM37.9,7.3h-.3s0,0-.2,0c-.3-.2-.4-.5-.2-.8s.5-.4.8-.2c0,0,0,0,.2,0,.3.2.4.5.2.8,0,.2-.3.3-.5.3h0ZM35.2,5.9h-.4c-.3,0-.4-.5-.3-.8,0-.3.5-.4.8-.3h.2c.3,0,.4.5.3.8,0,.2-.3.4-.5.4h0ZM32.3,4.9h-.4c-.3,0-.5-.4-.4-.7,0-.3.4-.5.7-.4h.2c.3,0,.5.4.4.7,0,.3-.3.4-.6.4h0ZM29.3,4.2h-.2c-.3,0-.6-.3-.5-.7,0-.3.3-.6.7-.5h.2c.3,0,.6.4.5.7,0,.3-.3.5-.6.5h-.1ZM26.2,4h-.2c-.3,0-.6-.3-.6-.6s.3-.6.6-.6.2,0,.2,0c.3,0,.6.3.6.6s-.3.6-.6.6Z"/>
  <g>
    <path class="st0" d="M10.1,29.9l1.5-.2c.3,1.9,1.1,2.9,2.3,2.9s1.2-.3,1.7-.8c.5-.6.7-1.3.7-2.2s-.2-1.5-.7-2-1-.8-1.6-.8-.6,0-1,.2l.2-1.6h.2c.7,0,1.3-.2,1.8-.6.4-.4.7-1,.7-1.8s-.2-1.2-.6-1.6c-.4-.4-.8-.6-1.4-.6s-1,.2-1.4.6c-.4.4-.6,1.1-.7,2l-1.5-.3c.2-1.2.6-2.2,1.2-2.8.6-.6,1.4-.9,2.3-.9s1.8.4,2.4,1.1c.7.7,1,1.6,1,2.7s-.1,1.2-.4,1.7c-.3.5-.7.9-1.2,1.2.5.1.9.3,1.2.7.3.3.6.7.7,1.2.2.5.3,1.1.3,1.7,0,1.3-.4,2.4-1.2,3.3s-1.7,1.3-2.8,1.3-1.9-.4-2.6-1.1-1.1-1.7-1.2-3Z"/>
    <path class="st0" d="M26.9,22.8h-1.5c-.1-.6-.3-1.1-.6-1.4-.4-.5-.9-.7-1.4-.7-.8,0-1.5.5-2,1.6-.4.9-.7,2.3-.7,4,.3-.6.8-1.1,1.3-1.4.5-.3,1-.5,1.6-.5.9,0,1.8.4,2.5,1.3.7.9,1.1,2,1.1,3.4s-.2,1.8-.5,2.6c-.4.8-.8,1.4-1.4,1.7-.6.4-1.2.6-1.8.6-1.2,0-2.2-.5-3-1.6-.8-1.1-1.2-2.9-1.2-5.4s.4-4.8,1.2-6,1.8-1.8,3.1-1.8,1.7.3,2.3.9c.6.6,1,1.5,1.1,2.7ZM20.9,29c0,1,.2,1.9.7,2.5.5.6,1.1,1,1.7,1s1.1-.3,1.5-.9c.5-.6.7-1.4.7-2.5s-.2-1.8-.7-2.4-1-.8-1.6-.8-1.2.3-1.7.8c-.5.6-.7,1.3-.7,2.3Z"/>
    <path class="st0" d="M28.5,26.6c0-2.4.3-4.3,1-5.5s1.6-1.9,2.9-1.9,2,.5,2.7,1.5c.8,1.2,1.2,3.2,1.2,5.9s-.3,4.3-1,5.5c-.7,1.3-1.6,1.9-2.9,1.9s-2.1-.6-2.8-1.7c-.7-1.1-1.1-3-1.1-5.7ZM30,26.6c0,2.4.2,3.9.7,4.7s1,1.2,1.7,1.2,1.2-.4,1.7-1.2c.4-.8.7-2.4.7-4.7s-.2-3.9-.7-4.7-1-1.2-1.8-1.2-1.2.4-1.7,1.2-.7,2.4-.7,4.7Z"/>
    <path class="st0" d="M40.1,19c.8,0,1.4.3,1.8.9.5.7.8,1.6.8,2.8s-.3,2.1-.8,2.8c-.5.6-1.1.9-1.8.9s-1.4-.3-1.9-.9-.8-1.5-.8-2.7.3-2.2.8-2.9c.5-.6,1.1-.9,1.8-.9ZM40.1,20.3c-.4,0-.8.2-1.1.6-.3.4-.4,1-.4,1.8s.1,1.4.4,1.8c.3.4.6.6,1.1.6s.8-.2,1-.6.4-1,.4-1.8-.1-1.4-.4-1.8-.6-.6-1-.6Z"/>
  </g>
</svg>