<?xml version="1.0" encoding="UTF-8"?><svg id="Capa_1" xmlns="http://www.w3.org/2000/svg" width="46.41" height="44.6" viewBox="0 0 46.41 44.6"><path d="M31.98,37.6c-2.7,0-4.2-8.7-4.2-16.9s0-1.8,0-2.7h.7v2.7c0,9.6,1.9,16.2,3.5,16.2s3.5-6.7,3.5-16.2-1.9-16.2-3.5-16.2-3.1,4.8-3.4,12.8h-.6c.3-6.7,1.7-13.4,4.1-13.4s4.2,8.7,4.2,16.9-1.5,16.9-4.2,16.9l-.1-.1Z" style="fill:#0e1109; stroke:#0e110c; stroke-miterlimit:10; stroke-width:.25px;"/><rect x="31.98" y="3.9" width="13.2" height=".7" style="fill:#0e1109; stroke:#0e110c; stroke-miterlimit:10; stroke-width:.25px;"/><rect x="31.98" y="36.9" width="13.2" height=".7" style="fill:#0e1109; stroke:#0e110c; stroke-miterlimit:10; stroke-width:.25px;"/><path d="M31.38,28.8c-1.6,0-2.1-4.9-2.1-8.1s0-1.2,0-1.7h.6v1.7c0,4.8,1,7.5,1.5,7.5s1.5-2.6,1.5-7.5-1-7.5-1.5-7.5-1,1-1.3,4h-.6c.2-1.8.7-4.7,2-4.7s2.1,4.9,2.1,8.1-.6,8.1-2.1,8.1l-.1.1Z" style="fill:#0e1109; stroke:#0e110c; stroke-miterlimit:10; stroke-width:.25px;"/><rect x="31.38" y="12.6" width="1.2" height=".7" style="fill:#0e1109; stroke:#0e110c; stroke-miterlimit:10; stroke-width:.25px;"/><rect x="31.38" y="28.2" width="1.2" height=".7" style="fill:#0e1109; stroke:#0e110c; stroke-miterlimit:10; stroke-width:.25px;"/><path d="M32.48,28.8v-.7c.5,0,1.5-2.6,1.5-7.5s-1-7.5-1.5-7.5v-.7c1.6,0,2.1,4.9,2.1,8.1s-.6,8.1-2.1,8.1v.2Z" style="fill:#0e1109; stroke:#0e110c; stroke-miterlimit:10; stroke-width:.25px;"/><rect x="35.38" y="34.7" width="10.9" height=".7" style="fill:#0e1109; stroke:#0e110c; stroke-miterlimit:10; stroke-width:.25px;"/><path d="M14.58,23h-7.6v-12.9c0-2,1.7-3.7,3.7-3.7h.2c2,0,3.7,1.6,3.7,3.7v4.9h-.7v-4.9c0-1.7-1.4-3-3-3h-.2c-1.7,0-3,1.4-3,3v12.3h6.3v-4.8h.7v5.5l-.1-.1Z" style="fill:#0e1109; stroke:#0e110c; stroke-miterlimit:10; stroke-width:.25px;"/><path d="M9.28,7c-.1-.8,0-1.5.3-2.2l.7-2.4c.2-.8.6-1.4,1.2-1.8.6-.4,1.3-.6,1.9-.4.7.2,1.2.7,1.5,1.5l-.6.2c-.2-.6-.6-1-1.1-1.1-.4-.1-.9,0-1.4.3s-.8.9-1,1.5l-.7,2.4c-.2.7-.3,1.2-.2,2,0,0-.6,0-.6,0Z" style="fill:#0e1109; stroke:#0e110c; stroke-miterlimit:10; stroke-width:.25px;"/><path d="M13.28,8l-.2-.6c.3-.1.6-.3.8-.8l1.3-2.8c.3-.6-.1-1.2-.8-1.8l-1.5,5.3-.6-.2h0l1.7-6.3.4.3s.1,0,.2.1l.2.2c.5.4,1.5,1.3,1,2.6h0l-1.3,2.9c-.3.5-.7.9-1.2,1.1Z" style="fill:#0e1109; stroke:#0e110c; stroke-miterlimit:10; stroke-width:.25px;"/><rect x="11.79" y="1.54" width=".7" height="3.3" transform="translate(5.22 13.67) rotate(-71.3)" style="fill:#0e1109; stroke:#0e110c; stroke-miterlimit:10; stroke-width:.25px;"/><rect x="15.17" y="4.64" width="1.7" height=".7" transform="translate(4.69 17.36) rotate(-64.8)" style="fill:#0e1109; stroke:#0e110c; stroke-miterlimit:10; stroke-width:.25px;"/><path d="M17.38,18.6h-.2l-7.3-1.8c-.5-.1-.8-.6-.9-1.1l-.4-6.4c0-.7.2-1.2.5-1.4.3-.3.7-.5,1.1-.5.7,0,1.5.5,1.6,1.7l.3,4.6c0,.2.2.4.4.5l5.6,1.4c.2,0,.4.2.6.4.1.2.2.5.1.7l-.3,1.2c-.1.4-.5.7-.9.7h-.2ZM10.08,8.2c-.2,0-.4,0-.6.3-.2.2-.3.5-.3.9l.4,6.3c0,.2.2.4.4.5l7.3,1.8c.2,0,.3,0,.3-.2l.3-1.2v-.2s-.1-.1-.2-.1l-5.6-1.4c-.5-.1-.8-.6-.9-1.1l-.3-4.6c0-.7-.5-1.1-.9-1.1l.1.1Z" style="fill:#0e1109; stroke:#0e110c; stroke-miterlimit:10; stroke-width:.25px;"/><path d="M19.08,18.8h-.6c-.3,0-.6-.2-.9-.4l.4-.5c.2.1.4.2.6.3h.9c.2,0,.3-.2.3-.3,0-.3-.3-.7-1-.8h-.6v-.6h.8c1,.2,1.6.9,1.5,1.6,0,.3-.4.6-.8.8h-.6v-.1Z" style="fill:#0e1109; stroke:#0e110c; stroke-miterlimit:10; stroke-width:.25px;"/><path d="M18.28,40.6h-5.3v-9.4l-4.7-8.8h6.2l3.8,7.6v10.7-.1ZM13.58,40h4v-9.9l-3.5-7.1h-4.7l4.3,8v8.9l-.1.1Z" style="fill:#0e1109; stroke:#0e110c; stroke-miterlimit:10; stroke-width:.25px;"/><polygon points="6.78 37.9 8.28 30.5 7.08 22.5 11.48 22.4 11.48 23 7.78 23.1 8.88 30.5 7.58 37.3 11.08 37.1 12.38 30.6 12.18 29.7 12.88 29.6 12.98 30.6 11.58 37.8 6.78 37.9" style="fill:#0e1109; stroke:#0e110c; stroke-miterlimit:10; stroke-width:.25px;"/><path d="M21.78,44.4h-3.9l-.8-.3h-.5v.2h-3.1v-3.7h.7v3.1h1.8v-.2h1.3l.8.2h3.2v-.5h0c-.1-.8-.7-1.2-1.8-1.2h0c-1.5,0-2.2-.8-2.6-1.4l.6-.3c.4.6,1.1,1,2,1.1h0c1.4,0,2.2.6,2.4,1.8h0v1.4l-.1-.2Z" style="fill:#0e1109;"/><rect x="18.52" y="41.99" width="1.4" height=".7" transform="translate(-23.44 60.82) rotate(-89)" style="fill:#0e1109;"/><path d="M15.48,43h-.7c0-.5-.4-1-.9-1h0v-.3h0v-.3h0c.9,0,1.6.7,1.6,1.6Z" style="fill:#0e1109;"/><rect x="17.2" y="39" width=".7" height="7.8" transform="translate(-25.65 59.69) rotate(-89)" style="fill:#0e1109;"/><path d="M13.68,41.4h-2.2l-.8-.3h-.6c-.1,0,0,0,0,0v.2h-3.1v-3.7h.7v3h1.7v-.2h.7c.07,0,.17,0,.3,0h.3l.8.2h2.1v.7l.1.1ZM13.28,39h-.4c-1.5,0-2.2-.8-2.5-1.3l.6-.3c.4.6,1,1,2,1h.5v.6h-.2Z" style="fill:#0e1109;"/><path d="M9.08,39.9h-.7c0-.2,0-.5-.2-.6-.2-.2-.4-.3-.6-.3h0v-.6h0c.4,0,.8.2,1.1.5s.4.7.4,1.1v-.1Z" style="fill:#0e1109;"/><rect x="9.97" y="37.04" width=".7" height="6" transform="translate(-29.9 49.66) rotate(-89)" style="fill:#0e1109;"/><rect x="22.82" y="13.95" width=".7" height="4.9" transform="translate(1.49 34.73) rotate(-75.5)" style="fill:#0e1109; stroke:#0e110c; stroke-miterlimit:10; stroke-width:.25px;"/><rect x="14.81" y="10.48" width=".7" height="7.5" transform="translate(-2.41 25.34) rotate(-75.5)" style="fill:#0e1109; stroke:#0e110c; stroke-miterlimit:10; stroke-width:.25px;"/><polygon points="23.28 16.4 22.68 16.2 22.88 15.6 20.88 15.1 21.08 14.5 23.58 15.1 23.28 16.4" style="fill:#0e1109; stroke:#0e110c; stroke-miterlimit:10; stroke-width:.25px;"/><rect x="14.91" y="9.39" width=".7" height="7.8" transform="translate(-1.43 24.74) rotate(-75.5)" style="fill:#0e1109; stroke:#0e110c; stroke-miterlimit:10; stroke-width:.25px;"/><path d="M19.78,20.5c-.4,0-1.1-.3-1.2-.4h-.2c0-.1.4-1.7.4-1.7l.6.2-.3,1.1c.2,0,.5.2.6.2,1,0,1.9-1.1,1.9-2.5s0-.8-.2-1.2l.6-.3c.2.5.3.8.3,1.4,0,1.8-1.1,3.2-2.5,3.2Z" style="fill:#0e1109; stroke:#0e110c; stroke-miterlimit:10; stroke-width:.25px;"/><rect x="19.27" y="16.12" width=".7" height=".7" transform="translate(-1.02 31.63) rotate(-76.3)" style="fill:none; stroke:#0e110c; stroke-linecap:round; stroke-linejoin:round; stroke-width:.25px;"/><path d="M.68,42.5l-.5-.4c2.2-2.4,3-5.3,2.9-10.2,0-4.8,2.1-9.1,2.2-9.3l3.5-7.6.6.3-3.5,7.6s-2.2,4.4-2.2,9c0,4.9-.8,8.1-3.1,10.6h.1Z" style="fill:#0e1109; stroke:#0e110c; stroke-miterlimit:10; stroke-width:.25px;"/><path d="M20.28,16.6h-.2l-1.2-.3c-.2,0-.3-.2-.4-.3,0-.2-.1-.4,0-.5l.5-1.9c0-.3.4-.5.7-.5s.1,0,.2,0l1.2.3c.2,0,.3.2.4.3,0,.2.1.4,0,.5l-.5,1.9c0,.3-.4.5-.7.5ZM19.58,13.7h0l-.5,1.9h0l1.2.3h0l.5-1.9h0l-1.2-.3h0Z" style="fill:#0e1109; stroke:#0e110c; stroke-miterlimit:10; stroke-width:.25px;"/><polygon points="32.28 21 25.88 17 32.18 16.9 32.18 17.5 28.08 17.6 32.58 20.5 32.28 21" style="fill:#0e1109; stroke:#0e110c; stroke-miterlimit:10; stroke-width:.25px;"/></svg>