<?xml version="1.0" encoding="UTF-8"?><svg id="Capa_1" xmlns="http://www.w3.org/2000/svg" width="43.33" height="43.33" viewBox="0 0 43.33 43.33"><path d="M41.82,17.51c-.61-.73-1.37-1.32-2.23-1.72-.86-.4-1.8-.61-2.75-.62h-9.88l1.21-3.1c.5-1.36.67-2.82.49-4.25-.18-1.44-.71-2.81-1.54-3.99-.83-1.19-1.93-2.15-3.22-2.82C22.61.34,21.19,0,19.74,0c-.42,0-.82.12-1.17.35-.35.23-.63.55-.8.93l-6.18,13.89h-5.09c-1.72,0-3.38.68-4.6,1.9-1.22,1.22-1.9,2.87-1.9,4.6v15.17c0,1.72.68,3.38,1.9,4.6,1.22,1.22,2.87,1.9,4.6,1.9h27.58c1.52,0,2.99-.53,4.16-1.51,1.17-.97,1.96-2.33,2.23-3.82l2.75-15.17c.17-.94.13-1.9-.11-2.82-.24-.92-.69-1.78-1.3-2.51ZM10.83,39h-4.33c-.57,0-1.13-.23-1.53-.63-.41-.41-.63-.96-.63-1.53v-15.17c0-.57.23-1.13.63-1.53.41-.41.96-.63,1.53-.63h4.33v19.5ZM39,22.06l-2.75,15.17c-.09.5-.36.96-.76,1.29-.4.33-.9.5-1.41.49H15.17v-21.21l5.89-13.26c.61.18,1.17.48,1.65.88.48.41.88.91,1.16,1.47.28.57.44,1.18.47,1.82.03.63-.07,1.26-.3,1.85l-1.15,3.1c-.24.65-.33,1.36-.24,2.05.09.69.34,1.36.74,1.93.4.57.93,1.04,1.55,1.37.62.33,1.31.5,2.01.5h9.88c.32,0,.63.07.92.2.29.13.54.33.75.58.21.24.36.53.45.83.09.31.1.63.05.94Z" style="fill:#0e1109;"/></svg>