<?xml version="1.0" encoding="UTF-8"?><svg id="Capa_1" xmlns="http://www.w3.org/2000/svg" width="52.9" height="48.6" viewBox="0 0 52.9 48.6"><polygon points="36.8 20.5 36.8 28.1 31 28.1 31 33.9 23.4 33.9 23.4 28.1 23.4 28.1 17.6 28.1 17.6 28.1 17.6 20.5 23.4 20.5 23.4 14.7 31 14.7 31 20.5 31 20.5 36.8 20.5 36.8 20.5" style="fill:none; stroke:#0e1109; stroke-linecap:round; stroke-linejoin:round;"/><path d="M9.4,15.2c0-3.6.4-6,.4-6,8.4,0,15.4-4,17.4-5.2.7.4,1.9,1.1,3.5,1.9" style="fill:none; stroke:#0e1109; stroke-linecap:round; stroke-linejoin:round; stroke-width:2px;"/><path d="M40.3,8.9c1.4.2,2.8.3,4.2.3,0,0,2.1,13-3.4,24.6" style="fill:none; stroke:#0e1109; stroke-linecap:round; stroke-linejoin:round; stroke-width:2px;"/><path d="M10.3,24.5c1.6,8.3,5.9,17.9,16.9,23.1,3.2-1.5,5.8-3.4,8-5.5" style="fill:none; stroke:#0e1109; stroke-linecap:round; stroke-linejoin:round; stroke-width:2px;"/><circle cx="10.3" cy="40.2" r="1.9" style="fill:none; stroke:#0e1109; stroke-linecap:round; stroke-linejoin:round; stroke-width:.8px;"/><circle cx="50.1" cy="22.5" r="2.4" style="fill:none; stroke:#0e1109; stroke-linecap:round; stroke-linejoin:round; stroke-width:.8px;"/><circle cx="17.6" cy="2.2" r="1.8" style="fill:none; stroke:#0e1109; stroke-linecap:round; stroke-linejoin:round; stroke-width:.8px;"/><path d="M6.4,14.7s1.6,5.9,5.9,5.9c-4.2,0-5.9,5.9-5.9,5.9,0,0-1.6-5.9-5.9-5.9,4.2,0,5.9-5.9,5.9-5.9Z" style="fill:none; stroke:#0e1109; stroke-linecap:round; stroke-linejoin:round;"/><path d="M34.8,4.7s1,3.5,3.5,3.5c-2.5,0-3.5,3.5-3.5,3.5,0,0-1-3.5-3.5-3.5,2.5,0,3.5-3.5,3.5-3.5Z" style="fill:none; stroke:#0e1109; stroke-linecap:round; stroke-linejoin:round; stroke-width:.8px;"/><path d="M39.6,35.1s1.3,4.6,4.6,4.6c-3.3,0-4.6,4.6-4.6,4.6,0,0-1.3-4.6-4.6-4.6,3.3,0,4.6-4.6,4.6-4.6Z" style="fill:none; stroke:#0e1109; stroke-linecap:round; stroke-linejoin:round;"/></svg>