<?xml version="1.0" encoding="UTF-8"?><svg id="Capa_1" xmlns="http://www.w3.org/2000/svg" width="29.25" height="47.05" viewBox="0 0 29.25 47.05"><path d="M26.98,9.77c-1.1-1.9-2.6-3.1-4.2-3.6v-3.4c0-1.3-1.1-2.4-2.4-2.4h-4.8c-1.3,0-2.4,1.1-2.4,2.4v3.3c-.9.2-1.7.7-2.4,1.2C5.48,11.57,2.07,16.97.57,23.38c-.1.5-.2,1-.2,1.5v16.9c0,2.7,2.2,4.9,4.9,4.9h18.7c2.7,0,4.9-2.2,4.9-4.9v-25.5c0-2.3-.6-4.6-1.8-6.5h-.1ZM14.17,2.77c0-.8.6-1.4,1.4-1.4h4.8c.8,0,1.4.6,1.4,1.4v3.1h-7.5v-3.1h-.1ZM27.77,41.77c0,2.1-1.7,3.8-3.8,3.8H5.27c-2.1,0-3.8-1.7-3.8-3.8v-16.9c0-.4,0-.9.1-1.3,1.4-6.1,4.8-11.4,9.9-15.5.7-.6,1.5-.9,2.3-1.1.4,0,.8-.1,1.2-.1h5.5c.5,0,1.1,0,1.6.2h0c1.6.4,2.9,1.5,4,3.3,1.1,1.7,1.6,3.8,1.6,5.9v25.5h.1Z" style="fill:#0e1109; stroke:#0e1109; stroke-miterlimit:10; stroke-width:.75px;"/><path d="M8.67,24.77c-.3,0-.5,0-.8-.2h0l-2.5-1.4c-.6-.4-.9-1.1-.7-1.8,1.2-3.6,3.1-6.8,5.6-9.7.5-.6,1.3-.7,1.9-.3l2.5,1.4c.7.4.9,1.2.7,1.9-1.3,3.4-3.2,6.6-5.5,9.6-.3.4-.8.6-1.2.6v-.1ZM8.47,23.68c.2.1.5,0,.6-.1,2.3-2.9,4.1-6,5.4-9.3,0-.2,0-.5-.2-.6l-2.5-1.4c-.2-.1-.5,0-.6.1-2.4,2.8-4.2,5.9-5.4,9.3,0,.2,0,.5.2.6l2.5,1.4Z" style="fill:#0e1109; stroke:#0e1109; stroke-miterlimit:10; stroke-width:.75px;"/></svg>