<?xml version="1.0" encoding="UTF-8"?><svg id="Layer_1" xmlns="http://www.w3.org/2000/svg" width="719.66" height="404.35" viewBox="0 0 719.66 404.35"><path d="M160.98,186.34c-5.23-.04-10.1-2.1-13.7-5.8-3.65-3.74-5.61-8.78-5.52-14.21l.02-.96,7.31-59.67c.48-3.99,2.11-7.77,4.74-10.93,2.83-3.37,6.53-5.73,10.73-6.84l10.28-2.72c1.81-.47,3.61-.71,5.39-.69,5.06.05,9.69,1.95,13.17,5.21,2.57-6.7,7.75-11.48,14.34-13.22l10.3-2.73c1.77-.47,3.58-.69,5.37-.68,4.28.03,8.34,1.41,11.73,4,2.26,1.79,4.06,3.92,5.35,6.3l2.46-6.44c.27-.76.58-1.51.94-2.25v-.67c.02-.89.08-1.78.19-2.65.17-1.59.58-3.28,1.21-4.96l2.99-9.04c1.21-3.46,3.14-6.44,5.72-8.84,2.63-2.46,5.7-4.17,9.12-5.07l7.29-1.93c1.78-.47,3.57-.7,5.32-.68,4.62.04,9.06,1.74,12.46,4.8,2.5,2.27,4.31,5.1,5.35,8.19l.33-.14,10.86-2.87c1.85-.49,3.77-.74,5.68-.73,2.45.02,4.85.47,7.1,1.35,1.37.55,2.66,1.23,3.85,2.01l.15-.26c1.34-2.16,2.82-3.96,4.5-5.49,2.59-2.35,5.77-4.06,9.2-4.95l10.21-2.7.51-.1c1.6-.33,3.09-.47,4.58-.45.33,0,.65,0,.98.02,1.84-1.19,3.88-2.1,6.05-2.67l8.13-2.15c1.77-.46,3.56-.69,5.33-.67,1.92.02,3.83.31,5.67.87,2.63-2.73,5.95-4.67,9.66-5.66l10.3-2.73c1.8-.47,3.61-.7,5.39-.69,5.06.04,9.69,1.94,13.17,5.21,2.54-6.68,7.71-11.46,14.27-13.21l10.36-2.74c1.74-.47,3.56-.7,5.37-.68,4.38.03,8.49,1.47,11.91,4.15.42.32.83.67,1.21,1.02,1.91-2.08,3.95-4.02,6.11-5.82,3.26-2.73,6.81-5.14,10.54-7.17,3.98-2.15,8.16-3.81,12.45-4.94,4.34-1.16,8.69-1.72,12.92-1.68h.3c4.49.08,8.76.76,12.73,2.03,4.22,1.36,8.13,3.34,11.61,5.92,3.56,2.65,6.61,5.85,9.08,9.53,2.38,3.55,4.21,7.52,5.43,11.82,1.21,4.23,1.78,8.73,1.69,13.4-.08,4.42-.73,8.87-1.97,13.22-1.14,4.05-2.72,8.02-4.69,11.78-1.96,3.75-4.33,7.33-7.04,10.67-2.68,3.31-5.69,6.37-8.95,9.07-3.28,2.74-6.85,5.16-10.59,7.17-3.94,2.11-8.1,3.76-12.37,4.89-4.44,1.17-8.82,1.74-13.05,1.71h-.15c-4.5-.05-8.84-.74-12.9-2.06-.56-.19-1.11-.38-1.68-.58-2.52,5.31-7.28,9.3-13.45,10.93l-7.96,2.1c-1.83.48-3.71.73-5.55.71-2.48-.02-4.87-.49-7.07-1.36-3.02,2.95-6.26,4.33-8.65,4.97l-7.51,1.98c-1.58.43-3.38.66-5.13.65-1.81-.02-3.56-.28-5.25-.76-2.73,3.38-6.55,5.9-11.03,7.08l-7.94,2.09c-1.85.49-3.7.73-5.51.71-.66,0-1.31-.05-1.97-.12-2.04,1.45-4.34,2.53-6.84,3.2l-8.19,2.16c-1.83.49-3.68.72-5.51.71-.26,0-.52,0-.78-.02-1.7,1.09-3.57,1.92-5.53,2.44l-10.43,2.75c-1.83.49-3.67.72-5.48.7-1.43-.01-2.86-.18-4.26-.5-2.67-.65-5.05-1.72-7.17-3.21l-.2.35c-3.04,5.45-7.87,9.28-13.61,10.79l-10.38,2.74c-1.09.29-2.19.48-3.28.59-1.06.46-2.11.84-3.19,1.12l-8.08,2.13c-1.9.5-3.79.75-5.65.73-3.01-.02-5.89-.7-8.55-2.02-2.3-1.14-4.33-2.69-6-4.59l-1.78.47c-.21.58-.4,1.11-.58,1.62-2.49,6.86-7.84,11.81-14.67,13.65l-8.28,2.18c-1.69.45-3.41.69-5.11.72-1.49.81-3.07,1.44-4.71,1.87l-7.95,2.1c-1.86.49-3.72.73-5.56.71-2.47-.02-4.86-.49-7.07-1.36-3.12,3.04-6.46,4.41-8.92,5.04l-7.22,1.91c-1.69.45-3.42.67-5.15.65-1.78-.02-3.52-.27-5.19-.75-2.71,3.37-6.52,5.86-11.06,7.06l-7.97,2.11c-1.83.48-3.68.72-5.52.7Z" style="fill:#010101;"/><path d="M531.93,31.48c-1-3.51-2.48-6.73-4.39-9.59-1.98-2.94-4.4-5.49-7.24-7.59-2.78-2.06-5.9-3.66-9.3-4.74-3.24-1.03-6.75-1.59-10.43-1.66h-.26c-3.53-.03-7.18.45-10.85,1.42-3.68.97-7.27,2.39-10.69,4.25-3.27,1.78-6.38,3.9-9.26,6.29-2.86,2.39-5.5,5.08-7.87,8.03-1.76,2.19-3.34,4.49-4.75,6.86-.04-.48-.09-.95-.13-1.43-.24-3.37-1.86-6.46-4.49-8.51-2.03-1.59-4.49-2.44-7.09-2.46-1.1-.01-2.22.13-3.29.42l-10.35,2.73c-4.2,1.13-7.49,4.27-9.07,8.73-1.95,5.71-3.92,11.39-5.9,17.04l-3.57-9.42c-1.65-4.89-5.92-8.05-11.02-8.09-1.09-.01-2.19.13-3.32.42l-10.28,2.72c-2.63.7-4.94,2.17-6.67,4.25-1.08,1.3-1.86,2.77-2.38,4.33-.79-.81-1.7-1.51-2.72-2.07-1.74-.94-3.69-1.44-5.66-1.46-1.09-.01-2.16.13-3.24.41l-8.13,2.15c-2.33.61-4.34,1.79-5.91,3.4-.45-.13-.9-.27-1.39-.35-.59-.09-1.2-.14-1.81-.15-.94-.01-1.9.09-2.93.29l-.3.06-10.02,2.65c-2.21.58-4.24,1.66-5.88,3.16-1.14,1.03-2.16,2.28-3.11,3.82l-5.32,8.96-2.77-3.45c-1.5-1.84-3.3-3.19-5.48-4.08-1.37-.53-2.82-.81-4.32-.81-1.19-.01-2.42.15-3.59.46l-10.36,2.74-1.53.63c-4.18,1.65-6.94,5.61-7.02,10.12-.04,2.4.68,4.72,2.15,6.87l.35.51.41.47s12.27,15.28,13.98,17.4l-8.65,14.61-14.19-33.08-1.03-2.22c.22-.41.42-.84.62-1.3l4.03-9.65c.44-1.02.75-2.07.92-3.14.14-.78.21-1.53.22-2.26.06-3.28-1.26-6.41-3.71-8.64-1.99-1.77-4.57-2.76-7.27-2.78-1.05-.01-2.13.13-3.24.42l-7.29,1.93c-2.14.57-4.08,1.65-5.75,3.21-1.63,1.53-2.87,3.44-3.66,5.68l-2.99,9.07c-.42,1.1-.7,2.21-.82,3.25-.08.64-.12,1.26-.13,1.86-.02.79.04,1.56.17,2.31-.69,1.02-1.22,2.06-1.59,3.14l-13.34,35.01c-.7-7.54-1.41-15.09-2.09-22.69-.24-3.35-1.85-6.43-4.59-8.58-2.02-1.54-4.44-2.37-7-2.39-1.09,0-2.19.13-3.3.42l-10.3,2.73c-4.22,1.11-7.52,4.26-9.1,8.74-1.96,5.71-3.92,11.39-5.91,17.05l-3.57-9.43c-1.65-4.89-5.93-8.05-11.02-8.09-1.08,0-2.19.13-3.3.42l-10.28,2.71c-2.62.7-4.92,2.17-6.69,4.27-1.64,1.98-2.67,4.35-2.97,6.83l-7.26,59.26v.54c-.07,3.31,1.09,6.34,3.27,8.57,2.12,2.18,5,3.4,8.11,3.42,1.12,0,2.28-.14,3.43-.45l7.97-2.11c5.29-1.4,8.92-5.54,9.56-10.74.5.59,1.05,1.13,1.66,1.62l.15.12c2.02,1.56,4.42,2.41,6.95,2.43,1.02,0,2.05-.12,3.06-.39l7.3-1.93c1.82-.46,4.45-1.62,6.7-4.56.92-1.22,1.63-2.54,2.15-3.97,2.08,2.8,5.36,4.58,9.15,4.61,1.13.01,2.29-.14,3.47-.45l7.96-2.11c1.75-.46,3.3-1.26,4.64-2.27.54.07,1.09.14,1.64.14,1.15,0,2.35-.14,3.54-.46l8.25-2.18c4.31-1.16,7.68-4.28,9.27-8.65.47-1.32,1.03-2.86,1.71-4.64.12-.31.23-.62.35-.93l11.32-3,.26.62c1.19,2.69,3.17,4.77,5.67,6.01,1.58.79,3.3,1.19,5.11,1.2,1.15,0,2.35-.15,3.57-.47l8.09-2.14c1.15-.3,2.21-.76,3.19-1.3h.07c1.04.02,2.11-.13,3.2-.41l10.4-2.75c3.66-.96,6.76-3.46,8.75-7.06l5.58-9.53c.81,1.01,2.9,3.58,2.99,3.7.82,1.08,1.77,2.02,2.69,2.7,1.38,1.05,2.93,1.78,4.72,2.22.83.19,1.7.29,2.57.3,1.11,0,2.26-.14,3.4-.44l10.39-2.75c2.13-.57,3.95-1.68,5.38-3.13.99.27,2.01.43,3.06.43,1.13.01,2.28-.14,3.43-.44l8.18-2.16c2.74-.73,5.02-2.21,6.69-4.18,1.32.53,2.74.82,4.22.83,1.12.01,2.27-.14,3.43-.44l7.95-2.1c5.3-1.4,8.94-5.54,9.57-10.76.53.62,1.13,1.2,1.79,1.74,2.03,1.57,4.43,2.42,6.97,2.44,1.05,0,2.1-.13,3.05-.38l7.46-1.97c1.79-.48,4.37-1.65,6.55-4.53.94-1.24,1.66-2.58,2.14-3.95,2.08,2.8,5.36,4.58,9.15,4.61,1.15.01,2.32-.14,3.47-.45l7.96-2.11c5.71-1.5,9.47-6.22,9.58-12.15v-.57s-.05-.57-.05-.57c-.08-.84-.16-1.68-.24-2.52.35.27.67.56,1.02.82,2.76,2.06,5.88,3.66,9.26,4.76,3.29,1.08,6.84,1.64,10.53,1.68h.14c3.52.03,7.22-.46,10.97-1.45,3.68-.97,7.26-2.39,10.65-4.2,3.28-1.76,6.41-3.88,9.27-6.28,2.87-2.38,5.51-5.06,7.88-7.98,2.37-2.92,4.45-6.06,6.17-9.35,1.72-3.28,3.09-6.74,4.1-10.27,1.04-3.7,1.6-7.47,1.66-11.23.07-3.88-.39-7.61-1.38-11.08ZM349.55,81.31l-.33,17.88-5.91-7.33c2.08-3.54,4.16-7.05,6.24-10.55ZM499.64,49.73c-.65,1.71-1.54,3.23-2.68,4.66-1.16,1.45-2.5,2.69-4.06,3.79-1.4.97-2.85,1.65-4.42,2.07-.91.24-1.74.37-2.45.36-.27,0-.54-.03-.76-.06-1.02-.18-1.41-.47-1.57-.6-.2-.16-.51-.44-.83-1.18-.31-.69-.47-1.68-.44-2.87.02-1.5.32-2.95.91-4.47.67-1.7,1.57-3.28,2.71-4.71,1.13-1.43,2.47-2.7,4.02-3.77,1.4-.98,2.84-1.65,4.44-2.07.89-.24,1.7-.35,2.39-.35.28,0,.55.03.8.07.89.16,1.32.42,1.57.61.21.16.52.46.84,1.18.32.72.48,1.67.46,2.83-.03,1.53-.34,3-.94,4.52Z" style="fill:#ffde11;"/><path d="M167.24,107.92c.07-.53.28-1.01.64-1.44.36-.44.81-.73,1.37-.88l10.26-2.71c.96-.25,1.58.1,1.86,1.06l13.77,36.37c2.56-7.4,5.12-14.75,7.69-22.05,2.57-7.29,5.12-14.63,7.65-22.02.4-1.14,1.04-1.82,1.92-2.05l10.31-2.73c.55-.14.99-.08,1.32.18.34.27.51.64.53,1.12.84,9.29,1.69,18.54,2.56,27.75.87,9.21,1.74,18.44,2.6,27.7v.12c-.02,1.12-.63,1.83-1.84,2.15l-7.97,2.11c-1.23.33-1.86-.11-1.9-1.28l-3.49-37.55-14.36,41.21c-.15.42-.37.84-.68,1.24-.31.4-.63.65-.95.73l-7.39,1.96c-.36.1-.68.03-.98-.2-.29-.24-.5-.54-.63-.91-2.13-5.7-4.27-11.36-6.44-16.96-2.16-5.61-4.33-11.27-6.52-16.98l-4.89,39.72c-.02,1.2-.66,1.96-1.92,2.3l-7.97,2.11c-1.2.31-1.8-.13-1.77-1.32l7.2-58.71Z" style="fill:#be202e;"/><path d="M236.06,146.82c.15-.58.31-1.14.5-1.65.18-.5.34-.96.49-1.39l23.12-60.68c.09-.33.33-.73.7-1.19.37-.46.88-.78,1.51-.95l6.61-1.75c.66-.17,1.13-.13,1.41.12.28.26.48.48.62.69l1.3,2.82,20.7,48.24c0,.09.01.22.05.42.04.2.06.35.06.49-.02.82-.63,1.39-1.83,1.7l-8.09,2.14c-.6.15-1.07.16-1.39,0-.32-.16-.59-.47-.8-.93l-.71-1.68c-.49-1.17-.99-2.34-1.49-3.51-.5-1.17-.98-2.35-1.45-3.57l-25.34,6.71c-.74,2.09-1.47,4.07-2.17,5.92-.7,1.85-1.3,3.46-1.78,4.85-.41,1.1-1.13,1.8-2.17,2.08l-8.22,2.17c-.52.14-.93.15-1.25.04-.31-.1-.46-.35-.45-.73,0-.17.02-.29.05-.38ZM265.44,95.66c-1.56,4.14-3.09,8.43-4.63,12.85-1.54,4.42-3.08,8.69-4.62,12.81l17.49-4.62-8.24-21.03ZM265.53,63.46c.23-.65.55-1.17.95-1.54.4-.37.83-.63,1.3-.76l7.31-1.93c.44-.11.74-.09.93.06.17.16.25.39.25.69,0,.22-.03.45-.08.73-.04.27-.12.54-.23.81l-4.06,9.7c-.54,1.28-1.28,2.05-2.21,2.29l-6.41,1.7c-.46.13-.76.09-.89-.1-.14-.17-.2-.41-.19-.71,0-.28.01-.55.06-.83.02-.28.11-.59.26-.92l3.03-9.19Z" style="fill:#be202e;"/><path d="M297.09,130.76c.28-.51.56-1.03.84-1.55.28-.52.59-1.05.89-1.59l18.51-31.29c-3.22-4.03-6.41-8.01-9.57-11.94-3.16-3.94-6.15-7.66-8.97-11.17l-.2-.24c-.24-.35-.35-.62-.35-.84,0-.3.16-.51.46-.63.31-.11.64-.26,1.03-.42l9.7-2.56c.6-.16,1.1-.16,1.49,0,.39.16.79.47,1.19.96l12.1,15.1,12.87-21.7c.44-.72.87-1.25,1.27-1.62.4-.36.91-.63,1.5-.79l9.78-2.59c.44-.08.77-.1.99-.07.21.04.32.2.32.47,0,.25-.18.65-.51,1.23-3.01,5.05-6.2,10.41-9.57,16.09-3.37,5.68-6.75,11.4-10.12,17.17l18.86,23.4c.24.31.39.59.45.83.07.25.1.44.1.57-.01.38-.32.64-.92.81l-10.35,2.73c-.38.1-.71.12-.98.06-.26-.07-.53-.19-.77-.38-.24-.17-.47-.41-.7-.71-.23-.29-.49-.61-.78-.97-2-2.45-3.97-4.9-5.89-7.35-1.94-2.44-3.9-4.89-5.9-7.33-2.24,3.78-4.48,7.57-6.68,11.34-2.21,3.77-4.43,7.54-6.64,11.34-.62,1.16-1.4,1.86-2.33,2.11l-10.43,2.76c-.6.16-.9.03-.89-.37,0-.08.03-.24.09-.48.06-.22.1-.36.13-.39Z" style="fill:#be202e;"/><path d="M360.4,56.84c0-.48.17-.95.47-1.38.3-.43.76-.73,1.36-.89l8.15-2.15c.46-.13.89-.07,1.3.14.4.22.6.61.59,1.15l-1.04,57.09c-.02,1.2-.67,1.96-1.95,2.31l-8.15,2.15c-1.2.32-1.79-.12-1.77-1.32l1.04-57.08Z" style="fill:#be202e;"/><path d="M389.06,49.26c.06-.52.27-1.01.63-1.45s.82-.72,1.37-.87l10.26-2.71c.96-.25,1.59.1,1.87,1.05l13.77,36.37c2.55-7.39,5.12-14.74,7.69-22.04,2.56-7.29,5.12-14.63,7.65-22.03.41-1.13,1.04-1.82,1.91-2.06l10.31-2.72c.55-.14.99-.09,1.32.17.34.27.51.64.53,1.12.84,9.3,1.69,18.54,2.56,27.75.87,9.21,1.74,18.44,2.61,27.7v.11c-.02,1.12-.63,1.84-1.84,2.16l-7.97,2.1c-1.23.33-1.85-.1-1.89-1.29l-3.49-37.55-14.36,41.21c-.14.42-.37.83-.68,1.24-.3.41-.61.65-.94.73l-7.4,1.95c-.36.09-.68.02-.98-.21-.3-.24-.5-.54-.63-.91-2.14-5.7-4.27-11.35-6.43-16.97-2.16-5.6-4.34-11.27-6.52-16.98l-4.89,39.73c-.03,1.19-.66,1.96-1.93,2.29l-7.97,2.11c-1.2.32-1.79-.12-1.77-1.32l7.2-58.71Z" style="fill:#be202e;"/><path d="M460.17,58.93c.06-2.86.47-5.72,1.25-8.59.78-2.86,1.89-5.63,3.3-8.31,1.4-2.68,3.08-5.23,5.01-7.64,1.94-2.4,4.09-4.59,6.44-6.56,2.36-1.96,4.87-3.67,7.55-5.13,2.68-1.45,5.47-2.56,8.38-3.33,2.88-.77,5.64-1.12,8.29-1.08,2.66.05,5.14.43,7.45,1.16,2.29.74,4.39,1.8,6.26,3.2,1.89,1.41,3.47,3.09,4.8,5.04,1.3,1.96,2.31,4.17,3.02,6.64.7,2.47,1.03,5.15.98,8.03-.06,2.9-.48,5.75-1.28,8.6-.8,2.84-1.91,5.59-3.3,8.26-1.4,2.68-3.07,5.21-5.02,7.62-1.96,2.4-4.11,4.58-6.45,6.54-2.36,1.96-4.87,3.66-7.55,5.11-2.69,1.44-5.48,2.55-8.39,3.31-2.9.77-5.68,1.15-8.33,1.11-2.65-.03-5.14-.41-7.44-1.17-2.31-.74-4.39-1.8-6.26-3.2-1.87-1.39-3.46-3.06-4.77-5-1.31-1.94-2.31-4.14-3.01-6.6-.69-2.46-1.01-5.13-.95-8.02ZM472.03,55.7c-.04,2.75.41,5.2,1.36,7.33.95,2.14,2.29,3.86,4,5.16,1.7,1.31,3.73,2.17,6.08,2.58,2.35.41,4.9.25,7.67-.48,2.74-.72,5.3-1.92,7.7-3.58,2.38-1.66,4.47-3.61,6.25-5.84,1.78-2.24,3.2-4.68,4.25-7.35,1.04-2.66,1.59-5.37,1.64-8.12.05-2.73-.41-5.16-1.37-7.28-.95-2.13-2.29-3.86-4.01-5.18-1.72-1.32-3.76-2.19-6.1-2.59-2.35-.42-4.89-.26-7.63.47-2.77.73-5.34,1.92-7.73,3.59-2.38,1.66-4.46,3.62-6.23,5.86-1.78,2.24-3.19,4.7-4.22,7.36-1.04,2.66-1.59,5.35-1.64,8.07Z" style="fill:#be202e;"/><path d="M717.12,127.82c-2.01-2.82-4.89-4.51-8.34-4.9-1.78-.2-3.62-.06-5.43.42-1.08.28-2.18.69-3.24,1.23.26-1.52.5-3.06.76-4.61,1.69-11,1.58-19.27-.36-25.29-3.06-9.48-8.84-12.4-13.16-13.16-2.63-.47-5.44-.32-8.36.45-3.1.82-6.34,2.36-9.63,4.56-2.53,1.7-5.06,3.71-7.51,5.98-2.03-1.68-4.44-2.67-7.11-2.89-1.84-.15-3.76.03-5.69.54-2.18.57-4.39,1.58-6.58,2.97-3.56,2.26-6.8,5.4-9.61,9.34-2.42,3.26-4.43,7.05-5.99,11.26-.32.85-.61,1.69-.87,2.54-1.99-3.51-4.43-6.37-7.3-8.56-5.5-4.18-11.98-5.7-19.27-4.51-.94.15-1.89.36-2.83.61-6.25,1.65-12.44,5.39-18.41,11.07-2.61,2.5-5.13,5.4-7.54,8.71,1.44-5.61,2.88-10.98,4.31-16.05,2.17-7.79,4.21-14.46,6.04-19.84.75-2.24,1.31-3.62,1.66-4.39l12.25-25.5-19.04,2.9c-1.11.19-2.23.43-3.31.71-7.04,1.87-13.42,5.83-18.96,11.77-5.38,5.77-10.12,12.9-14.07,21.22-3.53,7.43-6.66,15.72-9.31,24.61-.5,1.66-.99,3.33-1.47,5.01-2.3-.06-4.67.23-7.06.87-2.64.69-5.34,1.82-8.01,3.33-4.95,2.8-9.79,6.7-14.4,11.6-4.3,4.58-7.94,9.32-10.81,14.1-2.29,3.68-4.41,7.45-6.35,11.27.09-5.85-.62-10.51-2.15-14.27-3.15-7.71-8.89-11.73-16.19-11.34-1.45.08-2.95.32-4.46.72-3.49.92-7.14,2.72-10.9,5.35l-7.38.05c-2.74.02-5.42.37-7.98,1.05-5.15,1.36-9.86,4.04-14.01,7.95-4.27,4.03-7.99,9-11.11,14.8-.45-.6-.92-1.18-1.42-1.74-3.51-3.88-7.96-6.26-13.22-7.08-3.57-.55-7.45-.28-11.53.8-1.7.45-3.47,1.05-5.25,1.78-5.87,2.41-11.85,6.62-17.78,12.5-4.07,4.04-7.83,8.53-11.22,13.45,2.01-8.2,4.03-15.95,6.03-23.09,2.18-7.79,4.21-14.46,6.04-19.83.76-2.25,1.32-3.62,1.66-4.4l11.41-26.04-18.25,3.45c-1.05.17-2.09.41-3.11.67-5.35,1.42-10.37,4.11-14.95,7.99-4.9,4.15-9.28,9.4-13.04,15.59-3.32,5.48-6.32,11.68-8.9,18.45-2.35,6.15-4.52,12.67-6.46,19.36-.97,3.1-1.94,6.43-2.94,9.85-3.01-2.79-6.61-4.45-10.76-4.96-1.99-.24-4.05-.19-6.18.15l.39-.66-25.22,6.68c-7.44,1.96-14.13,6.05-19.9,12.14-4.71,4.98-8.85,10.86-12.33,17.46-.7-3.75-2.18-7.01-4.4-9.56-2.81-3.2-6.44-5.16-10.82-5.83-1.28-.19-2.6-.26-3.95-.22,1.87-6.03,2.43-11.91,1.64-17.55-.91-6.44-3.47-11.75-7.63-15.78-3.83-3.69-9.02-6.02-15.44-6.9-5.24-.72-11.36-.17-18.17,1.63-.95.25-1.92.53-2.98.85-9.86,3.09-19.57,8.21-28.84,15.25-6.55,4.96-12.73,10.41-18.48,16.26-5.25-1.24-10.66-2.47-16.17-3.66-8.46-1.83-17.19-2.42-25.95-1.76-4.17.31-8.43,1.04-12.65,2.15-5.15,1.37-10.39,3.35-15.58,5.9-9.91,4.87-19.72,13-29.16,24.15-4.96,5.85-9.23,12.41-12.69,19.47-3.42,6.99-5.99,14.25-7.64,21.59-1.68,7.44-2.36,14.8-2.04,21.91.33,7.37,1.82,14.08,4.4,19.94,2.64,6.03,6.53,11.08,11.54,15.03,5.15,4.05,11.61,6.43,19.07,7.04,3.95.39,8.26.11,12.81-.83.95-.19,1.92-.42,2.88-.68.96-.25,1.92-.54,2.88-.85-.36,1.21-.7,2.41-1.01,3.62-2.12,8.16-2.99,16.55-2.59,24.92.3,9.57,2.45,17.81,6.37,24.46,3.74,6.37,8.65,11.38,14.56,14.92,5.67,3.39,12.19,5.55,19.39,6.43,7.02.84,14.36.48,21.84-1.1,1.27-.27,2.54-.58,3.81-.91,6.14-1.63,12.32-4.06,18.36-7.22,7.46-3.91,14.5-8.97,20.91-15.05,6.57-6.22,12.38-13.62,17.27-22.01,3.29-5.64,5.98-11.72,8.01-18.13,2.3.26,4.69.24,7.17-.03,1.88-.21,3.79-.57,5.67-1.07,3.05-.81,6.12-2,9.15-3.55.21-.11.41-.25.62-.36-1.05,5.11-2.09,9.94-3.11,14.38-1.56,6.81-3.02,12.68-4.36,17.43-.41,1.44-3.17,9.97-3.4,10.66l-8.75,14.83c1.2-.18,21.3-1.27,22.46-1.58,6.65-1.76,12.75-5.27,18.15-10.47,5.68-5.47,10.69-12.57,14.89-21.12,3.76-7.67,7.09-16.79,9.88-27.09.93-3.43,1.85-7,2.77-10.71,2.26.03,4.57-.27,6.9-.89h0c2.61-.69,5.27-1.8,7.91-3.28,4.99-2.81,9.83-6.74,14.38-11.66,3.49-3.77,6.48-7.65,8.98-11.55.76,2.78,1.81,5.19,3.2,7.22,3.81,5.58,9.53,8.05,16.09,6.93.6-.1,1.21-.23,1.83-.4,4.91-1.3,10-4.51,15.15-9.57,3.54-3.47,6.94-7.78,10.29-13.01,4.8,5.01,10.69,7.89,17.53,8.57,4.18.43,8.58.03,13.07-1.15,3.44-.91,6.99-2.31,10.56-4.14,4.54-2.33,8.9-5.38,13.04-9.09l1.48,6.28c4.66-1.23,9.19-2.83,13.49-4.77,4.95-2.21,9.51-5.13,13.54-8.65,4.09-3.59,7.69-7.94,10.7-12.98.59,1.67,1.34,3.18,2.23,4.53,4.31,6.54,10.93,9.03,18.6,7,.26-.07.51-.14.78-.22,6.1-1.85,12.43-6.34,18.82-13.37.59-.65,1.18-1.32,1.76-2.01,4.01,3.59,9.06,5.26,14.72,4.84,1.47-.11,2.99-.37,4.52-.78,4.56-1.2,9.36-3.73,14.27-7.5,3.18-2.46,6.26-5.45,9.26-9.05,4.06,5.55,10.04,7.76,16.96,6.21.26-.06.53-.13.79-.2,5.89-1.56,11.84-5.78,18.19-12.9,1.87-2.11,3.73-4.47,5.58-7.14,2.69,3.15,5.89,5.42,9.54,6.75,4.66,1.7,9.59,2.1,14.68,1.16.92-.17,1.84-.38,2.75-.62,3.91-1.04,7.75-2.76,11.4-5.11,1.14-.74,2.25-1.52,3.32-2.35,3.39,1.13,6.84,1.32,10.36.54.32-.07.65-.15.97-.24,5.58-1.47,10.8-4.79,15.48-9.87,3.91-4.22,7.48-9.41,10.63-15.44,2.68-5.12,5.14-10.51,7.33-16,.55-1.36,1.06-2.71,1.58-4.05-.14,1.47-.27,2.97-.35,4.46-.6,12.45,3.44,18.51,6.94,21.41,4.69,3.89,10.77,5,17.57,3.19,5.7-1.51,11.61-4.97,17.55-10.29,5.6-5.03,10.58-11.34,14.91-18.96,3.13-5.65,6.28-11.92,9.39-18.68,3.16-6.91,5.91-13.91,8.18-20.78l.2-.63c1.64-5.62,1.05-10.99-1.63-14.77ZM74.86,256.76c-3.84,4.13-6.52,6-8.1,6.84-1.21.64-2.28,1.09-3.2,1.34-.51.13-.95.2-1.3.19-.94-.02-1.23-.28-1.39-.43-.64-.59-1.09-1.35-1.4-2.4-.35-1.12-.44-2.41-.28-3.96.14-1.34.6-2.75,1.4-4.32l.13-.24c1.53-3.08,3.92-7.13,6.68-8.91,1.88-1.21,3.76-2.06,5.75-2.59,1.14-.3,2.32-.5,3.53-.58,3.68-.26,7.49.06,11.31.94l-13.13,14.12ZM124.56,349.19c-1.44,3.02-3.06,5.35-4.96,7.13-1.82,1.69-3.72,2.83-5.81,3.45l-.4.11c-1.84.49-3.47.48-4.97-.03-1.54-.52-2.88-1.72-4.1-3.67-1.2-1.9-1.86-5.1-1.92-9.26-.08-5.81.98-11.46,3.22-17.14l9.59-.36c1.85-.07,3.57.17,5.23.73,1.46.5,2.68,1.21,3.62,2.11.88.84,1.55,1.87,2.05,3.1.41,1.05.6,2.18.57,3.54-.09,4.07-.8,7.55-2.11,10.29Z" style="fill:#010101;"/><path d="M216.97,302.55c1.84-4.83,2.8-9.42,2.86-13.79.06-4.35-.42-8.5-1.43-12.44-1.02-3.94-2.44-7.7-4.28-11.28-1.84-3.58-3.74-7.01-5.7-10.29-1.3,1.02-2.43,1.92-3.37,2.72-.95.8-1.89,1.58-2.83,2.37-.95.8-1.92,1.6-2.92,2.41-1,.8-2.21,1.8-3.63,2.99.12-.16.85-.94,2.21-2.32,1.35-1.37,2.8-2.91,4.32-4.61,1.53-1.69,2.94-3.22,4.24-4.58,1.3-1.36,2-2.12,2.12-2.29,3.99-4.45,6.83-8.49,8.52-12.12,1.68-3.63,2.5-6.8,2.47-9.51-.04-2.7-.76-4.85-2.16-6.45-1.4-1.6-3.23-2.58-5.5-2.91-2.28-.35-4.84.02-7.69,1.11-2.85,1.1-5.64,2.89-8.34,5.37-2.48,2.28-4.48,4.91-5.98,7.89-1.52,2.98-2.57,6.11-3.18,9.39-.62,3.28-.78,6.61-.49,9.99.28,3.39,1.04,6.55,2.28,9.47-1.29,1.84-2.48,3.85-3.59,6.04-1.11,2.18-1.94,4.44-2.51,6.76-.46,1.47-.44,2.59.04,3.34.49.76,1.16,1.19,2,1.3.83.12,1.72-.08,2.68-.61.95-.52,1.59-1.36,1.93-2.55.22-1,.66-2.17,1.29-3.5.64-1.32,1.25-2.39,1.84-3.23,1.23,2.39,2.52,4.83,3.87,7.32,1.35,2.49,2.43,5.13,3.25,7.89.81,2.77,1.25,5.64,1.29,8.62.04,2.97-.52,6.1-1.66,9.39-.92,2.56-1.97,4.45-3.14,5.73-1.18,1.25-2.37,1.96-3.55,2.15-1.19.19-2.33-.13-3.42-.93-1.09-.79-1.94-2.06-2.57-3.79-.62-1.47-.88-3.13-.79-4.99.09-1.85.51-3.72,1.27-5.63.75-1.89,1.83-3.64,3.24-5.23,1.41-1.59,3.25-2.82,5.5-3.7-2.79-2.79-5.68-4.13-8.66-4.02-2.98.12-5.72,1.24-8.19,3.39-2.48,2.16-4.56,5.05-6.24,8.68-1.26,2.72-2.06,5.61-2.41,8.66-.96-2.1-2.12-3.96-3.51-5.57-2.67-3.09-5.99-5.2-9.94-6.32-3.97-1.12-8.17-1.06-12.63.19-4.46,1.25-9,3.7-13.6,7.37-4.61,3.66-8.91,8.66-12.87,15,2.98-.11,5.83.29,8.53,1.2,2.7.91,4.98,2.27,6.86,4.09,1.88,1.81,3.35,4.03,4.39,6.67,1.05,2.64,1.54,5.59,1.47,8.87-.15,6.55-1.44,12.39-3.88,17.51-2.43,5.12-5.43,9.34-8.96,12.65-3.53,3.31-7.36,5.57-11.47,6.79-4.1,1.23-7.9,1.24-11.38.07-3.48-1.18-6.41-3.66-8.8-7.45-2.39-3.77-3.62-9.04-3.72-15.79-.15-10.41,2.42-20.69,7.72-30.84,5.29-10.16,12.29-20.04,21-29.68,2.27.49,4.88.82,7.8.99,2.93.17,5.95-.05,9.04-.66,3.1-.63,6.13-1.65,9.1-3.13,2.96-1.45,5.62-3.52,7.98-6.17,2.11-2.45,3.42-4.94,3.93-7.45.5-2.5.08-4.73-1.26-6.69-1.22-1.44-2.9-2.45-5.06-3.03-2.16-.59-4.52-.84-7.09-.77-2.57.07-5.16.35-7.79.84-2.62.49-5,1.08-7.14,1.78-.54-3.93-.27-8.17.8-12.73,1.08-4.55,2.59-8.99,4.56-13.31,3.11.4,6.52.59,10.22.55,3.7-.03,7.52-.37,11.46-1,3.94-.64,7.89-1.65,11.88-3.04,3.98-1.38,7.81-3.18,11.49-5.38,5.44-3.48,9.93-7.38,13.45-11.71,3.52-4.31,6.06-8.59,7.62-12.8,1.55-4.21,2.06-8.21,1.53-12.01-.54-3.79-2.04-6.88-4.52-9.28-2.49-2.39-6-3.9-10.55-4.53-4.55-.63-10.1.06-16.64,2.06-8.45,2.65-16.66,6.99-24.64,13.04-7.98,6.05-15.26,12.78-21.85,20.22-7.19-1.76-14.6-3.46-22.2-5.11-7.61-1.65-15.35-2.18-23.23-1.59-7.88.59-15.85,2.87-23.92,6.84-8.07,3.97-16.1,10.67-24.09,20.11-4,4.72-7.39,9.93-10.17,15.61-2.79,5.7-4.85,11.53-6.2,17.52-1.35,5.98-1.9,11.83-1.64,17.53.26,5.7,1.38,10.8,3.35,15.29,1.97,4.5,4.87,8.24,8.67,11.24,3.8,3,8.64,4.73,14.5,5.22,2.99.3,6.24.07,9.76-.65,3.52-.73,7.02-1.93,10.53-3.6,3.5-1.68,6.84-3.88,10.03-6.63,3.19-2.73,5.89-6.06,8.1-9.97,2.21-3.91,3.79-8.43,4.74-13.57.94-5.14,1.01-10.99.2-17.56-4.35,4.68-8.43,8.03-12.22,10.05-3.79,2.03-7.16,3.02-10.08,2.98-2.94-.04-5.37-.96-7.3-2.76-1.93-1.79-3.34-4.12-4.22-7.02-.88-2.89-1.14-6.11-.77-9.67.37-3.55,1.48-7.14,3.34-10.75,3.72-7.49,7.97-12.79,12.77-15.89,4.8-3.1,9.82-4.84,15.08-5.22,5.25-.37,10.54.17,15.88,1.61,5.33,1.43,10.46,2.93,15.39,4.47-3.38,6.32-5.98,12.85-7.79,19.56-1.82,6.72-2.09,12.89-.82,18.54.39,2.2,1.16,4.2,2.32,5.99,1.16,1.8,2.43,3.36,3.83,4.68,1.39,1.33,2.84,2.43,4.35,3.33,1.51.88,2.86,1.51,4.06,1.87-3.35-.46-6.29-1.18-8.81-2.15-2.52-.95-4.99-2.27-7.4-3.94-5.91,5.09-11.21,10.46-15.9,16.11-4.7,5.66-8.71,11.53-12.03,17.64-3.32,6.1-5.83,12.43-7.53,18.98-1.7,6.55-2.39,13.25-2.05,20.08.22,7.4,1.8,13.59,4.74,18.59,2.94,4.99,6.72,8.87,11.36,11.65,4.64,2.77,9.95,4.52,15.94,5.25,5.98.72,12.16.41,18.54-.94,6.37-1.36,12.7-3.67,18.99-6.96,6.28-3.29,12.11-7.48,17.47-12.56,5.37-5.09,10.06-11.08,14.09-17.97,4.02-6.91,6.87-14.58,8.54-23.03.68-3.35,1.04-6.48,1.1-9.41,1.72,2.38,3.9,4.16,6.6,5.25,2.95,1.18,6.21,1.58,9.78,1.17,3.58-.41,7.15-1.52,10.7-3.34,3.56-1.82,6.84-4.38,9.84-7.69,3-3.31,5.42-7.3,7.26-12ZM203.47,240.59c.39-1.73,1.06-3.09,2-4.09.94-1,1.92-1.6,2.93-1.8,1.01-.19,1.64.07,1.89.83.25.75-.06,2.05-.93,3.91-.87,1.86-2.66,4.23-5.36,7.11-.75-2.24-.92-4.23-.53-5.96ZM145.61,271.98c2.5-.53,4.14-.49,4.93.12.78.61.89,1.53.31,2.77-.58,1.24-1.64,2.33-3.18,3.28-1.54.95-3.42,1.45-5.62,1.49-2.21.05-4.52-.91-6.94-2.85,4.5-2.68,8-4.28,10.51-4.81ZM152.26,215.89c2.18-1.93,4.43-3.83,6.73-5.65,2.3-1.83,4.58-3.52,6.83-5.06,2.24-1.54,4.32-2.9,6.21-4.09,5.21-3.27,9.1-4.71,11.68-4.3,2.57.4,3.99,1.72,4.26,3.95.27,2.24-.46,4.98-2.21,8.22-1.75,3.25-4.33,6.13-7.76,8.67-2.6,1.77-5.31,3.07-8.1,3.88-2.8.81-5.6,1.28-8.4,1.4-2.81.14-5.5.07-8.07-.2-2.57-.26-4.93-.65-7.09-1.18,1.77-1.82,3.74-3.7,5.93-5.63Z" style="fill:#28a8e0;"/><path d="M301.57,214.63c-.42-4.1-1.6-7.45-3.55-10.05-1.94-2.61-4.42-4.09-7.41-4.46-2.99-.36-6.33.46-10,2.45-3.67,1.98-7.45,5.46-11.32,10.43-2.23,2.76-4.54,6.22-6.94,10.38-2.38,4.16-4.71,8.54-6.98,13.15-2.27,4.6-4.33,9.11-6.18,13.54-1.85,4.43-3.29,8.26-4.31,11.52.1-.98.53-2.92,1.26-5.83.73-2.9,1.7-6.25,2.91-10.03,1.2-3.78,2.52-7.69,3.95-11.73,1.44-4.05,2.97-7.71,4.6-10.99.9-3.5,1.84-6.77,2.82-9.8.97-3.03,1.98-5.45,3.03-7.22-4.99,1.33-9.38,3.98-13.14,7.95-3.78,3.99-7.05,8.69-9.84,14.11-2.79,5.42-5.13,11.3-7.01,17.62-1.88,6.34-3.49,12.6-4.84,18.78-.79,3.47-1.79,8.51-3.01,15.15-1.22,6.63-2.61,13.91-4.17,21.86-1.56,7.95-3.18,16.17-4.85,24.69-1.67,8.51-3.32,16.35-4.96,23.49-1.63,7.15-3.16,13.25-4.58,18.31-1.42,5.05-2.67,8.13-3.73,9.22,5.49-.91,10.33-3.37,14.5-7.39,4.19-4.03,7.91-9.36,11.15-15.98,3.25-6.62,6.13-14.55,8.63-23.75,2.5-9.21,4.92-19.42,7.28-30.62,1.98,4.5,4.64,6.94,7.99,7.34,3.34.41,6.83-.42,10.45-2.47,3.61-2.03,7.12-4.9,10.54-8.58,3.41-3.68,6.16-7.36,8.26-11.04,2.57-4.47,5.12-9.76,7.66-15.87,2.55-6.09,4.76-12.35,6.64-18.74,1.88-6.41,3.31-12.69,4.3-18.85.98-6.16,1.26-11.7.84-16.6ZM273.01,241.52c-.38,3.23-1.13,6.98-2.26,11.28-1.14,4.31-2.45,8.68-3.94,13.16-.35.91-.92,2.31-1.73,4.22-.81,1.91-1.76,4.06-2.86,6.45-1.1,2.4-2.32,4.83-3.66,7.28-1.34,2.46-2.71,4.58-4.12,6.38-1.41,1.8-2.8,3.08-4.15,3.84-1.36.78-2.65.65-3.86-.39,1.44-7.84,2.83-15.2,4.17-22.07,1.33-6.87,2.34-12.02,3.01-15.44,4.07-7.46,7.46-13.04,10.15-16.74,2.7-3.69,4.79-5.91,6.27-6.64,1.49-.73,2.45-.27,2.89,1.37.44,1.65.47,4.08.1,7.3Z" style="fill:#28a8e0;"/><path d="M707.26,137.98c-.49-.68-1.18-1.07-2.07-1.17-.9-.1-1.77.06-2.6.48-.83.43-1.42,1.09-1.76,2-1.16,3.02-2.11,5.58-2.86,7.67-.75,2.1-1.5,4.03-2.25,5.79-.75,1.76-1.56,3.53-2.43,5.32-.88,1.8-1.96,3.87-3.23,6.25-1.99,3.51-3.57,5.86-4.74,7.05-1.18,1.2-2.04,1.49-2.59.88-.54-.6-.83-1.94-.86-4.04-.03-2.1.11-4.61.43-7.55.86-6.74,1.94-13.43,3.21-20.08,1.28-6.64,2.47-13.37,3.57-20.17,1.32-8.49,1.35-14.67.1-18.55-1.25-3.87-3.25-6.06-6.01-6.55-2.76-.49-5.97.49-9.64,2.96-3.67,2.46-7.32,5.79-10.96,10.02-.96,1.06-1.77,2.09-2.48,3.1-.7,1-1.46,2.02-2.29,3.05-.69,2.08-1.64,4.7-2.84,7.87-1.21,3.17-2.46,5.74-3.75,7.71.92-2.41,1.84-5.03,2.75-7.85.92-2.82,1.55-5.57,1.85-8.23.31-3.47.03-6.05-.83-7.72-.86-1.67-2.07-2.57-3.62-2.7-1.56-.13-3.25.39-5.08,1.55-1.84,1.17-3.52,2.83-5.04,4.99-1.4,1.87-2.6,4.12-3.57,6.75-.98,2.64-1.54,5.19-1.69,7.68-.14,2.48.25,4.75,1.18,6.81.92,2.06,2.58,3.52,4.99,4.38-1.27,3.46-2.57,6.95-3.89,10.5-1.33,3.53-2.62,7.1-3.88,10.68-.1.28-.09.51-.15.77-.55,1.37-1.24,3.26-2.09,5.73-1.03,2.99-2.27,6.27-3.71,9.83-1.45,3.57-3,7.14-4.69,10.71-1.68,3.57-3.37,6.53-5.08,8.87-1.69,2.35-3.37,3.82-5.04,4.39-1.66.58-3.17-.24-4.51-2.47,2.18-5.73,4.1-12.07,5.73-19.01,1.64-6.94,3.01-13.82,4.11-20.62,1.3-8.89,1.14-16.31-.5-22.25-1.63-5.94-4.21-10.25-7.7-12.91-3.51-2.67-7.58-3.63-12.24-2.87-4.64.76-9.33,3.4-14.04,7.89-4.71,4.51-9.13,11.04-13.26,19.59-4.08,8.47-7.28,18.99-9.61,31.52-.01.06-.05.08-.06.14-1.04,2.85-1.95,5.3-2.77,7.35-.81,2.05-1.59,3.98-2.34,5.81-.75,1.82-1.56,3.6-2.43,5.32-.87,1.72-1.83,3.74-2.87,6.05-1.85,3.74-3.41,6.3-4.64,7.64-1.23,1.34-2.18,1.74-2.85,1.16-.67-.57-1.05-1.89-1.12-3.97-.1-2.08.01-4.72.33-7.92.32-3.07,1.17-8.04,2.57-14.93,1.39-6.88,3.04-14.67,4.95-23.39,1.92-8.71,4.02-17.75,6.35-27.11,2.31-9.37,4.61-18.11,6.89-26.24,2.27-8.14,4.39-15.07,6.34-20.81,1.95-5.73,3.63-9.27,5.05-10.59-5.49.91-10.29,3.57-14.41,7.99-4.11,4.41-7.73,9.92-10.87,16.51-3.13,6.6-5.9,13.91-8.29,21.93-2.4,8.03-4.62,16.11-6.65,24.25-1.86-4.39-4.4-6.78-7.63-7.14-3.23-.37-6.66.47-10.27,2.51-3.61,2.04-7.15,4.92-10.63,8.61-3.48,3.71-6.32,7.41-8.54,11.11-3.73,6.01-6.93,12.18-9.59,18.51-2.57,6.1-4.72,12.14-6.51,18.1-.06.17-.17.29-.22.47-1.85,4.83-3.66,9.31-5.45,13.45-1.8,4.13-3.97,8.51-6.53,13.13-1.76,3.04-3.16,5-4.23,5.9-1.06.89-1.86,1.01-2.42.33-.54-.67-.81-2.02-.77-4.07.03-2.04.2-4.46.53-7.26.86-6.74,1.94-13.43,3.22-20.08,1.27-6.64,2.4-13.35,3.38-20.13,1.42-9.32,1.36-15.89-.18-19.69-1.55-3.79-3.94-5.61-7.15-5.43-3.22.18-6.94,1.97-11.13,5.39-4.2,3.42-8.17,7.72-11.92,12.92-1.3,1.7-2.7,3.9-4.21,6.62-1.51,2.7-2.98,5.53-4.36,8.47-1.39,2.94-2.67,5.86-3.82,8.74-1.16,2.88-1.96,5.27-2.41,7.15.33-1.72.84-3.82,1.53-6.31.68-2.48,1.5-5.22,2.48-8.18.97-2.97,2.15-6.07,3.54-9.28,1.39-3.22,2.96-6.41,4.71-9.59.22-1.42.49-2.88.83-4.39.34-1.51.85-3.31,1.53-5.39-5.26.03-9.68,1.75-13.27,5.14-3.61,3.39-6.64,7.83-9.13,13.3-2.49,5.48-4.57,11.69-6.19,18.63-1.62,6.84-2.96,13.68-4.05,20.53-.01.03-.04.05-.06.09-1.15,2.89-2.37,5.92-3.63,9.1-1.28,3.19-2.63,6.33-4.08,9.42-1.45,3.1-3.06,6.1-4.8,9.01-1.75,2.9-3.69,5.53-5.81,7.85-4.23,4.64-7.78,7.28-10.64,7.9-2.85.63-5.13-.06-6.84-2.06-1.7-1.99-2.9-4.82-3.61-8.5-.71-3.68-1.03-7.56-.97-11.65-2.64.02-5.11-.13-7.45-.47-2.33-.33-4.35-1.15-6.04-2.46,2.75.21,5.88.1,9.41-.36,3.51-.46,6.7-1.47,9.54-3.03,4.04-2.15,8.06-4.7,12.09-7.67,4.02-2.96,7.54-6.54,10.59-10.74,3.39-4.82,5.72-9.48,6.98-13.95,1.25-4.47,1.55-8.48.91-12.04-.66-3.56-2.04-6.51-4.16-8.87-2.12-2.35-4.8-3.78-8.04-4.28-3.23-.5-6.93.1-11.09,1.81-4.16,1.71-8.47,4.79-12.95,9.23-6.36,6.3-11.69,13.92-15.98,22.85-4.23,8.82-7.24,17.54-9.04,26.17-.02.06-.07.1-.08.16-1.04,2.99-1.96,5.54-2.76,7.65-.81,2.12-1.59,4.05-2.34,5.81-.75,1.76-1.59,3.55-2.52,5.35-.93,1.81-2.03,3.9-3.32,6.27-1.98,3.52-3.53,5.86-4.65,7.04-1.12,1.18-1.95,1.47-2.5.87-.55-.6-.84-1.95-.87-4.04-.03-2.1.11-4.61.43-7.55.32-3.07,1.17-8.04,2.57-14.92,1.4-6.88,3.05-14.68,4.96-23.4,1.91-8.71,3.99-17.74,6.25-27.09,2.25-9.35,4.52-18.08,6.79-26.22,2.28-8.13,4.39-15.05,6.34-20.8,1.95-5.74,3.63-9.27,5.04-10.6-4.29.73-8.18,2.58-11.65,5.53-3.49,2.95-6.6,6.7-9.35,11.22-2.74,4.53-5.22,9.66-7.4,15.4-2.19,5.73-4.2,11.76-6.02,18.07-2.63,8.43-5.33,18.06-8.1,28.91-2.78,10.85-5.1,21.6-6.99,32.27-2.33,12.7-3.54,23.87-3.65,33.52-.04,5.85.83,10.06,2.6,12.64,1.76,2.59,4.08,3.64,6.94,3.15,2.86-.49,6.09-2.5,9.69-6.02,3.59-3.54,7.25-8.64,10.98-15.33,2.78-4.83,5.46-10.12,8.08-15.82.61,6.38,2.33,11.47,5.26,15.14,3.58,4.48,8.07,6.99,13.46,7.53,5.38.53,11.19-.8,17.42-4,6.23-3.2,11.97-8.16,17.26-14.84,3.45-4.4,6.5-9.16,9.16-14.27-.28,1.58-.57,3.12-.87,4.55-.22,1.14-.61,2.71-1.19,4.69-.57,1.98-1.26,4.02-2.06,6.14-.8,2.11-1.65,4.1-2.51,5.96-.87,1.86-1.78,3.18-2.72,3.98,4.05-1.08,7.91-2.44,11.59-4.08,3.68-1.66,6.96-3.75,9.86-6.27,2.89-2.53,5.38-5.64,7.48-9.32,2.1-3.67,3.59-8.07,4.47-13.19.89-4.71,1.83-10.15,2.82-16.31.98-6.17,2.02-12.71,3.12-19.65,1.13-4.64,2.69-9.05,4.65-13.23,1.97-4.19,4.12-8.02,6.47-11.48,2.69-3.98,4.83-6.6,6.43-7.91,1.58-1.31,2.78-1.72,3.56-1.25.78.47,1.18,1.68,1.22,3.64.02,1.96-.18,4.29-.61,6.98-.78,4.28-1.76,8.81-2.95,13.6-1.19,4.79-2.38,9.63-3.56,14.48-1.19,4.86-2.34,9.71-3.47,14.55-1.13,4.84-1.96,9.44-2.5,13.79-1.08,8.42-.54,14.25,1.6,17.48,2.13,3.24,5.05,4.3,8.74,3.18,3.69-1.11,7.77-4.12,12.24-9.03,4.47-4.92,8.56-11.33,12.27-19.23.1-.22.21-.47.32-.7-.02,1.17,0,2.27.07,3.25.19,4.82,1.46,8.56,3.84,11.19,2.36,2.63,5.34,3.81,8.91,3.54,3.58-.27,7.59-2.11,12.02-5.52,4.43-3.41,8.87-8.75,13.31-16.03.71-1.14,2.1-3.64,4.2-7.52,2.09-3.88,4.3-7.98,6.63-12.34,2.32-4.34,4.51-8.52,6.54-12.52,2.03-4,3.41-6.7,4.1-8.11-1.6,5.31-3.73,11.21-6.39,17.67-2.65,6.47-5.08,12.16-7.28,17.09-.16,5.87.7,10.26,2.6,13.14,1.9,2.89,4.48,3.97,7.75,3.24,3.28-.73,7.09-3.54,11.44-8.42,4.35-4.89,8.91-12.23,13.68-22.04.87-1.77,1.73-3.59,2.58-5.41.01.41.01.86.05,1.25.56,6.23,1.89,11.07,3.97,14.52,2.08,3.45,4.68,5.75,7.8,6.88,3.13,1.14,6.35,1.41,9.68.8,3.34-.61,6.52-1.89,9.54-3.84,3.03-1.95,5.52-4.28,7.52-6.98,3.62,2.97,7.08,4.09,10.35,3.36,3.26-.73,6.32-2.62,9.15-5.68,2.82-3.05,5.43-6.86,7.81-11.42,2.38-4.56,4.55-9.31,6.51-14.24,1.97-4.92,3.69-9.66,5.18-14.19,1.49-4.53,2.81-8.17,3.96-10.92.19-.51.29-.97.31-1.41,1.24-3.78,2.56-7.5,3.99-11.13,1.62-4.08,3.23-8.25,4.84-12.47,1.3-1.03,2.75-2.43,4.33-4.2,1.59-1.78,3.18-3.59,4.76-5.44,1.59-1.84,3.07-3.39,4.42-4.63,1.36-1.23,2.42-1.83,3.2-1.77.77.07,1.24,1.07,1.39,2.99.14,1.93-.18,5.17-.94,9.71-.89,4.72-1.93,9.37-3.13,13.96-1.18,4.59-2.37,9.17-3.56,13.77-1.19,4.58-2.23,9.13-3.12,13.64-.89,4.51-1.49,9.1-1.78,13.8-.28,5.78.79,9.67,3.21,11.67,2.42,2,5.47,2.52,9.16,1.54,3.69-.98,7.63-3.35,11.82-7.1,4.19-3.75,7.92-8.51,11.18-14.26,2.9-5.25,5.82-11.03,8.71-17.36,2.9-6.33,5.38-12.61,7.44-18.85.33-1.18.26-2.11-.22-2.8ZM372.85,207.87c1.45-3.7,3.04-7.08,4.8-10.12,2.32-4.15,4.43-6.66,6.34-7.57,1.9-.91,3.34-.82,4.3.29.98,1.09,1.36,2.93,1.15,5.49-.2,2.56-1.18,5.24-2.93,8-2.34,3.74-5.02,6.82-8.03,9.24-3.01,2.43-6.17,4.49-9.49,6.18,1.14-3.96,2.42-7.8,3.87-11.5ZM530.82,162.71c-.85,3.75-1.63,7.29-2.36,10.59-.73,3.32-1.43,6.32-2.12,9.01-.68,2.7-1.18,4.89-1.52,6.61-5.59,9.89-9.9,16.52-12.89,19.89-3,3.37-5.05,4.6-6.13,3.66-1.09-.93-1.34-3.54-.74-7.85.59-4.29,1.75-9.24,3.46-14.86,1.72-5.6,3.81-11.34,6.31-17.23,2.48-5.88,5.13-10.89,7.94-15.02,2.22-2.89,4.23-4.99,6-6.27,1.77-1.29,3.33-1.29,4.66,0-.89,3.89-1.77,7.72-2.62,11.47ZM601.93,154.26c-4.54-.69-7.87.94-9.96,4.88-2.09,3.95-3.23,8.85-3.37,14.73-.28,5.9-.02,11.74.77,17.49.8,5.76,2.97,11.03,6.5,15.79-1.21-.77-2.51-2.15-3.91-4.15-1.4-2-2.41-3.81-3.03-5.4-1.11,5.85-2.4,9.52-3.88,10.99-1.47,1.48-2.71,1.02-3.69-1.36-.99-2.39-1.56-6.54-1.7-12.47-.14-5.94.55-13.44,2.11-22.54,2.1-12.22,4.67-22.3,7.73-30.23,3.06-7.93,5.81-13,8.3-15.23,2.47-2.21,4.25-1.19,5.32,3.07,1.08,4.26.68,12.41-1.18,24.42Z" style="fill:#28a8e0;"/><path d="M681.67,241.85c0,7.93-6.23,14.16-14.33,14.16s-14.42-6.23-14.42-14.16,6.4-13.99,14.42-13.99,14.33,6.23,14.33,13.99ZM656.51,241.85c0,6.22,4.6,11.18,10.92,11.18s10.67-4.95,10.67-11.09-4.53-11.27-10.75-11.27-10.83,5.03-10.83,11.18ZM665.12,249.19h-3.24v-14c1.28-.26,3.06-.42,5.37-.42,2.65,0,3.84.42,4.86,1.02.77.59,1.37,1.7,1.37,3.07,0,1.53-1.19,2.73-2.9,3.24v.17c1.37.51,2.13,1.53,2.56,3.41.42,2.13.68,2.99,1.02,3.5h-3.49c-.42-.51-.68-1.79-1.11-3.42-.26-1.54-1.11-2.22-2.9-2.22h-1.53v5.63ZM665.21,241.25h1.54c1.78,0,3.24-.6,3.24-2.05,0-1.28-.94-2.13-2.99-2.13-.85,0-1.45.09-1.78.17v4.01Z" style="fill:#231f20;"/><path d="M257.11,369.01l-5.21-19.9,13.38-3.5,1.06,4.05-8.74,2.29.98,3.77,8.27-2.17,1.01,3.85-8.27,2.16,1.08,4.13,9.25-2.42,1.07,4.1-13.89,3.63Z" style="fill:#be202e;"/><path d="M280.83,347.06c-.55-.42-1.2-.69-1.94-.83-.75-.13-1.43-.12-2.05.04-.32.09-.63.2-.95.34-.31.14-.58.33-.8.55-.22.23-.39.49-.5.79-.11.3-.12.65-.01,1.04.09.34.23.6.43.79.2.19.46.33.77.42.32.1.68.17,1.09.21.41.04.87.08,1.38.11.73.05,1.5.11,2.31.19.8.08,1.56.27,2.28.56.72.29,1.36.72,1.93,1.28.57.56.98,1.34,1.24,2.33.3,1.14.35,2.19.14,3.13-.21.95-.59,1.78-1.16,2.51-.57.73-1.28,1.35-2.13,1.85-.85.5-1.76.88-2.74,1.14-1.42.38-2.87.48-4.33.34-1.46-.15-2.75-.57-3.87-1.26l2.31-4.03c.64.47,1.42.8,2.32,1,.9.19,1.74.19,2.53-.02.36-.09.69-.22,1.01-.38.32-.16.58-.36.79-.6.21-.23.35-.51.43-.83.08-.32.06-.68-.04-1.07-.1-.37-.28-.67-.53-.88-.25-.22-.59-.38-.99-.51-.4-.12-.88-.21-1.45-.25-.56-.05-1.2-.08-1.91-.12-.69-.04-1.38-.12-2.06-.24s-1.32-.34-1.91-.65c-.59-.31-1.12-.75-1.57-1.3-.45-.55-.8-1.28-1.04-2.18-.29-1.1-.31-2.11-.07-3.02.25-.91.67-1.71,1.26-2.4.6-.7,1.33-1.29,2.19-1.76.85-.47,1.75-.83,2.69-1.08,1.12-.3,2.32-.39,3.6-.29,1.28.11,2.47.45,3.56,1.02l-2.22,4.03Z" style="fill:#be202e;"/><path d="M302.28,342.47c.3,1.16.34,2.2.12,3.11s-.64,1.7-1.24,2.38c-.61.68-1.35,1.26-2.25,1.73-.9.47-1.86.85-2.89,1.11l-2.39.63,1.97,7.51-4.81,1.26-5.21-19.91,7.31-1.91c1.09-.29,2.13-.44,3.14-.47,1-.03,1.92.1,2.75.39.83.29,1.55.78,2.15,1.45.61.68,1.06,1.58,1.36,2.73ZM297.48,343.76c-.12-.47-.31-.83-.58-1.08-.26-.25-.58-.42-.94-.5-.36-.09-.75-.1-1.17-.05-.41.05-.84.13-1.27.24l-2.11.55,1.23,4.69,2.02-.53c.45-.12.87-.27,1.26-.45.39-.18.73-.41,1.01-.68.28-.27.47-.59.58-.95.11-.36.1-.77-.03-1.24Z" style="fill:#be202e;"/><path d="M308.78,355.49l-5.21-19.91,13.39-3.5,1.06,4.05-8.74,2.29.99,3.76,8.26-2.16,1.01,3.85-8.27,2.16,1.08,4.13,9.25-2.42,1.07,4.11-13.88,3.63Z" style="fill:#be202e;"/><path d="M340.01,346.94c-1.14.93-2.55,1.62-4.24,2.05-1.54.41-3.02.52-4.46.36-1.44-.17-2.75-.59-3.95-1.26-1.2-.68-2.24-1.59-3.12-2.74-.88-1.15-1.52-2.5-1.93-4.06-.42-1.59-.52-3.11-.3-4.55.21-1.44.69-2.74,1.42-3.9.74-1.16,1.7-2.16,2.88-2.99,1.18-.83,2.54-1.45,4.06-1.84,1.4-.37,2.85-.48,4.34-.34,1.49.14,2.78.58,3.87,1.31l-2.41,4.11c-.61-.5-1.32-.8-2.13-.91-.81-.11-1.6-.06-2.37.14-.84.22-1.58.58-2.2,1.07-.62.49-1.12,1.08-1.48,1.75-.37.68-.59,1.42-.68,2.23-.09.82-.02,1.66.21,2.55.24.9.59,1.69,1.07,2.36.48.68,1.04,1.22,1.67,1.62.64.4,1.34.66,2.11.78.77.12,1.57.07,2.39-.15.96-.25,1.74-.65,2.35-1.22.61-.56,1.06-1.2,1.33-1.91l4.17,2.27c-.61,1.24-1.49,2.33-2.63,3.25Z" style="fill:#be202e;"/><path d="M345.41,345.9l-5.21-19.91,4.84-1.26,5.21,19.91-4.83,1.26Z" style="fill:#be202e;"/><path d="M367.85,340.03l-2.57-3.5-7.7,2.01-.44,4.29-5.23,1.37,3.14-22.09,4.67-1.22,13.47,17.75-5.34,1.4ZM358.69,326.84l-.74,7.49,5-1.31-4.26-6.19Z" style="fill:#be202e;"/><path d="M374.85,338.2l-5.21-19.9,4.84-1.26,4.11,15.71,7.7-2.01,1.1,4.19-12.54,3.28Z" style="fill:#be202e;"/><path d="M389.63,334.33l-5.21-19.91,4.84-1.27,5.21,19.91-4.84,1.27Z" style="fill:#be202e;"/><path d="M405.24,314.51c-.55-.42-1.2-.69-1.94-.83-.75-.14-1.43-.12-2.05.04-.32.08-.64.2-.95.34-.31.14-.58.33-.8.55-.22.23-.39.49-.5.79-.11.3-.12.64-.01,1.04.09.34.23.6.43.79.2.19.46.33.77.42.32.1.68.17,1.09.22.41.04.87.08,1.38.1.73.05,1.5.11,2.31.19.8.08,1.56.27,2.28.56.72.29,1.36.72,1.92,1.29.57.56.98,1.34,1.24,2.33.3,1.15.35,2.19.14,3.13-.2.94-.59,1.78-1.16,2.51-.57.73-1.28,1.35-2.13,1.85-.85.5-1.76.88-2.74,1.14-1.42.37-2.87.48-4.33.34-1.46-.15-2.75-.57-3.87-1.26l2.31-4.03c.64.47,1.42.81,2.32,1,.9.19,1.74.19,2.53-.02.36-.09.7-.22,1.01-.38.32-.17.58-.36.79-.6.21-.23.35-.51.42-.83.08-.32.07-.68-.04-1.07-.1-.37-.28-.67-.53-.88-.26-.21-.59-.38-.99-.51-.4-.13-.88-.21-1.45-.25-.56-.05-1.2-.08-1.91-.12-.69-.04-1.38-.12-2.06-.24-.68-.12-1.32-.34-1.91-.66-.6-.31-1.12-.75-1.57-1.3-.46-.55-.8-1.28-1.04-2.18-.29-1.1-.31-2.11-.07-3.02.25-.9.67-1.7,1.27-2.4.6-.69,1.32-1.28,2.18-1.76.86-.48,1.76-.84,2.69-1.08,1.12-.29,2.32-.39,3.6-.28,1.28.1,2.46.45,3.56,1.02l-2.22,4.04Z" style="fill:#be202e;"/><path d="M419.21,309.71l4.14,15.8-4.81,1.26-4.13-15.8-5.63,1.47-1.07-4.11,16.05-4.2,1.08,4.1-5.62,1.47Z" style="fill:#be202e;"/><path d="M442.97,320.38l-2.57-3.5-7.7,2.01-.44,4.29-5.23,1.37,3.14-22.09,4.67-1.22,13.47,17.74-5.34,1.4ZM433.81,307.18l-.74,7.49,5-1.31-4.26-6.18Z" style="fill:#be202e;"/><path d="M456.63,301.06c-.55-.42-1.2-.69-1.95-.83-.75-.14-1.43-.13-2.05.04-.32.08-.63.2-.95.34-.31.14-.58.33-.8.55-.22.23-.39.49-.5.79-.11.3-.11.64-.01,1.04.09.34.23.6.43.79.2.19.45.33.77.43.31.1.68.17,1.09.21.41.04.87.08,1.38.1.73.05,1.5.11,2.3.2.8.08,1.56.26,2.28.56.71.29,1.36.72,1.93,1.28.57.57.98,1.34,1.24,2.33.3,1.15.35,2.19.14,3.13-.21.94-.59,1.78-1.16,2.51-.57.73-1.28,1.35-2.13,1.85-.85.5-1.76.88-2.74,1.14-1.42.37-2.87.49-4.33.34-1.46-.15-2.75-.57-3.87-1.25l2.31-4.03c.64.47,1.42.81,2.32,1,.9.2,1.75.19,2.54-.02.35-.09.69-.22,1.01-.38.32-.16.58-.36.79-.6.21-.23.35-.51.43-.83.07-.32.06-.68-.04-1.07-.1-.37-.28-.67-.53-.88-.26-.21-.59-.38-.99-.51-.4-.12-.88-.21-1.45-.25-.56-.04-1.2-.08-1.91-.11-.69-.04-1.38-.12-2.06-.24-.68-.13-1.32-.34-1.92-.66-.59-.31-1.12-.75-1.57-1.3-.45-.55-.8-1.28-1.03-2.18-.29-1.1-.32-2.11-.07-3.01.24-.91.66-1.7,1.26-2.4.6-.7,1.33-1.28,2.19-1.76.86-.47,1.75-.83,2.69-1.08,1.12-.29,2.32-.39,3.61-.28,1.28.1,2.46.45,3.55,1.02l-2.22,4.03Z" style="fill:#be202e;"/><path d="M473.61,312.36l-5.21-19.9,13.38-3.5,1.06,4.05-8.74,2.29.99,3.77,8.27-2.16,1.01,3.85-8.27,2.16,1.08,4.13,9.25-2.42,1.07,4.11-13.89,3.63Z" style="fill:#be202e;"/><path d="M503.33,304.58l-11.42-10.92-.09.02,3.52,12.99-4.67,1.22-5.21-19.9,5.48-1.43,11.38,10.9.08-.02-3.51-12.96,4.67-1.22,5.21,19.9-5.45,1.43Z" style="fill:#be202e;"/><path d="M519.91,300.24l-5.21-19.91,4.84-1.26,4.11,15.71,7.71-2.01,1.1,4.19-12.54,3.28Z" style="fill:#be202e;"/><path d="M534.7,296.37l-5.21-19.91,4.83-1.27,5.21,19.91-4.84,1.27Z" style="fill:#be202e;"/><path d="M561.69,289.31l-3.57-14.11-.09.02-1.49,15.44-3.37.88-8.72-12.77-.08.02,3.8,14.06-4.53,1.18-5.21-19.91,6.84-1.79,7.87,11.58.11-.03.99-13.9,6.95-1.82,5.21,19.91-4.72,1.24Z" style="fill:#be202e;"/><path d="M581.98,269.28c.3,1.16.35,2.2.12,3.11-.22.91-.64,1.7-1.24,2.38-.6.68-1.35,1.26-2.25,1.73-.89.47-1.86.85-2.89,1.11l-2.39.63,1.96,7.5-4.81,1.26-5.21-19.91,7.31-1.91c1.09-.29,2.13-.44,3.14-.47,1-.03,1.92.1,2.74.39.83.29,1.55.77,2.15,1.45.6.67,1.06,1.58,1.36,2.72ZM577.18,270.57c-.12-.47-.32-.83-.58-1.08-.27-.25-.58-.42-.95-.5-.36-.08-.75-.1-1.17-.05-.42.05-.84.13-1.27.24l-2.11.55,1.23,4.69,2.03-.53c.45-.12.87-.27,1.26-.45.4-.18.73-.41,1.01-.68.28-.27.47-.59.58-.95.1-.36.1-.77-.02-1.24Z" style="fill:#be202e;"/><path d="M588.49,282.3l-5.21-19.9,4.84-1.26,5.21,19.9-4.84,1.26Z" style="fill:#be202e;"/><path d="M597.42,279.96l-5.2-19.9,13.38-3.5,1.06,4.05-8.74,2.29.98,3.77,8.27-2.16,1.01,3.85-8.26,2.16,1.08,4.13,9.25-2.42,1.07,4.1-13.89,3.64Z" style="fill:#be202e;"/><path d="M613.53,275.75l-1.09-4.17,6.42-14.17-9.25,2.42-1.06-4.05,15.26-3.99,1.01,3.85-6.59,14.43,9.9-2.59,1.09,4.16-15.69,4.11Z" style="fill:#be202e;"/><path d="M645.84,267.29l-2.57-3.5-7.71,2.01-.44,4.29-5.23,1.37,3.14-22.09,4.67-1.22,13.48,17.74-5.34,1.4ZM636.68,254.1l-.74,7.49,5-1.31-4.26-6.19Z" style="fill:#be202e;"/></svg>