<?xml version="1.0" encoding="UTF-8"?><svg id="Capa_1" xmlns="http://www.w3.org/2000/svg" width="39" height="43.33" viewBox="0 0 39 43.33"><path d="M28.17,26H10.83c-.57,0-1.13.23-1.53.63-.41.41-.63.96-.63,1.53s.23,1.13.63,1.53c.41.41.96.63,1.53.63h17.33c.57,0,1.13-.23,1.53-.63.41-.41.63-.96.63-1.53s-.23-1.13-.63-1.53c-.41-.41-.96-.63-1.53-.63ZM28.17,17.33h-13c-.57,0-1.13.23-1.53.63s-.63.96-.63,1.53.23,1.13.63,1.53c.41.41.96.63,1.53.63h13c.57,0,1.13-.23,1.53-.63.41-.41.63-.96.63-1.53s-.23-1.13-.63-1.53c-.41-.41-.96-.63-1.53-.63ZM36.83,4.33h-6.5v-2.17c0-.57-.23-1.13-.63-1.53-.41-.41-.96-.63-1.53-.63s-1.13.23-1.53.63c-.41.41-.63.96-.63,1.53v2.17h-4.33v-2.17c0-.57-.23-1.13-.63-1.53-.41-.41-.96-.63-1.53-.63s-1.13.23-1.53.63c-.41.41-.63.96-.63,1.53v2.17h-4.33v-2.17c0-.57-.23-1.13-.63-1.53-.41-.41-.96-.63-1.53-.63s-1.13.23-1.53.63c-.41.41-.63.96-.63,1.53v2.17H2.17c-.57,0-1.13.23-1.53.63-.41.41-.63.96-.63,1.53v30.33c0,1.72.68,3.38,1.9,4.6,1.22,1.22,2.87,1.9,4.6,1.9h26c1.72,0,3.38-.68,4.6-1.9s1.9-2.87,1.9-4.6V6.5c0-.57-.23-1.13-.63-1.53-.41-.41-.96-.63-1.53-.63h0ZM34.67,36.83c0,.57-.23,1.13-.63,1.53-.41.41-.96.63-1.53.63H6.5c-.57,0-1.13-.23-1.53-.63-.41-.41-.63-.96-.63-1.53V8.67h4.33v2.17c0,.57.23,1.13.63,1.53.41.41.96.63,1.53.63s1.13-.23,1.53-.63c.41-.41.63-.96.63-1.53v-2.17h4.33v2.17c0,.57.23,1.13.63,1.53.41.41.96.63,1.53.63s1.13-.23,1.53-.63c.41-.41.63-.96.63-1.53v-2.17h4.33v2.17c0,.57.23,1.13.63,1.53.41.41.96.63,1.53.63s1.13-.23,1.53-.63c.41-.41.63-.96.63-1.53v-2.17h4.33v28.17Z" style="fill:#0e1109;"/></svg>