<?xml version="1.0" encoding="UTF-8"?><svg id="Capa_1" xmlns="http://www.w3.org/2000/svg" width="45.58" height="45.9" viewBox="0 0 45.58 45.9"><g id="disinfect"><path d="M10.15,25.85v19.3h7.8v-1.1c0-.6-.4-1.2-1-1.4l-1.2-.4.7-13.6,1.4-1.4" style="fill:none; stroke:#0e1109; stroke-miterlimit:10; stroke-width:1.5px;"/><path d="M20.85,45.05h2.9v-1.1c0-.6-.4-1.2-1-1.4l-1.2-.4v-15" style="fill:none; stroke:#0e1109; stroke-miterlimit:10; stroke-width:1.5px;"/><path d="M12.25,11.55h-1.4c-1.4,0-2.6,1.1-2.8,2.5l-.7,5.5c-.2,1.5.8,2.9,2.4,3.2l12.4,2.1c.9.1,1.7-.5,1.7-1.4v-.8c0-1-.7-1.9-1.7-2.1l-9.7-1.8v-2.9" style="fill:none; stroke:#0e1109; stroke-miterlimit:10; stroke-width:1.5px;"/><path d="M10.15,8.65V3.65c0-1.6,1.3-2.9,2.9-2.9h5.7c1.6,0,2.9,1.3,2.9,2.9v6.4c0,.8-.6,1.4-1.4,1.4h-5v-5c0-.8.6-1.4,1.4-1.4h2.1" style="fill:none; stroke:#0e1109; stroke-miterlimit:10; stroke-width:1.5px;"/><path d="M17.95,11.55h.7c1.6,0,2.9,1.3,2.9,2.9v2.9" style="fill:none; stroke:#0e1109; stroke-miterlimit:10; stroke-width:1.5px;"/><polyline points="23.75 23.65 35.05 23.65 35.75 25.05" style="fill:none; stroke:#0e1109; stroke-miterlimit:10; stroke-width:1.5px;"/><line x1="13.05" y1="42.25" x2="15.85" y2="42.25" style="fill:none; stroke:#0e1109; stroke-miterlimit:10; stroke-width:1.5px;"/><line x1="21.55" y1="42.25" x2="20.15" y2="42.25" style="fill:none; stroke:#0e1109; stroke-miterlimit:10; stroke-width:1.5px;"/><path d="M7.25,7.25h-3.6c-1.6,0-2.9,1.3-2.9,2.9v15.7c0,1.6,1.3,2.9,2.9,2.9h3.6" style="fill:none; stroke:#0e1109; stroke-miterlimit:10; stroke-width:1.5px;"/><line x1="35.75" y1="42.25" x2="35.75" y2="42.95" style="fill:none; stroke:#0e1109; stroke-miterlimit:10; stroke-width:1.5px;"/><line x1="35.75" y1="38.65" x2="35.75" y2="39.35" style="fill:none; stroke:#0e1109; stroke-miterlimit:10; stroke-width:1.5px;"/><line x1="35.75" y1="35.05" x2="35.75" y2="35.75" style="fill:none; stroke:#0e1109; stroke-miterlimit:10; stroke-width:1.5px;"/><line x1="35.75" y1="31.55" x2="35.75" y2="32.25" style="fill:none; stroke:#0e1109; stroke-miterlimit:10; stroke-width:1.5px;"/><line x1="44.35" y1="36.55" x2="45.05" y2="37.25" style="fill:none; stroke:#0e1109; stroke-miterlimit:10; stroke-width:1.5px;"/><line x1="41.45" y1="33.65" x2="42.25" y2="34.35" style="fill:none; stroke:#0e1109; stroke-miterlimit:10; stroke-width:1.5px;"/><line x1="38.65" y1="30.75" x2="39.35" y2="31.55" style="fill:none; stroke:#0e1109; stroke-miterlimit:10; stroke-width:1.5px;"/><line x1="35.75" y1="27.95" x2="36.55" y2="28.65" style="fill:none; stroke:#0e1109; stroke-miterlimit:10; stroke-width:1.5px;"/><line x1="27.25" y1="36.55" x2="26.55" y2="37.25" style="fill:none; stroke:#0e1109; stroke-miterlimit:10; stroke-width:1.5px;"/><line x1="30.05" y1="33.65" x2="29.35" y2="34.35" style="fill:none; stroke:#0e1109; stroke-miterlimit:10; stroke-width:1.5px;"/><line x1="32.95" y1="30.75" x2="32.25" y2="31.55" style="fill:none; stroke:#0e1109; stroke-miterlimit:10; stroke-width:1.5px;"/><line x1="35.75" y1="27.95" x2="35.05" y2="28.65" style="fill:none; stroke:#0e1109; stroke-miterlimit:10; stroke-width:1.5px;"/></g></svg>