<?xml version="1.0" encoding="UTF-8"?><svg id="Capa_1" xmlns="http://www.w3.org/2000/svg" width="40.83" height="41.85" viewBox="0 0 40.83 41.85"><g id="NewGroupe7"><g id="NewGroup0-10"><path d="M.92,34.63h.7v-14h-.7c-.4,0-.7-.3-.7-.7v15.3c0-.4.3-.7.7-.7h0v.1Z" style="fill:#0e1109; stroke:#0e1109; stroke-miterlimit:10; stroke-width:.25px;"/><path d="M14.92,38.42v-19.7c0-3.1-1.9-5.7-4.6-6.8h0c-.2,0-.4-.3-.4-.6h0v-1.7h-1.3v1.7c0,.8.5,1.5,1.2,1.8,2.2.9,3.7,3,3.7,5.6v.6h.7c.4,0,.7.3.7.7v15.3c0,.4-.3.7-.7.7h-.7v2.5c0,1.1-.9,2-2,2H3.52c-1.1,0-2-.9-2-2v-2.5h-.7c-.4,0-.7-.3-.7-.7v3.1c0,1.8,1.5,3.3,3.3,3.3h8c1.8,0,3.3-1.5,3.3-3.3h.2Z" style="fill:#0e1109; stroke:#0e1109; stroke-miterlimit:10; stroke-width:.25px;"/><path d="M.92,19.32h.7v-.6c0-2.5,1.5-4.7,3.8-5.5.7-.3,1.2-1,1.2-1.8v-1.7h-1.3v1.7c0,.3-.2.5-.4.6h0C2.22,13.13.32,15.73.32,18.83v1.2c0-.4.3-.7.7-.7h-.1Z" style="fill:#0e1109; stroke:#0e1109; stroke-miterlimit:10; stroke-width:.25px;"/><path d="M5.02,20.03c0,.4.3.7.7.7h7.9v14H.92c-.4,0-.7.3-.7.7s.3.7.7.7h13.3c.4,0,.7-.3.7-.7v-15.3c0-.4-.3-.7-.7-.7H5.73c-.4,0-.7.3-.7.7h0v-.1Z" style="fill:#0e1109; stroke:#0e1109; stroke-miterlimit:10; stroke-width:.25px;"/><path d="M.92,20.63h2.1c.4,0,.7-.3.7-.7s-.3-.7-.7-.7H.92c-.4,0-.7.3-.7.7s.3.7.7.7h0Z" style="fill:#0e1109; stroke:#0e1109; stroke-miterlimit:10; stroke-width:.25px;"/><path d="M7.62,6.42h2.1c.3,0,.5.1.7.3s.3.4.3.7h0c0,.3-.1.5-.3.7s-.4.3-.7.3h-4.3c-.3,0-.5-.1-.7-.3s-.3-.4-.3-.7h0c0-.3.1-.5.3-.7s.4-.3.7-.3h2.1c-.2,0-.3,0-.4-.2-.1,0-.2-.2-.2-.4h0v-.7h-1.5c-.6,0-1.2.2-1.6.7-.4.4-.7,1-.7,1.6h0c0,.6.2,1.2.7,1.6.4.4.9.6,1.5.7h4.7c.5,0,1.1-.3,1.5-.7s.7-1,.7-1.6h0c0-.6-.2-1.2-.7-1.6-.4-.4-1-.7-1.6-.7h-1.4v.7c0,.6-.7.7-.7.7h0l-.2-.1Z" style="fill:#0e1109; stroke:#0e1109; stroke-miterlimit:10; stroke-width:.25px;"/><path d="M7.02,5.12v.7h0c0,.2,0,.3.2.4.1.1.3.2.4.2,0,0,.7,0,.7-.7v-.7c.3-2.1,2.1-3.6,4.2-3.6h.5c1.3,0,2.6.5,3.6,1.5,1,1,1.5,2.2,1.5,3.6v18.6c0,1.9,1.5,3.4,3.4,3.4h.2c1.9,0,3.4-1.5,3.4-3.4v-7.6c0-.3.2-.5.4-.6l1.2-.5c.3-.1.5-.5.4-.9-.1-.3-.5-.5-.9-.4,0,0-.7.3-1.2.5-.7.3-1.2,1-1.2,1.8v7.6c0,1.2-1,2.1-2.1,2.1h-.2c-1.2,0-2.1-1-2.1-2.1V6.53c0-1.7-.7-3.3-1.9-4.5-1.2-1.2-2.8-1.9-4.5-1.9h-.5c-2.9,0-5.2,2.2-5.6,5h.1Z" style="fill:#0e1109; stroke:#0e1109; stroke-miterlimit:10; stroke-width:.25px;"/><path d="M40.52,10.62c-.2-.3-.6-.4-.9-.3-.3.2-.4.6-.3.9,0,0,0,.2.1.3.1.3.5.5.9.3.3-.1.5-.5.3-.9,0-.1-.1-.2-.2-.3h.1Z" style="fill:#0e1109; stroke:#0e1109; stroke-miterlimit:10; stroke-width:.25px;"/><path d="M36.93,8.72c.3.2.7.4,1,.7.3.2.7.2.9,0,.2-.3.2-.7,0-.9-.4-.3-.8-.6-1.2-.8-.3-.2-.7,0-.9.3s0,.7.3.9h0l-.1-.2Z" style="fill:#0e1109; stroke:#0e1109; stroke-miterlimit:10; stroke-width:.25px;"/><path d="M30.32,9.53c.3-.3.6-.5,1-.7.3-.2.4-.6.2-.9-.2-.3-.6-.4-.9-.2-.4.2-.8.5-1.2.8-.3.2-.3.7,0,.9.2.3.7.3.9,0h0v.1Z" style="fill:#0e1109; stroke:#0e1109; stroke-miterlimit:10; stroke-width:.25px;"/><path d="M33.43,8.12h1.2c.4,0,.7-.2.7-.6s-.2-.7-.6-.7h-1.4c-.4,0-.6.4-.6.7,0,.4.4.6.7.6h0Z" style="fill:#0e1109; stroke:#0e1109; stroke-miterlimit:10; stroke-width:.25px;"/><path d="M27.73,13.03c.4,0,.7-.1.8-.5,0-.4.2-.8.4-1.1.2-.3,0-.7-.3-.9s-.7,0-.9.3c-.2.4-.4.9-.5,1.4,0,.4.1.7.5.8h0Z" style="fill:#0e1109; stroke:#0e1109; stroke-miterlimit:10; stroke-width:.25px;"/><path d="M39.23,16.22c.2.3.6.4.9.2.3-.2.4-.6.2-.9-.1-.2-.3-.5-.5-.7-.2-.3-.6-.3-.9-.1-.3.2-.3.6-.1.9h0c.1.2.3.4.4.6h0Z" style="fill:#0e1109; stroke:#0e1109; stroke-miterlimit:10; stroke-width:.25px;"/><path d="M32.52,13.63c.4-.1.8-.2,1.2-.2s.6-.4.6-.7c0-.4-.4-.6-.7-.6-.5,0-1,.1-1.4.3-.3.1-.5.5-.4.8s.5.5.8.4h-.1Z" style="fill:#0e1109; stroke:#0e1109; stroke-miterlimit:10; stroke-width:.25px;"/><path d="M35.93,13.63c.4.1.7.3,1.1.5.3.2.7,0,.9-.3s0-.7-.3-.9c-.4-.2-.9-.4-1.3-.6-.3-.1-.7,0-.8.4-.1.3,0,.7.4.8h0v.1Z" style="fill:#0e1109; stroke:#0e1109; stroke-miterlimit:10; stroke-width:.25px;"/><path d="M28.73,15.72c.3.2.7.2.9-.1.2-.3.5-.6.8-.9.3-.2.3-.7,0-.9-.2-.3-.7-.3-.9,0-.4.3-.7.7-1,1-.2.3-.2.7.1.9h.1Z" style="fill:#0e1109; stroke:#0e1109; stroke-miterlimit:10; stroke-width:.25px;"/><path d="M34.12,16.72c-.4,0-.7.2-.8.5,0,.4.2.7.5.8.4,0,.8.2,1.1.3.3.1.7,0,.9-.4.1-.3,0-.7-.4-.9-.5-.2-.9-.3-1.4-.4h0l.1.1Z" style="fill:#0e1109; stroke:#0e1109; stroke-miterlimit:10; stroke-width:.25px;"/><path d="M37.93,18.72c-.3-.3-.7-.3-.9,0-.3.3-.3.7,0,.9.1.1.2.2.3.3.2.3.6.3.9,0,.3-.2.3-.6,0-.9-.1-.1-.2-.3-.4-.4h0l.1.1Z" style="fill:#0e1109; stroke:#0e1109; stroke-miterlimit:10; stroke-width:.25px;"/></g></g></svg>