<?xml version="1.0" encoding="UTF-8"?><svg id="Capa_1" xmlns="http://www.w3.org/2000/svg" width="41.17" height="43.15" viewBox="0 0 41.17 43.15"><path d="M30.33,6.31c-1.91,0-3.78.52-5.42,1.49-1.19-2.72-3.27-4.96-5.91-6.33C16.38.1,13.35-.33,10.44.25c-2.91.59-5.54,2.15-7.44,4.44C1.1,6.98.04,9.84,0,12.81v8.67c0,3.07,1.09,6.04,3.08,8.38,1.98,2.34,4.73,3.91,7.76,4.42v6.69c0,.57.23,1.13.63,1.53.41.41.96.63,1.53.63s1.13-.23,1.53-.63.63-.96.63-1.53v-6.69c2.21-.38,4.28-1.32,6.02-2.73.77,1.24,1.79,2.31,2.99,3.15,1.2.84,2.56,1.42,3.99,1.72v4.55c0,.57.23,1.13.63,1.53s.96.63,1.53.63,1.13-.23,1.53-.63c.41-.41.63-.96.63-1.53v-4.55c2.45-.5,4.65-1.83,6.23-3.76,1.58-1.93,2.44-4.36,2.44-6.85v-8.67c0-2.87-1.14-5.63-3.17-7.66-2.03-2.03-4.79-3.17-7.66-3.17h0ZM19.5,17.15v8.67c.02.41.06.83.13,1.23-1.16,1.38-2.72,2.36-4.46,2.82v-6.22c0-.57-.23-1.13-.63-1.53-.41-.41-.96-.63-1.53-.63s-1.13.23-1.53.63c-.41.41-.63.96-.63,1.53v6.2c-1.86-.48-3.5-1.56-4.68-3.07-1.18-1.51-1.82-3.37-1.82-5.29v-8.67c0-1.72.5-3.4,1.45-4.83.95-1.43,2.3-2.55,3.89-3.2,1.59-.66,3.33-.83,5.01-.5,1.68.33,3.23,1.16,4.44,2.38,1.17,1.19,1.97,2.7,2.3,4.33-1.25,1.81-1.93,3.95-1.93,6.15h0ZM36.83,25.81c0,1.34-.42,2.65-1.2,3.74-.78,1.09-1.87,1.92-3.14,2.37v-8.28c0-.57-.23-1.13-.63-1.53-.41-.41-.96-.63-1.53-.63s-1.13.23-1.53.63c-.41.41-.63.96-.63,1.53v8.28c-1.26-.45-2.36-1.27-3.14-2.37-.78-1.09-1.19-2.4-1.2-3.74v-8.67c0-1.72.68-3.38,1.9-4.6,1.22-1.22,2.87-1.9,4.6-1.9s3.38.68,4.6,1.9c1.22,1.22,1.9,2.87,1.9,4.6v8.67Z" style="fill:#0e1109;"/></svg>