<?xml version="1.0" encoding="UTF-8"?><svg id="Layer_1" xmlns="http://www.w3.org/2000/svg" width="60.37" height="75.47" viewBox="0 0 60.37 75.47"><path d="M28.08,0c1.21-.04,3.33,2.02,4.3,2.84,14.46,12.36,31.2,33.96,19.87,53.48-10.19,17.56-35.7,18.52-47.11,1.73C-8.03,38.68,8.03,17.32,22.31,4.25c1.14-1.04,3.02-2.78,4.24-3.6.47-.32.92-.63,1.52-.65ZM28.08,5.19C17.97,13.64,6.43,26,4.84,39.69c-2.71,23.24,26.23,35.09,41.21,18.08,12.37-14.04,1.9-32.69-8.64-44.06-1-1.08-8.65-8.61-9.32-8.51Z" style="fill:#1f77d6;"/><path d="M45.38,40.03c2.48-.04,2.3,3.8,2.01,5.4-1.26,7.12-7.42,13.82-14.45,15.52-1.89.46-7.02,1.59-7.02-1.57,0-2.56,3.24-2.08,4.89-2.37,5.72-.99,10.72-5.7,11.96-11.38.43-1.98-.18-5.56,2.61-5.61Z" style="fill:#1f77d6;"/><path d="M10.49,2.97c0,.39-.32.71-.71.71s-.71-.32-.71-.71.32-.71.71-.71.71.32.71.71Z" style="fill:#1f77d6;"/><circle cx="4.13" cy="20.71" r=".82" style="fill:#1f77d6;"/><circle cx="48.99" cy="14.8" r=".97" style="fill:#1f77d6;"/><path d="M54.88,26.14c0,.35-.28.64-.64.64s-.64-.28-.64-.64.28-.64.64-.64.64.28.64.64Z" style="fill:#1f77d6;"/><circle cx="2.45" cy="61.54" r="2.45" transform="translate(-23.49 5.68) rotate(-22.63)" style="fill:#1f77d6;"/><polygon points="4.13 2.26 4.92 6.71 7.92 7.49 4.92 8.28 4.13 13 3.35 8.28 .35 7.49 3.35 6.71 4.13 2.26" style="fill:#1f77d6;"/><polygon points="56.58 16.92 57.36 21.37 60.37 22.16 57.36 22.94 56.58 27.66 55.79 22.94 52.79 22.16 55.79 21.37 56.58 16.92" style="fill:#1f77d6;"/><polygon points="9.78 64.73 10.57 69.18 13.57 69.96 10.57 70.75 9.78 75.47 8.99 70.75 5.99 69.96 8.99 69.18 9.78 64.73" style="fill:#1f77d6;"/></svg>