<?xml version="1.0" encoding="UTF-8"?><svg id="Layer_1" xmlns="http://www.w3.org/2000/svg" width="113.78" height="63.93" viewBox="0 0 113.78 63.93"><path d="M55.27,12.86c-.33.55-.66,1.11-.99,1.67l.93,1.16.05-2.83Z" style="fill:#fff;"/><path d="M78.94,6.51s-.11-.07-.25-.1c-.04,0-.08-.01-.13-.01-.11,0-.24.02-.38.06-.25.07-.48.17-.7.33-.24.17-.46.37-.63.6-.18.23-.32.48-.43.74-.09.24-.14.47-.14.71,0,.19.02.35.07.45.05.12.1.16.13.19.03.02.09.07.25.1.03,0,.08,0,.12,0,.11,0,.24-.02.39-.06.25-.07.48-.17.7-.33.25-.17.46-.37.64-.6.18-.23.32-.47.42-.74.09-.24.14-.47.15-.71,0-.18-.02-.33-.07-.45-.05-.11-.1-.16-.13-.19Z" style="fill:#fff;"/><path d="M85.3,4.63c-.19-.68-.48-1.31-.86-1.87-.39-.58-.87-1.09-1.44-1.51-.55-.41-1.17-.72-1.84-.94-.63-.2-1.3-.31-2.01-.32h-.05c-.67,0-1.36.08-2.04.27-.68.18-1.34.44-1.97.78-.59.32-1.15.7-1.67,1.13-.34.28-.66.59-.97.92-.06-.06-.13-.11-.19-.16-.54-.42-1.19-.65-1.88-.66-.29,0-.57.03-.85.11l-1.64.43c-1.04.28-1.85,1.03-2.26,2.09-.55-.52-1.28-.82-2.08-.82-.28,0-.57.03-.85.11l-1.63.43c-.59.16-1.11.46-1.53.89-.29-.09-.59-.14-.9-.14-.28,0-.56.03-.84.11l-1.29.34c-.34.09-.67.23-.96.42-.05,0-.1,0-.15,0-.24,0-.47.02-.72.07l-.08.02-1.61.43c-.54.14-1.05.41-1.46.78-.27.24-.5.53-.71.87l-.02.04c-.19-.12-.39-.23-.61-.32-.36-.14-.74-.21-1.12-.21-.3,0-.61.04-.9.12l-1.72.45-.05.02c-.16-.49-.45-.94-.85-1.29-.54-.48-1.24-.75-1.97-.76-.28,0-.56.03-.84.11l-1.15.3c-.54.14-1.03.41-1.44.8-.41.38-.71.85-.9,1.4l-.47,1.43c-.1.27-.16.53-.19.78-.02.14-.03.28-.03.42v.11c-.06.12-.11.24-.15.36l-.39,1.02c-.2-.38-.49-.71-.85-1-.54-.41-1.18-.63-1.85-.63-.28,0-.57.03-.85.11l-1.63.43c-1.04.28-1.86,1.03-2.27,2.09-.55-.52-1.28-.82-2.08-.82-.28,0-.57.03-.85.11l-1.63.43c-.66.18-1.25.55-1.7,1.08-.42.5-.67,1.1-.75,1.73l-1.16,9.43v.15c-.02.86.29,1.65.87,2.25.57.59,1.34.91,2.17.92.29,0,.58-.03.87-.11l1.26-.33c.72-.19,1.32-.58,1.75-1.12.26.08.54.12.82.12.27,0,.55-.03.81-.1l1.14-.3c.39-.1.92-.32,1.41-.8.35.14.73.21,1.12.21.29,0,.59-.04.88-.11l1.26-.33c.26-.07.51-.17.74-.3.27,0,.54-.04.81-.11l1.31-.35c1.08-.29,1.93-1.07,2.32-2.16.03-.08.06-.16.09-.26l.28-.07c.26.3.58.55.95.73.42.21.88.32,1.35.32.29,0,.59-.04.89-.12l1.28-.34c.17-.04.34-.1.5-.18.17-.02.35-.05.52-.09l1.64-.43c.91-.24,1.67-.84,2.15-1.71l.03-.06c.33.24.71.41,1.13.51.22.05.45.08.67.08.29,0,.58-.03.87-.11l1.65-.44c.31-.08.61-.21.87-.39.04,0,.08,0,.12,0,.29,0,.58-.03.87-.11l1.3-.34c.39-.11.76-.28,1.08-.51.1.01.21.02.31.02.29,0,.58-.04.87-.11l1.25-.33c.71-.19,1.31-.58,1.74-1.12.27.08.54.12.83.12.28,0,.56-.03.81-.1l1.19-.31c.38-.1.89-.32,1.37-.79.35.14.73.21,1.12.21.29,0,.59-.04.88-.11l1.26-.33c.98-.26,1.73-.89,2.13-1.73.09.03.18.06.26.09.64.21,1.33.32,2.04.33h.02c.67,0,1.36-.09,2.06-.27.68-.18,1.33-.44,1.96-.77.59-.32,1.16-.7,1.67-1.13.51-.43.99-.91,1.41-1.43.43-.53.8-1.09,1.11-1.69.31-.6.56-1.22.74-1.86.19-.69.3-1.39.31-2.09.01-.74-.08-1.45-.27-2.12ZM84.06,8.5c-.16.56-.38,1.1-.65,1.62-.27.52-.6,1.02-.97,1.48-.37.46-.79.89-1.25,1.26-.45.38-.95.71-1.47.99-.54.29-1.1.51-1.68.66-.59.16-1.18.23-1.73.23h-.02c-.58,0-1.14-.09-1.66-.26-.53-.17-1.03-.43-1.46-.75-.06-.04-.11-.09-.16-.13.01.13.03.27.04.4v.09s0,.09,0,.09c-.02.94-.61,1.68-1.52,1.92l-1.26.33c-.18.05-.37.07-.55.07-.6,0-1.12-.29-1.45-.73-.08.22-.19.43-.34.63-.35.46-.75.64-1.04.72l-1.18.31c-.15.04-.32.06-.48.06-.4,0-.78-.14-1.1-.39-.11-.09-.2-.18-.28-.27-.1.82-.68,1.48-1.51,1.7l-1.26.33c-.18.05-.37.07-.54.07-.24,0-.46-.05-.67-.13-.26.31-.62.55-1.06.66l-1.29.34c-.18.05-.36.07-.54.07-.17,0-.33-.03-.48-.07-.23.23-.51.4-.85.49l-1.64.43c-.18.05-.36.07-.54.07-.14,0-.27-.02-.41-.05-.28-.07-.53-.18-.75-.35-.15-.11-.3-.26-.43-.43-.01-.02-.35-.42-.47-.58l-.88,1.51c-.31.57-.8.96-1.38,1.12l-1.64.43c-.17.04-.34.07-.51.06h-.01c-.15.08-.32.16-.5.21l-1.28.34c-.19.05-.38.07-.56.07-.29,0-.56-.07-.81-.19-.39-.2-.71-.52-.9-.95l-.04-.1-1.79.47s-.04.1-.06.15c-.11.28-.2.53-.27.73-.25.69-.78,1.18-1.47,1.37l-1.3.34c-.19.05-.38.07-.56.07-.09,0-.17-.01-.26-.02-.21.16-.46.29-.73.36l-1.26.33c-.19.05-.37.07-.55.07-.6,0-1.12-.29-1.45-.73-.08.23-.19.44-.34.63-.36.46-.77.65-1.06.72l-1.15.31c-.16.04-.32.06-.48.06-.4,0-.78-.14-1.1-.38l-.02-.02c-.1-.08-.18-.16-.26-.26-.1.82-.68,1.48-1.51,1.7l-1.26.33c-.18.05-.37.07-.54.07-.49,0-.95-.2-1.28-.54-.34-.35-.53-.83-.52-1.36v-.09s1.15-9.37,1.15-9.37c.05-.39.21-.77.47-1.08.28-.33.64-.57,1.06-.68l1.62-.43c.18-.05.35-.07.52-.07.81,0,1.48.51,1.74,1.28l.56,1.49c.31-.89.62-1.79.93-2.7.25-.71.77-1.21,1.44-1.38l1.63-.43c.17-.05.35-.07.52-.07.4,0,.79.13,1.11.38.43.34.69.83.73,1.36.11,1.2.22,2.4.33,3.59l2.11-5.53c.06-.17.14-.33.25-.5-.02-.12-.03-.24-.03-.37,0-.1,0-.19.02-.29.02-.16.06-.34.13-.51l.47-1.43c.13-.35.32-.66.58-.9.26-.25.57-.42.91-.51l1.15-.3c.18-.05.35-.07.51-.07.43,0,.84.16,1.15.44.39.35.6.85.59,1.37,0,.12-.01.23-.04.36-.03.17-.08.34-.15.5l-.64,1.53c-.03.07-.06.14-.1.21l.16.35,2.24,5.23,1.37-2.31c-.27-.33-2.21-2.75-2.21-2.75l-.06-.07-.06-.08c-.23-.34-.35-.71-.34-1.09.01-.71.45-1.34,1.11-1.6l.24-.1,1.64-.43c.19-.05.38-.08.57-.07.24,0,.47.05.68.13.35.14.63.35.87.65l.44.55.84-1.42c.15-.24.31-.44.49-.6.26-.24.58-.41.93-.5l1.58-.42h.05c.16-.04.31-.06.46-.06.1,0,.19,0,.29.02.08.01.15.03.22.06.25-.25.57-.44.93-.54l1.29-.34c.17-.04.34-.07.51-.06.31,0,.62.08.89.23.16.09.31.2.43.33.08-.25.21-.48.38-.68.27-.33.64-.56,1.05-.67l1.63-.43c.18-.05.35-.07.52-.07.81,0,1.48.51,1.74,1.28l.56,1.49c.31-.89.62-1.79.93-2.69.25-.71.77-1.2,1.43-1.38l1.64-.43c.17-.05.35-.07.52-.07.41,0,.8.14,1.12.39.42.32.67.81.71,1.35,0,.08.01.15.02.23.22-.37.47-.74.75-1.08.37-.47.79-.89,1.24-1.27.45-.38.95-.71,1.46-.99.54-.29,1.11-.52,1.69-.67.58-.15,1.16-.23,1.72-.23h.04c.58.01,1.14.1,1.65.26.54.17,1.03.42,1.47.75.45.33.83.74,1.15,1.2.3.45.54.96.69,1.52.16.55.23,1.14.22,1.75,0,.59-.1,1.19-.26,1.78Z" style="fill:#fff;"/><path d="M35.51,14.67c0-.08-.03-.13-.08-.18-.05-.04-.12-.05-.21-.03l-1.63.43c-.14.04-.24.14-.3.32-.4,1.17-.8,2.33-1.21,3.48-.41,1.15-.81,2.32-1.22,3.49l-2.18-5.75c-.04-.15-.14-.21-.29-.17l-1.62.43c-.09.02-.16.07-.22.14-.06.07-.09.14-.1.23l-1.14,9.28c0,.19.09.26.28.21l1.26-.33c.2-.05.3-.17.3-.36l.77-6.28c.35.9.69,1.8,1.03,2.69.34.89.68,1.78,1.02,2.68.02.06.05.11.1.14.05.04.1.05.16.03l1.17-.31c.05-.01.1-.05.15-.12.05-.06.08-.13.11-.2l2.27-6.51.55,5.94c0,.19.1.25.3.2l1.26-.33c.19-.05.29-.16.29-.34v-.02c-.14-1.46-.27-2.92-.41-4.38-.14-1.46-.27-2.92-.41-4.39Z" style="fill:#fff;"/><path d="M41.62,11.89l1.01-.27c.15-.04.26-.16.35-.36l.64-1.53s.03-.09.04-.13c0-.04.01-.08.01-.11,0-.05-.01-.08-.04-.11-.03-.02-.08-.03-.15,0l-1.16.31c-.07.02-.14.06-.21.12-.06.06-.11.14-.15.24l-.48,1.45c-.02.05-.04.1-.04.15,0,.04,0,.09,0,.13,0,.05,0,.09.03.11.02.03.07.04.14.02Z" style="fill:#fff;"/><path d="M46.33,20.73l-3.27-7.63-.21-.45s-.05-.07-.1-.11c-.05-.04-.12-.05-.22-.02l-1.05.28c-.1.03-.18.08-.24.15-.06.07-.1.14-.11.19l-3.66,9.59c-.02.07-.05.14-.08.22-.03.08-.06.17-.08.26,0,.01,0,.03,0,.06,0,.06.02.1.07.11.05.02.12.02.2,0l1.3-.34c.16-.04.28-.15.34-.33.08-.22.17-.47.28-.77.11-.29.23-.6.34-.94l4.01-1.06c.07.19.15.38.23.56.08.19.16.37.24.56l.11.27c.03.07.08.12.13.15.05.03.13.02.22,0l1.28-.34c.19-.05.29-.14.29-.27,0-.02,0-.05,0-.08,0-.03,0-.05,0-.07ZM40.5,19.18c.24-.65.49-1.33.73-2.03.24-.7.49-1.38.73-2.03l1.3,3.33-2.77.73Z" style="fill:#fff;"/><path d="M55.28,9.15l-1.55.41c-.09.03-.18.07-.24.12-.06.06-.13.14-.2.26l-2.03,3.43-1.91-2.39c-.06-.08-.13-.13-.19-.15-.06-.02-.14-.02-.24,0l-1.53.4c-.06.03-.11.05-.16.07-.05.02-.07.05-.07.1,0,.03.02.08.06.13l.03.04c.45.56.92,1.14,1.42,1.77.5.62,1,1.25,1.51,1.89l-2.93,4.95c-.05.09-.1.17-.14.25-.04.08-.09.16-.13.25,0,0-.01.03-.02.06,0,.04-.01.06-.01.08,0,.06.05.08.14.06l1.65-.44c.15-.04.27-.15.37-.33.35-.6.7-1.2,1.05-1.79.35-.6.7-1.19,1.06-1.79.32.39.63.77.93,1.16.3.39.62.77.93,1.16.05.06.09.11.12.15.04.05.07.08.11.11.04.03.08.05.12.06.04,0,.1,0,.16,0l1.64-.43c.1-.03.14-.07.15-.13,0-.02,0-.05-.02-.09,0-.04-.03-.08-.07-.13l-2.98-3.7c.53-.91,1.07-1.82,1.6-2.72.53-.9,1.04-1.75,1.51-2.54.05-.09.08-.16.08-.2,0-.04-.02-.07-.05-.07-.03,0-.09,0-.16.01Z" style="fill:#fff;"/><path d="M58.56,8.29l-1.29.34c-.1.02-.17.07-.21.14-.05.07-.07.14-.07.22l-.16,9.03c0,.19.09.26.28.21l1.29-.34c.2-.05.31-.18.31-.36l.16-9.03c0-.09-.03-.15-.09-.18-.07-.03-.13-.04-.21-.02Z" style="fill:#fff;"/><path d="M70.58,5.39c0-.08-.03-.14-.08-.18-.05-.04-.12-.05-.21-.03l-1.63.43c-.14.04-.24.15-.3.33-.4,1.17-.8,2.33-1.21,3.48-.41,1.15-.81,2.32-1.22,3.48l-2.18-5.75c-.04-.15-.14-.21-.3-.17l-1.62.43c-.09.02-.16.07-.22.14-.06.07-.09.15-.1.23l-1.14,9.28c0,.19.09.26.28.21l1.26-.33c.2-.05.3-.17.3-.36l.77-6.28c.35.9.69,1.8,1.03,2.68.34.89.68,1.78,1.02,2.68.02.06.05.11.1.14.05.04.1.05.16.03l1.17-.31c.05-.01.1-.05.15-.12.05-.07.08-.13.11-.2l2.27-6.52.55,5.94c0,.19.1.25.3.2l1.26-.33c.19-.05.29-.16.29-.34v-.02c-.14-1.46-.27-2.92-.41-4.38-.14-1.46-.27-2.92-.4-4.39Z" style="fill:#fff;"/><path d="M82.04,4.38c-.21-.31-.46-.57-.76-.8-.3-.22-.63-.39-.99-.51-.37-.12-.76-.18-1.18-.18-.42,0-.86.05-1.31.17-.46.12-.9.3-1.33.53-.42.23-.82.5-1.19.81-.37.31-.71.66-1.02,1.04-.31.38-.57.78-.79,1.21-.22.42-.4.86-.52,1.31-.12.45-.19.91-.2,1.36,0,.46.04.88.15,1.27.11.39.27.74.48,1.04.21.31.46.57.75.79.3.22.62.39.99.51.36.12.76.18,1.18.18.42,0,.86-.05,1.32-.18.46-.12.9-.3,1.33-.52.42-.23.82-.5,1.19-.81.37-.31.71-.66,1.02-1.03.31-.38.57-.78.79-1.2.22-.42.4-.86.52-1.31.13-.45.19-.9.2-1.36,0-.46-.04-.88-.15-1.27-.11-.39-.27-.74-.48-1.05ZM80.53,8.46c-.17.42-.39.81-.67,1.16-.28.35-.61.66-.99.92-.38.26-.78.45-1.22.57-.44.12-.84.14-1.21.08-.37-.07-.69-.2-.96-.41-.27-.21-.48-.48-.63-.82-.15-.34-.22-.72-.21-1.16,0-.43.09-.86.26-1.28.16-.42.39-.81.67-1.16.28-.35.61-.66.99-.93.38-.26.78-.45,1.22-.57.43-.12.83-.14,1.21-.07.37.06.69.2.97.41.27.21.48.48.63.82.15.34.22.72.22,1.15,0,.43-.09.86-.26,1.28Z" style="fill:#fff;"/><path d="M42.69,36.82c-.23.12-.56.47-.99,1.05-.43.58-.96,1.47-1.61,2.65-.11.54-.26,1.36-.48,2.44-.21,1.09-.43,2.25-.66,3.49.19.16.39.18.61.06.21-.12.43-.32.66-.61.22-.28.44-.62.65-1.01.21-.39.4-.77.58-1.15.17-.38.32-.72.45-1.02.13-.3.22-.52.27-.67.24-.71.44-1.4.62-2.08.18-.68.3-1.27.36-1.78.06-.51.05-.89-.02-1.15-.07-.26-.22-.33-.46-.22Z" style="fill:#fff;"/><path d="M25.53,35.24c.44-.02.89-.09,1.33-.22.44-.13.87-.33,1.28-.61.54-.4.95-.86,1.23-1.37.28-.51.39-.94.35-1.3-.04-.35-.27-.56-.67-.62-.41-.06-1.02.16-1.85.68-.3.19-.63.4-.98.65-.36.24-.72.51-1.08.8-.36.29-.72.59-1.06.89-.35.31-.66.6-.94.89.34.08.72.14,1.12.19.41.04.83.05,1.28.03Z" style="fill:#fff;"/><path d="M33.1,37.86c.14-.29.19-.5.15-.62-.04-.12-.14-.16-.3-.13-.16.03-.31.13-.46.28-.15.16-.25.37-.32.65-.06.27-.03.59.08.94.43-.46.71-.83.85-1.12Z" style="fill:#fff;"/><path d="M23.35,43.98c.24-.15.41-.32.5-.52.09-.2.07-.34-.05-.44-.12-.1-.38-.1-.78-.02-.4.08-.95.34-1.66.76.38.31.75.46,1.1.45.35,0,.65-.09.89-.24Z" style="fill:#fff;"/><path d="M113.38,20.21c-.32-.45-.77-.71-1.32-.78-.28-.03-.57,0-.86.07-.17.04-.34.11-.51.19.04-.24.08-.48.12-.73.27-1.74.25-3.05-.06-4-.48-1.5-1.4-1.96-2.08-2.08-.42-.07-.86-.05-1.32.07-.49.13-1,.37-1.52.72-.4.27-.8.59-1.19.94-.32-.27-.7-.42-1.12-.46-.29-.02-.59,0-.9.09-.34.09-.69.25-1.04.47-.56.36-1.08.85-1.52,1.48-.38.52-.7,1.11-.95,1.78-.05.13-.1.27-.14.4-.31-.55-.7-1.01-1.15-1.35-.87-.66-1.89-.9-3.05-.71-.15.02-.3.06-.45.1-.99.26-1.97.85-2.91,1.75-.41.39-.81.85-1.19,1.38.23-.89.46-1.74.68-2.54.34-1.23.66-2.29.96-3.14.12-.35.21-.57.26-.69l1.94-4.03-3.01.46c-.18.03-.35.07-.52.11-1.11.3-2.12.92-3,1.86-.85.91-1.6,2.04-2.22,3.36-.56,1.17-1.05,2.48-1.47,3.89-.08.26-.16.53-.23.79-.36,0-.74.04-1.12.14-.42.11-.84.29-1.27.53-.78.44-1.55,1.06-2.28,1.83-.68.72-1.25,1.47-1.71,2.23-.36.58-.7,1.18-1,1.78.01-.92-.1-1.66-.34-2.26-.5-1.22-1.41-1.86-2.56-1.79-.23.01-.47.05-.7.11-.55.15-1.13.43-1.72.85h-1.17c-.43.01-.86.07-1.26.17-.81.22-1.56.64-2.21,1.26-.68.64-1.26,1.42-1.76,2.34-.07-.09-.15-.19-.23-.28-.56-.61-1.26-.99-2.09-1.12-.56-.09-1.18-.04-1.82.13-.27.07-.55.17-.83.28-.93.38-1.87,1.05-2.81,1.98-.64.64-1.24,1.35-1.77,2.13.32-1.3.64-2.52.95-3.65.34-1.23.67-2.29.95-3.14.12-.36.21-.57.26-.7l1.8-4.12-2.88.55c-.17.03-.33.06-.49.11-.85.22-1.64.65-2.36,1.26-.77.66-1.47,1.49-2.06,2.46-.53.87-1,1.85-1.41,2.92-.37.97-.71,2-1.02,3.06-.15.49-.31,1.02-.46,1.56-.48-.44-1.05-.7-1.7-.78-.31-.04-.64-.03-.98.02l.06-.1-3.99,1.06c-1.18.31-2.23.96-3.15,1.92-.74.79-1.4,1.72-1.95,2.76-.11-.59-.34-1.11-.7-1.51-.44-.51-1.02-.82-1.71-.92-.2-.03-.41-.04-.62-.03.3-.95.38-1.88.26-2.78-.14-1.02-.55-1.86-1.21-2.49-.61-.58-1.43-.95-2.44-1.09-.83-.11-1.8-.03-2.87.26-.15.04-.3.08-.47.13-1.56.49-3.09,1.3-4.56,2.41-1.03.78-2.01,1.65-2.92,2.57-.83-.2-1.69-.39-2.56-.58-1.34-.29-2.72-.38-4.1-.28-.66.05-1.33.16-2,.34-.81.22-1.64.53-2.46.93-1.57.77-3.12,2.06-4.61,3.82-.78.93-1.46,1.96-2.01,3.08-.54,1.1-.95,2.25-1.21,3.41-.27,1.18-.37,2.34-.32,3.46.05,1.16.29,2.23.69,3.15.42.95,1.03,1.75,1.82,2.38.81.64,1.84,1.02,3.02,1.11.63.06,1.31.02,2.02-.13.15-.03.3-.07.45-.11.15-.04.3-.09.46-.14-.06.19-.11.38-.16.57-.33,1.29-.47,2.62-.41,3.94.05,1.51.39,2.82,1.01,3.87.59,1.01,1.37,1.8,2.3,2.36.9.54,1.93.88,3.07,1.02,1.11.13,2.27.08,3.45-.17.2-.04.4-.09.6-.14.97-.26,1.95-.64,2.9-1.14,1.18-.62,2.29-1.42,3.31-2.38,1.04-.98,1.96-2.15,2.73-3.48.52-.89.94-1.85,1.27-2.87.36.04.74.04,1.13,0,.3-.03.6-.09.9-.17.48-.13.97-.32,1.45-.56.03-.02.06-.04.1-.06-.17.81-.33,1.57-.49,2.27-.25,1.08-.48,2-.69,2.76-.06.23-.5,1.58-.54,1.69l-1.38,2.35c.19-.03,3.37-.2,3.55-.25,1.05-.28,2.02-.83,2.87-1.65.9-.86,1.69-1.99,2.35-3.34.59-1.21,1.12-2.66,1.56-4.28.15-.54.29-1.11.44-1.69.36,0,.72-.04,1.09-.14.41-.11.83-.28,1.25-.52.79-.44,1.55-1.06,2.27-1.84.55-.6,1.03-1.21,1.42-1.83.12.44.29.82.51,1.14.6.88,1.51,1.27,2.54,1.1.09-.02.19-.04.29-.06.78-.21,1.58-.71,2.39-1.51.56-.55,1.1-1.23,1.63-2.06.76.79,1.69,1.25,2.77,1.35.66.07,1.36,0,2.07-.18.54-.14,1.11-.37,1.67-.65.72-.37,1.41-.85,2.06-1.44l.23.99c.74-.19,1.45-.45,2.13-.75.78-.35,1.5-.81,2.14-1.37.65-.57,1.22-1.26,1.69-2.05.09.26.21.5.35.72.68,1.03,1.73,1.43,2.94,1.11.04-.01.08-.02.12-.03.96-.29,1.96-1,2.98-2.11.09-.1.19-.21.28-.32.63.57,1.43.83,2.33.76.23-.02.47-.06.71-.12.72-.19,1.48-.59,2.26-1.19.5-.39.99-.86,1.46-1.43.64.88,1.59,1.23,2.68.98.04,0,.08-.02.13-.03.93-.25,1.87-.91,2.88-2.04.3-.33.59-.71.88-1.13.43.5.93.86,1.51,1.07.74.27,1.52.33,2.32.18.15-.03.29-.06.44-.1.62-.16,1.23-.44,1.8-.81.18-.12.36-.24.52-.37.54.18,1.08.21,1.64.08.05-.01.1-.02.15-.04.88-.23,1.71-.76,2.45-1.56.62-.67,1.18-1.49,1.68-2.44.42-.81.81-1.66,1.16-2.53.09-.22.17-.43.25-.64-.02.23-.04.47-.06.71-.09,1.97.54,2.93,1.1,3.39.74.61,1.7.79,2.78.5.9-.24,1.84-.79,2.78-1.63.88-.79,1.67-1.79,2.36-3,.5-.89.99-1.89,1.48-2.95.5-1.09.93-2.2,1.29-3.29l.03-.1c.26-.89.17-1.74-.26-2.34ZM31.6,50.95c-.56.29-1.13.46-1.69.53-.57.07-1.08,0-1.55-.18-.43-.17-.77-.45-1.04-.83,0,.46-.07.96-.17,1.49-.26,1.34-.71,2.55-1.35,3.64-.64,1.09-1.38,2.04-2.23,2.84-.85.8-1.77,1.46-2.76,1.99-.99.52-2,.89-3,1.1-1.01.21-1.98.26-2.93.15-.95-.11-1.79-.39-2.52-.83-.73-.44-1.33-1.05-1.8-1.84-.47-.79-.72-1.77-.75-2.94-.05-1.08.05-2.14.32-3.17.27-1.04.67-2.04,1.19-3,.52-.96,1.16-1.89,1.9-2.79.74-.89,1.58-1.74,2.51-2.55.38.26.77.47,1.17.62.4.15.86.27,1.39.34-.19-.06-.4-.16-.64-.3-.24-.14-.47-.32-.69-.53-.22-.21-.42-.46-.61-.74-.18-.28-.31-.6-.37-.95-.2-.89-.16-1.87.13-2.93.29-1.06.7-2.09,1.23-3.09-.78-.24-1.59-.48-2.43-.71-.84-.23-1.68-.31-2.51-.25-.83.06-1.62.33-2.38.82-.76.49-1.43,1.33-2.02,2.51-.29.57-.47,1.14-.53,1.7-.06.56-.02,1.07.12,1.53.14.46.36.83.67,1.11.31.28.69.43,1.15.44.46,0,.99-.15,1.59-.47.6-.32,1.24-.85,1.93-1.59.13,1.04.12,1.96-.03,2.78-.15.81-.4,1.53-.75,2.15-.35.62-.78,1.14-1.28,1.58-.5.43-1.03.78-1.59,1.05-.55.26-1.11.45-1.66.57-.56.12-1.07.15-1.54.1-.93-.08-1.69-.35-2.29-.83-.6-.47-1.06-1.07-1.37-1.78-.31-.71-.49-1.52-.53-2.42-.04-.9.05-1.83.26-2.77.21-.95.54-1.87.98-2.77.44-.9.98-1.72,1.61-2.47,1.26-1.49,2.53-2.55,3.81-3.18,1.28-.63,2.54-.99,3.78-1.08,1.25-.09,2.47,0,3.67.25,1.2.26,2.37.53,3.51.81,1.04-1.18,2.19-2.24,3.45-3.2,1.26-.96,2.56-1.64,3.9-2.06,1.03-.32,1.91-.43,2.63-.33.72.1,1.27.34,1.67.72.39.38.63.87.71,1.47.08.6,0,1.23-.24,1.9-.25.67-.65,1.34-1.2,2.02-.56.68-1.27,1.3-2.13,1.85-.58.35-1.19.63-1.82.85-.63.22-1.26.38-1.88.48-.62.1-1.23.15-1.81.16-.59,0-1.12-.02-1.62-.09-.31.68-.55,1.39-.72,2.1-.17.72-.21,1.39-.13,2.01.34-.11.71-.2,1.13-.28.42-.08.82-.12,1.23-.13.41-.01.78.03,1.12.12.34.09.61.25.8.48.21.31.28.66.2,1.06-.08.4-.29.79-.62,1.18-.37.42-.79.75-1.26.98-.47.23-.95.4-1.44.49-.49.1-.97.13-1.43.1-.46-.03-.87-.08-1.23-.16-1.38,1.52-2.48,3.09-3.32,4.69-.84,1.6-1.24,3.23-1.22,4.88.02,1.07.21,1.9.59,2.5.38.6.84.99,1.39,1.18.55.19,1.15.18,1.8-.01.65-.19,1.25-.55,1.81-1.07.56-.52,1.03-1.19,1.42-2,.39-.81.59-1.73.61-2.77.01-.52-.07-.98-.23-1.4-.17-.42-.4-.77-.69-1.05-.3-.29-.66-.5-1.09-.65-.43-.14-.88-.21-1.35-.19.63-1,1.31-1.79,2.04-2.37.73-.58,1.45-.97,2.15-1.17.71-.2,1.37-.21,2-.03.62.18,1.15.51,1.57,1,.22.25.4.55.56.88.05-.48.18-.94.38-1.37.27-.57.59-1.03.99-1.37.39-.34.82-.52,1.3-.54.47-.02.93.19,1.37.64-.36.14-.65.33-.87.58-.22.25-.39.53-.51.83-.12.3-.19.6-.2.89-.01.29.03.56.12.79.1.27.23.47.41.6.17.13.35.18.54.15.19-.03.38-.14.56-.34.19-.2.35-.5.5-.91.18-.52.27-1.02.26-1.48,0-.47-.08-.93-.2-1.36-.13-.44-.3-.85-.51-1.25-.21-.39-.42-.78-.61-1.16-.09.13-.19.3-.29.51-.1.21-.17.39-.2.55-.05.19-.16.32-.31.4-.15.08-.29.12-.42.1-.13-.02-.24-.09-.32-.21-.08-.12-.08-.3,0-.53.09-.37.22-.72.4-1.07.17-.35.36-.67.57-.96-.2-.46-.32-.96-.36-1.5-.05-.53-.02-1.06.08-1.58.1-.52.26-1.01.5-1.48.24-.47.55-.89.95-1.25.43-.39.87-.68,1.32-.85.45-.17.86-.23,1.22-.18.36.05.65.21.87.46.22.25.33.59.34,1.02,0,.43-.12.93-.39,1.5-.27.57-.72,1.21-1.35,1.92-.02.03-.13.15-.34.36-.21.22-.43.46-.67.72-.24.27-.47.51-.68.73-.21.22-.33.34-.35.37.22-.19.42-.35.57-.47.16-.13.31-.25.46-.38.15-.13.3-.25.45-.38.15-.13.33-.27.53-.43.31.52.61,1.06.9,1.63.29.57.52,1.16.68,1.78.16.62.23,1.28.23,1.97,0,.69-.16,1.42-.45,2.18-.29.74-.68,1.37-1.15,1.9-.47.52-.99.93-1.56,1.22ZM11.84,40.6c-.61.65-1.03.95-1.28,1.08-.19.1-.36.17-.51.21-.08.02-.15.03-.21.03-.15,0-.19-.04-.22-.07-.1-.09-.17-.21-.22-.38-.06-.18-.07-.38-.04-.63.02-.21.09-.43.22-.68l.02-.04c.24-.49.62-1.13,1.06-1.41.3-.19.59-.33.91-.41.18-.05.37-.08.56-.09.58-.04,1.18,0,1.79.15l-2.08,2.23ZM18.22,52.08c.29-.01.56.03.83.12.23.08.42.19.57.33.14.13.25.3.32.49.07.17.09.34.09.56-.01.64-.13,1.19-.33,1.63-.23.48-.48.85-.78,1.13-.29.27-.59.45-.92.55l-.06.02c-.29.08-.55.08-.79,0-.24-.08-.46-.27-.65-.58-.19-.3-.29-.81-.3-1.46-.01-.92.15-1.81.51-2.71l1.52-.06ZM45.82,42.5c-.4.97-.81,1.8-1.21,2.51-.33.58-.77,1.16-1.31,1.75-.54.58-1.1,1.04-1.67,1.36-.57.32-1.12.45-1.65.39-.53-.06-.95-.45-1.26-1.16-.37,1.77-.76,3.39-1.15,4.84-.39,1.46-.85,2.71-1.36,3.76-.51,1.05-1.1,1.89-1.76,2.53-.66.64-1.43,1.02-2.29,1.17.17-.17.36-.66.59-1.46.22-.8.47-1.76.72-2.89.26-1.13.52-2.37.78-3.71.26-1.35.52-2.65.77-3.9.25-1.26.47-2.41.66-3.46.19-1.05.35-1.85.48-2.39.21-.98.47-1.97.77-2.97.3-1,.67-1.93,1.11-2.79.44-.86.96-1.6,1.56-2.23.59-.63,1.29-1.05,2.08-1.26-.17.28-.33.66-.48,1.14-.15.48-.3,1-.45,1.55-.26.52-.5,1.1-.73,1.74-.23.64-.44,1.26-.62,1.85-.19.6-.34,1.13-.46,1.59-.12.46-.18.77-.2.92.16-.52.39-1.12.68-1.82.29-.7.62-1.41.98-2.14.36-.73.73-1.42,1.1-2.08.38-.66.74-1.2,1.1-1.64.61-.78,1.21-1.34,1.79-1.65.58-.31,1.11-.44,1.58-.39.47.06.86.29,1.17.71.31.41.5.94.56,1.59.07.78.02,1.65-.13,2.62-.16.97-.38,1.97-.68,2.98-.3,1.01-.65,2-1.05,2.96ZM111.86,22.26c-.33.99-.72,1.98-1.18,2.98-.46,1-.92,1.92-1.38,2.75-.52.91-1.11,1.66-1.77,2.25-.66.59-1.29.97-1.87,1.12-.58.15-1.07.07-1.45-.24-.38-.32-.55-.93-.51-1.85.05-.74.14-1.47.28-2.18.14-.71.31-1.43.49-2.16.19-.73.38-1.45.56-2.18.19-.73.35-1.46.49-2.21.12-.72.17-1.23.15-1.53-.02-.3-.1-.46-.22-.47-.12-.01-.29.08-.51.28-.21.2-.45.44-.7.73-.25.29-.5.58-.75.86-.25.28-.48.5-.69.66-.25.67-.51,1.33-.77,1.97-.23.57-.43,1.16-.63,1.76,0,.07-.02.14-.05.22-.18.43-.39,1.01-.63,1.73-.24.72-.51,1.47-.82,2.24-.31.78-.65,1.53-1.03,2.25-.38.72-.79,1.32-1.24,1.81-.45.48-.93.78-1.45.9-.52.12-1.06-.06-1.64-.53-.32.43-.71.8-1.19,1.1-.48.31-.98.51-1.51.61-.53.1-1.04.06-1.53-.13-.49-.18-.9-.54-1.23-1.09-.33-.55-.54-1.31-.63-2.3,0-.06,0-.13,0-.2-.13.29-.27.57-.41.86-.75,1.55-1.47,2.71-2.16,3.48-.69.77-1.29,1.21-1.81,1.33-.52.11-.93-.06-1.23-.51-.3-.46-.44-1.15-.41-2.08.35-.78.73-1.68,1.15-2.7.42-1.02.76-1.95,1.01-2.79-.11.22-.33.65-.65,1.28-.32.63-.67,1.29-1.03,1.98-.37.69-.72,1.34-1.05,1.95-.33.61-.55,1.01-.66,1.19-.7,1.15-1.4,2-2.1,2.54-.7.54-1.33.83-1.9.87-.57.04-1.04-.14-1.41-.56-.38-.42-.58-1.01-.61-1.77-.01-.16-.02-.33-.01-.51-.02.04-.03.08-.05.11-.59,1.25-1.23,2.26-1.94,3.04-.71.78-1.35,1.25-1.94,1.43-.58.18-1.04,0-1.38-.5-.34-.51-.42-1.43-.25-2.76.09-.69.22-1.41.4-2.18.18-.77.36-1.53.55-2.3.19-.77.37-1.53.56-2.29.19-.76.34-1.47.47-2.15.07-.43.1-.79.1-1.1,0-.31-.07-.5-.19-.58-.12-.08-.31,0-.56.2-.25.21-.59.62-1.02,1.25-.37.55-.71,1.15-1.02,1.82-.31.66-.56,1.36-.74,2.09-.17,1.1-.34,2.13-.49,3.11-.16.97-.31,1.83-.45,2.58-.14.81-.37,1.5-.71,2.08-.33.58-.73,1.07-1.18,1.47-.46.4-.98.73-1.56.99-.58.26-1.19.48-1.83.65.15-.13.29-.34.43-.63.14-.29.27-.61.4-.94.13-.33.24-.66.33-.97.09-.31.15-.56.19-.74.05-.23.09-.47.14-.72-.42.81-.9,1.56-1.45,2.26-.84,1.06-1.74,1.84-2.73,2.35-.98.51-1.9.72-2.75.63-.85-.09-1.56-.48-2.13-1.19-.46-.58-.74-1.39-.83-2.39-.41.9-.84,1.74-1.28,2.5-.59,1.06-1.17,1.86-1.74,2.42-.57.56-1.08.87-1.53.95-.45.08-.82-.09-1.1-.5-.28-.41-.42-1.07-.41-2,.02-1.53.21-3.29.58-5.3.3-1.69.67-3.39,1.1-5.1.44-1.71.86-3.24,1.28-4.57.29-1,.6-1.95.95-2.86.35-.91.74-1.72,1.17-2.43.43-.71.93-1.31,1.48-1.77.55-.47,1.16-.76,1.84-.87-.22.21-.49.77-.8,1.68-.31.91-.64,2-1,3.29-.36,1.29-.72,2.67-1.07,4.15-.36,1.48-.69,2.91-.99,4.28-.3,1.38-.56,2.61-.78,3.7-.22,1.09-.36,1.87-.41,2.36-.05.46-.07.86-.07,1.19,0,.33.05.54.14.64.09.09.22.05.39-.14.18-.19.42-.56.74-1.11.2-.37.38-.7.52-.99.15-.28.28-.57.4-.85.12-.28.24-.58.37-.92.13-.33.27-.74.44-1.21,0,0,.01-.02.01-.03.28-1.36.76-2.74,1.43-4.14.68-1.41,1.52-2.62,2.53-3.61.71-.7,1.39-1.19,2.05-1.46.66-.27,1.24-.36,1.75-.29.51.08.94.3,1.27.68.34.37.55.84.66,1.4.1.56.05,1.2-.14,1.9-.2.71-.57,1.44-1.1,2.21-.48.66-1.04,1.23-1.67,1.7-.64.47-1.27.87-1.91,1.21-.45.25-.95.41-1.51.48-.56.07-1.05.09-1.49.06.27.21.59.34.95.39.37.05.76.08,1.18.07,0,.65.04,1.26.15,1.84.11.58.3,1.03.57,1.34.27.32.63.42,1.08.33.45-.1,1.01-.51,1.68-1.25.34-.37.64-.78.92-1.24.28-.46.53-.93.76-1.42.23-.49.44-.99.65-1.49.2-.5.39-.98.57-1.44,0,0,0,0,0-.01.17-1.08.38-2.16.64-3.25.26-1.1.58-2.08.98-2.95.39-.87.87-1.57,1.44-2.1.57-.54,1.27-.81,2.1-.81-.11.33-.19.61-.24.85-.05.24-.1.47-.13.69-.28.5-.52,1.01-.74,1.52-.22.51-.41,1-.56,1.47-.15.47-.28.9-.39,1.29-.11.39-.19.73-.24,1,.07-.3.2-.68.38-1.13.18-.46.38-.92.6-1.38.22-.47.45-.91.69-1.34.24-.43.46-.78.67-1.05.59-.82,1.22-1.5,1.88-2.04.66-.54,1.25-.82,1.76-.85.51-.03.89.26,1.13.86.24.6.25,1.64.03,3.11-.16,1.07-.33,2.13-.53,3.18-.2,1.05-.37,2.11-.51,3.17-.05.44-.08.83-.08,1.15,0,.32.04.54.12.64.09.11.21.09.38-.05.17-.14.39-.45.67-.93.4-.73.75-1.42,1.03-2.08.28-.66.57-1.36.86-2.13,0-.03.03-.05.04-.07.28-.94.62-1.9,1.03-2.86.42-1,.93-1.98,1.52-2.93.35-.59.8-1.17,1.35-1.76.55-.58,1.11-1.04,1.68-1.36.57-.32,1.11-.45,1.62-.4.51.06.91.43,1.21,1.13.32-1.29.67-2.56,1.05-3.83.38-1.27.82-2.42,1.31-3.47.5-1.04,1.07-1.91,1.72-2.61.65-.7,1.41-1.12,2.28-1.26-.22.21-.49.77-.8,1.67-.31.91-.64,2-1,3.29-.36,1.29-.72,2.67-1.09,4.15-.37,1.48-.7,2.91-1,4.29-.3,1.38-.56,2.61-.78,3.7-.22,1.09-.36,1.87-.41,2.36-.05.51-.07.92-.05,1.25.01.33.07.54.18.63.1.09.26.03.45-.18.19-.21.44-.62.73-1.21.16-.37.32-.68.45-.96.14-.27.27-.55.38-.84.12-.29.24-.6.37-.92.13-.32.27-.71.44-1.16,0,0,0-.01,0-.02.37-1.98.87-3.64,1.52-4.98.65-1.35,1.35-2.38,2.1-3.1.75-.71,1.49-1.13,2.22-1.25.74-.12,1.38.03,1.94.45.55.42.96,1.1,1.22,2.04.26.94.29,2.11.08,3.52-.17,1.08-.39,2.16-.65,3.26-.26,1.1-.56,2.1-.91,3.01.21.35.45.48.71.39.26-.09.53-.32.8-.69.27-.37.54-.84.8-1.4.27-.56.51-1.13.74-1.69.23-.56.42-1.08.59-1.55.13-.39.24-.69.33-.91.01-.04,0-.08.02-.12.2-.57.4-1.13.61-1.69.21-.56.41-1.11.61-1.66-.38-.13-.64-.37-.79-.69-.15-.33-.21-.69-.19-1.08.02-.39.11-.8.27-1.21.15-.42.34-.77.57-1.07.24-.34.51-.6.8-.79.29-.18.56-.27.8-.25.25.02.44.16.57.43.14.26.18.67.13,1.22-.05.42-.15.85-.29,1.3-.14.45-.29.86-.44,1.24.2-.31.4-.72.59-1.22.19-.5.34-.92.45-1.24.13-.16.25-.32.36-.48.11-.16.24-.32.39-.49.58-.67,1.15-1.2,1.73-1.58.58-.39,1.09-.55,1.52-.47.44.08.75.42.95,1.04.2.61.19,1.59-.02,2.93-.17,1.08-.36,2.14-.56,3.19-.2,1.05-.37,2.11-.51,3.17-.05.46-.07.86-.07,1.19,0,.33.05.54.14.64.09.1.22.05.41-.14.19-.19.44-.56.75-1.12.2-.38.37-.7.51-.99.14-.28.26-.56.38-.84.12-.28.24-.58.36-.92.12-.33.27-.74.45-1.21.05-.14.15-.25.28-.32.13-.07.27-.09.41-.08.14.02.25.08.33.19.08.11.09.26.04.44Z" style="fill:#fff;"/><path d="M94.52,20.04c-.39.35-.83,1.15-1.31,2.41-.48,1.25-.89,2.85-1.22,4.78-.25,1.44-.36,2.62-.33,3.56.02.94.11,1.59.27,1.97.16.38.35.45.58.22.23-.23.44-.81.61-1.74.1.25.26.54.48.85.22.32.43.53.62.66-.56-.75-.9-1.59-1.03-2.5-.13-.91-.17-1.83-.12-2.77.02-.93.2-1.71.53-2.33.33-.62.86-.88,1.57-.77.3-1.9.36-3.19.19-3.86-.17-.67-.45-.83-.84-.49Z" style="fill:#fff;"/><path d="M83.6,23.91c-.28.2-.6.53-.95.99-.44.65-.86,1.45-1.25,2.38-.4.93-.73,1.84-1,2.72-.27.89-.45,1.67-.55,2.35-.09.68-.06,1.09.12,1.24.17.15.49-.05.97-.58.47-.53,1.15-1.58,2.04-3.14.05-.27.13-.62.24-1.05.11-.43.22-.9.33-1.42.11-.52.24-1.08.37-1.67.13-.59.27-1.2.41-1.81-.21-.2-.46-.2-.74,0Z" style="fill:#fff;"/><path d="M61.11,32.25c.28-.44.43-.86.46-1.26.03-.4-.03-.69-.18-.87-.15-.18-.38-.19-.68-.05-.3.14-.63.54-1,1.2-.28.48-.53,1.02-.76,1.6-.23.59-.43,1.19-.61,1.82.52-.27,1.03-.59,1.5-.98.48-.38.9-.87,1.27-1.46Z" style="fill:#fff;"/><path d="M107.78,38.24c0,1.25-.98,2.24-2.27,2.24s-2.28-.99-2.28-2.24,1.01-2.21,2.28-2.21,2.27.98,2.27,2.21ZM103.8,38.24c0,.98.73,1.77,1.73,1.77s1.69-.78,1.69-1.75-.72-1.78-1.7-1.78-1.71.8-1.71,1.77ZM105.16,39.4h-.51v-2.21c.2-.04.48-.07.85-.07.42,0,.61.07.77.16.12.09.22.27.22.49,0,.24-.19.43-.46.51v.03c.22.08.34.24.4.54.07.34.11.47.16.55h-.55c-.07-.08-.11-.28-.18-.54-.04-.24-.17-.35-.46-.35h-.24v.89ZM105.17,38.14h.24c.28,0,.51-.09.51-.32,0-.2-.15-.34-.47-.34-.13,0-.23.01-.28.03v.63Z" style="fill:#fff;"/><path d="M40.65,58.34l-.82-3.15,2.12-.55.17.64-1.38.36.16.6,1.31-.34.16.61-1.31.34.17.65,1.46-.38.17.65-2.2.57Z" style="fill:#fff;"/><path d="M44.4,54.87c-.09-.07-.19-.11-.31-.13-.12-.02-.23-.02-.32,0-.05.01-.1.03-.15.05-.05.02-.09.05-.13.09-.04.04-.06.08-.08.13-.02.05-.02.1,0,.16.01.05.04.1.07.13.03.03.07.05.12.07.05.02.11.03.17.03.06,0,.14.01.22.02.12,0,.24.02.36.03.13.01.25.04.36.09.11.05.21.11.3.2.09.09.16.21.2.37.05.18.05.35.02.5-.03.15-.09.28-.18.4-.09.12-.2.21-.34.29-.13.08-.28.14-.43.18-.23.06-.45.08-.68.05-.23-.02-.43-.09-.61-.2l.37-.64c.1.07.22.13.37.16.14.03.28.03.4,0,.06-.01.11-.03.16-.06.05-.03.09-.06.12-.09.03-.04.06-.08.07-.13.01-.05,0-.11,0-.17-.02-.06-.04-.11-.08-.14-.04-.03-.09-.06-.16-.08-.06-.02-.14-.03-.23-.04-.09,0-.19-.01-.3-.02-.11,0-.22-.02-.33-.04s-.21-.05-.3-.1c-.09-.05-.18-.12-.25-.21-.07-.09-.13-.2-.16-.34-.05-.17-.05-.33-.01-.48.04-.14.11-.27.2-.38.09-.11.21-.2.35-.28.14-.07.28-.13.43-.17.18-.05.37-.06.57-.05.2.02.39.07.56.16l-.35.64Z" style="fill:#fff;"/><path d="M47.79,54.15c.05.18.05.35.02.49s-.1.27-.2.38c-.1.11-.21.2-.36.27-.14.07-.29.13-.46.18l-.38.1.31,1.19-.76.2-.82-3.15,1.16-.3c.17-.05.34-.07.5-.07.16,0,.3.02.43.06.13.05.24.12.34.23.1.11.17.25.21.43ZM47.03,54.35c-.02-.07-.05-.13-.09-.17-.04-.04-.09-.07-.15-.08-.06-.01-.12-.02-.19,0-.07,0-.13.02-.2.04l-.33.09.19.74.32-.08c.07-.02.14-.04.2-.07.06-.03.12-.06.16-.11.04-.04.07-.09.09-.15.02-.06.02-.12,0-.2Z" style="fill:#fff;"/><path d="M48.82,56.21l-.82-3.15,2.12-.55.17.64-1.38.36.16.6,1.31-.34.16.61-1.31.34.17.65,1.46-.38.17.65-2.2.57Z" style="fill:#fff;"/><path d="M53.76,54.85c-.18.15-.4.26-.67.32-.24.06-.48.08-.7.06-.23-.03-.43-.09-.62-.2-.19-.11-.35-.25-.49-.43-.14-.18-.24-.4-.31-.64-.07-.25-.08-.49-.05-.72.03-.23.11-.43.23-.62.12-.18.27-.34.46-.47.19-.13.4-.23.64-.29.22-.06.45-.08.69-.05.24.02.44.09.61.21l-.38.65c-.1-.08-.21-.13-.34-.14-.13-.02-.25,0-.37.02-.13.03-.25.09-.35.17-.1.08-.18.17-.23.28-.06.11-.09.22-.11.35-.01.13,0,.26.03.4.04.14.09.27.17.37.08.11.16.19.26.26.1.06.21.1.33.12.12.02.25.01.38-.02.15-.04.28-.1.37-.19.1-.09.17-.19.21-.3l.66.36c-.1.2-.24.37-.42.51Z" style="fill:#fff;"/><path d="M54.61,54.69l-.82-3.15.76-.2.82,3.15-.76.2Z" style="fill:#fff;"/><path d="M58.16,53.76l-.41-.55-1.22.32-.07.68-.83.22.5-3.49.74-.19,2.13,2.81-.84.22ZM56.71,51.68l-.12,1.18.79-.21-.67-.98Z" style="fill:#fff;"/><path d="M59.27,53.47l-.82-3.15.76-.2.65,2.48,1.22-.32.17.66-1.98.52Z" style="fill:#fff;"/><path d="M61.6,52.86l-.82-3.15.76-.2.82,3.15-.76.2Z" style="fill:#fff;"/><path d="M64.07,49.73c-.09-.07-.19-.11-.31-.13-.12-.02-.23-.02-.32,0-.05.01-.1.03-.15.05-.05.02-.09.05-.13.09-.03.04-.06.08-.08.13-.02.05-.02.1,0,.16.01.05.04.09.07.12.03.03.07.05.12.07.05.02.11.03.17.03.07,0,.14.01.22.02.12,0,.24.02.36.03.13.01.25.04.36.09.11.05.21.11.3.2.09.09.16.21.2.37.05.18.05.35.02.5-.03.15-.09.28-.18.4-.09.12-.2.21-.34.29-.13.08-.28.14-.43.18-.23.06-.45.08-.68.05-.23-.02-.43-.09-.61-.2l.37-.64c.1.07.22.13.37.16.14.03.28.03.4,0,.06-.01.11-.03.16-.06.05-.03.09-.06.12-.09.03-.04.06-.08.07-.13.01-.05.01-.11,0-.17-.02-.06-.04-.11-.08-.14-.04-.03-.09-.06-.16-.08-.06-.02-.14-.03-.23-.04-.09,0-.19-.01-.3-.02-.11,0-.22-.02-.33-.04-.11-.02-.21-.05-.3-.1-.09-.05-.18-.12-.25-.21-.07-.09-.13-.2-.16-.34-.05-.17-.05-.33-.01-.48.04-.14.11-.27.2-.38.09-.11.21-.2.34-.28.14-.08.28-.13.43-.17.18-.05.37-.06.57-.04.2.02.39.07.56.16l-.35.64Z" style="fill:#fff;"/><path d="M66.28,48.97l.65,2.5-.76.2-.65-2.5-.89.23-.17-.65,2.54-.66.17.65-.89.23Z" style="fill:#fff;"/><path d="M70.04,50.65l-.41-.55-1.22.32-.07.68-.83.22.5-3.49.74-.19,2.13,2.81-.84.22ZM68.59,48.57l-.12,1.18.79-.21-.67-.98Z" style="fill:#fff;"/><path d="M72.2,47.6c-.09-.07-.19-.11-.31-.13-.12-.02-.23-.02-.32,0-.05.01-.1.03-.15.05-.05.02-.09.05-.13.09-.03.04-.06.08-.08.12-.02.05-.02.1,0,.16.01.05.04.09.07.12.03.03.07.05.12.07.05.02.11.03.17.03.06,0,.14.01.22.02.12,0,.24.02.36.03.13.01.25.04.36.09.11.05.22.11.3.2.09.09.16.21.2.37.05.18.05.35.02.5-.03.15-.09.28-.18.4-.09.12-.2.21-.34.29-.13.08-.28.14-.43.18-.23.06-.45.08-.68.05-.23-.02-.44-.09-.61-.2l.37-.64c.1.07.22.13.37.16.14.03.28.03.4,0,.06-.01.11-.03.16-.06.05-.03.09-.06.12-.09.03-.04.06-.08.07-.13.01-.05.01-.11,0-.17-.02-.06-.04-.11-.08-.14-.04-.03-.09-.06-.16-.08-.06-.02-.14-.03-.23-.04-.09,0-.19-.01-.3-.02-.11,0-.22-.02-.33-.04-.11-.02-.21-.05-.3-.1-.09-.05-.18-.12-.25-.21-.07-.09-.13-.2-.16-.34-.05-.17-.05-.33-.01-.48.04-.14.1-.27.2-.38.09-.11.21-.2.35-.28.14-.07.28-.13.43-.17.18-.05.37-.06.57-.04.2.02.39.07.56.16l-.35.64Z" style="fill:#fff;"/><path d="M74.88,49.39l-.82-3.15,2.12-.55.17.64-1.38.36.16.6,1.31-.34.16.61-1.31.34.17.65,1.46-.38.17.65-2.2.57Z" style="fill:#fff;"/><path d="M79.58,48.16l-1.81-1.73h-.01s.56,2.06.56,2.06l-.74.19-.82-3.15.87-.23,1.8,1.72h.01s-.56-2.05-.56-2.05l.74-.19.82,3.15-.86.23Z" style="fill:#fff;"/><path d="M82.2,47.47l-.82-3.15.76-.2.65,2.48,1.22-.32.17.66-1.98.52Z" style="fill:#fff;"/><path d="M84.54,46.86l-.82-3.15.76-.2.82,3.15-.76.2Z" style="fill:#fff;"/><path d="M88.81,45.74l-.56-2.23h-.01s-.24,2.44-.24,2.44l-.53.14-1.38-2.02h-.01s.6,2.23.6,2.23l-.72.19-.82-3.15,1.08-.28,1.24,1.83h.02s.16-2.2.16-2.2l1.1-.29.82,3.15-.75.2Z" style="fill:#fff;"/><path d="M92.02,42.58c.05.18.05.35.02.49-.03.14-.1.27-.2.38-.1.11-.21.2-.36.27-.14.07-.29.13-.46.18l-.38.1.31,1.19-.76.2-.82-3.15,1.16-.3c.17-.05.34-.07.5-.07.16,0,.3.02.43.06.13.05.24.12.34.23.1.11.17.25.21.43ZM91.26,42.78c-.02-.07-.05-.13-.09-.17-.04-.04-.09-.07-.15-.08-.06-.01-.12-.02-.18,0-.07,0-.13.02-.2.04l-.33.09.19.74.32-.08c.07-.02.14-.04.2-.07.06-.03.12-.06.16-.11.04-.04.07-.09.09-.15.02-.06.02-.12,0-.2Z" style="fill:#fff;"/><path d="M93.04,44.63l-.82-3.15.76-.2.82,3.15-.76.2Z" style="fill:#fff;"/><path d="M94.46,44.26l-.82-3.15,2.12-.55.17.64-1.38.36.16.6,1.31-.34.16.61-1.31.34.17.65,1.46-.38.17.65-2.2.57Z" style="fill:#fff;"/><path d="M97,43.6l-.17-.66,1.01-2.24-1.46.38-.17-.64,2.41-.63.16.61-1.04,2.28,1.56-.41.17.66-2.48.65Z" style="fill:#fff;"/><path d="M102.11,42.26l-.41-.55-1.22.32-.07.68-.83.22.5-3.49.74-.19,2.13,2.81-.84.22ZM100.66,40.18l-.12,1.18.79-.21-.67-.98Z" style="fill:#fff;"/></svg>