<?xml version="1.0" encoding="UTF-8"?><svg id="Layer_1" xmlns="http://www.w3.org/2000/svg" width="113.78" height="63.93" viewBox="0 0 113.78 63.93"><path d="M25.45,29.46c-.83,0-1.6-.33-2.17-.92-.58-.59-.89-1.39-.87-2.25v-.15s1.16-9.43,1.16-9.43c.08-.63.33-1.23.75-1.73.45-.53,1.03-.91,1.7-1.08l1.63-.43c.29-.07.57-.11.85-.11.8,0,1.53.31,2.08.82.41-1.06,1.23-1.82,2.27-2.09l1.63-.43c.28-.07.57-.11.85-.11.68,0,1.32.22,1.85.63.36.28.64.62.85,1l.39-1.02c.04-.12.09-.24.15-.36v-.11c0-.14.01-.28.03-.42.03-.25.09-.52.19-.78l.47-1.43c.19-.55.5-1.02.9-1.4.42-.39.9-.66,1.44-.8l1.15-.3c.28-.07.56-.11.84-.11.73,0,1.43.28,1.97.76.39.36.68.81.85,1.29l.05-.02,1.72-.45c.29-.08.6-.12.9-.12.39,0,.77.07,1.12.21.22.09.42.19.61.32l.02-.04c.21-.34.45-.63.71-.87.41-.37.91-.64,1.46-.78l1.61-.43.08-.02c.25-.05.49-.07.72-.07.05,0,.1,0,.15,0,.29-.19.61-.33.96-.42l1.29-.34c.28-.07.56-.11.84-.11.3,0,.61.05.9.14.42-.43.94-.74,1.53-.89l1.63-.43c.28-.07.57-.11.85-.11.8,0,1.53.31,2.08.82.4-1.06,1.22-1.81,2.26-2.09l1.64-.43c.28-.07.56-.11.85-.11.69,0,1.34.23,1.88.66.07.05.13.11.19.16.3-.33.62-.64.97-.92.52-.43,1.08-.81,1.67-1.13.63-.34,1.29-.6,1.97-.78.69-.18,1.37-.27,2.04-.27h.05c.71.01,1.38.12,2.01.32.67.21,1.29.53,1.84.94.56.42,1.05.92,1.44,1.51.38.56.67,1.19.86,1.87.19.67.28,1.38.27,2.12-.01.7-.12,1.4-.31,2.09-.18.64-.43,1.27-.74,1.86-.31.59-.68,1.16-1.11,1.69-.42.52-.9,1.01-1.41,1.43-.52.43-1.08.82-1.67,1.13-.62.33-1.28.59-1.96.77-.7.18-1.4.28-2.06.27h-.02c-.71,0-1.4-.12-2.04-.33-.09-.03-.18-.06-.26-.09-.4.84-1.15,1.47-2.13,1.73l-1.26.33c-.29.08-.59.12-.88.11-.39,0-.77-.08-1.12-.21-.48.47-.99.68-1.37.79l-1.19.31c-.25.07-.54.1-.81.1-.29,0-.56-.04-.83-.12-.43.53-1.04.93-1.74,1.12l-1.25.33c-.29.08-.58.11-.87.11-.1,0-.21,0-.31-.02-.32.23-.69.4-1.08.51l-1.3.34c-.29.08-.58.11-.87.11-.04,0-.08,0-.12,0-.27.17-.56.3-.87.39l-1.65.44c-.29.08-.58.11-.87.11-.23,0-.45-.03-.67-.08-.42-.1-.8-.27-1.13-.51l-.03.06c-.48.86-1.24,1.47-2.15,1.71l-1.64.43c-.17.05-.35.08-.52.09-.17.07-.33.13-.5.18l-1.28.34c-.3.08-.6.12-.89.12-.48,0-.93-.11-1.35-.32-.36-.18-.68-.42-.95-.73l-.28.07c-.03.09-.06.18-.09.26-.39,1.08-1.24,1.87-2.32,2.16l-1.31.35c-.27.07-.54.11-.81.11-.24.13-.49.23-.74.3l-1.26.33c-.29.08-.59.12-.88.11-.39,0-.77-.08-1.12-.21-.49.48-1.02.7-1.41.8l-1.14.3c-.27.07-.54.11-.81.1-.28,0-.56-.04-.82-.12-.43.53-1.03.93-1.75,1.12l-1.26.33c-.29.08-.58.11-.87.11Z" style="fill:#010101;"/><path d="M84.1,4.98c-.16-.55-.39-1.06-.69-1.52-.31-.46-.7-.87-1.15-1.2-.44-.33-.93-.58-1.47-.75-.51-.16-1.07-.25-1.65-.26h-.04c-.56,0-1.13.07-1.72.23-.58.15-1.15.38-1.69.67-.52.28-1.01.62-1.46.99-.45.38-.87.8-1.24,1.27-.28.35-.53.71-.75,1.08,0-.08-.01-.15-.02-.23-.04-.53-.29-1.02-.71-1.35-.32-.25-.71-.39-1.12-.39-.17,0-.35.02-.52.07l-1.64.43c-.66.18-1.18.68-1.43,1.38-.31.9-.62,1.8-.93,2.69l-.56-1.49c-.26-.77-.94-1.27-1.74-1.28-.17,0-.35.02-.52.07l-1.63.43c-.42.11-.78.34-1.05.67-.17.2-.29.44-.38.68-.13-.13-.27-.24-.43-.33-.27-.15-.58-.23-.89-.23-.17,0-.34.02-.51.06l-1.29.34c-.37.1-.69.28-.93.54-.07-.02-.14-.04-.22-.06-.09-.01-.19-.02-.29-.02-.15,0-.3.01-.46.05h-.05s-1.58.43-1.58.43c-.35.09-.67.26-.93.5-.18.16-.34.36-.49.6l-.84,1.42-.44-.55c-.24-.29-.52-.5-.87-.65-.22-.08-.45-.13-.68-.13-.19,0-.38.02-.57.07l-1.64.43-.24.1c-.66.26-1.1.89-1.11,1.6,0,.38.11.75.34,1.09l.06.08.06.07s1.94,2.42,2.21,2.75l-1.37,2.31-2.24-5.23-.16-.35c.03-.06.07-.13.1-.21l.64-1.53c.07-.16.12-.33.15-.5.02-.12.03-.24.04-.36.01-.52-.2-1.01-.59-1.37-.31-.28-.72-.44-1.15-.44-.17,0-.34.02-.51.07l-1.15.31c-.34.09-.65.26-.91.51-.26.24-.45.54-.58.9l-.47,1.43c-.07.17-.11.35-.13.51-.01.1-.02.2-.02.29,0,.12,0,.25.03.37-.11.16-.19.33-.25.5l-2.11,5.53c-.11-1.19-.22-2.39-.33-3.59-.04-.53-.29-1.02-.73-1.36-.32-.24-.7-.37-1.11-.38-.17,0-.35.02-.52.07l-1.63.43c-.67.18-1.19.67-1.44,1.38-.31.9-.62,1.8-.93,2.7l-.56-1.49c-.26-.77-.94-1.27-1.74-1.28-.17,0-.35.02-.52.07l-1.62.43c-.41.11-.78.34-1.06.68-.26.31-.42.69-.47,1.08l-1.15,9.37v.09c-.01.52.17,1,.52,1.36.34.35.79.54,1.28.54.18,0,.36-.02.54-.07l1.26-.33c.84-.22,1.41-.88,1.51-1.7.08.09.17.18.26.26l.02.02c.32.25.7.38,1.1.38.16,0,.32-.02.48-.06l1.15-.31c.29-.07.7-.26,1.06-.72.14-.19.26-.4.34-.63.33.44.85.72,1.45.73.18,0,.36-.02.55-.07l1.26-.33c.28-.07.52-.2.73-.36.09.01.17.02.26.02.18,0,.37-.02.56-.07l1.3-.34c.68-.18,1.21-.68,1.47-1.37.07-.21.16-.45.27-.73.02-.05.04-.1.06-.15l1.79-.47.04.1c.19.43.5.75.9.95.25.12.52.19.81.19.18,0,.37-.02.56-.07l1.28-.34c.18-.05.35-.12.5-.21h.01c.16,0,.33-.02.51-.06l1.64-.43c.58-.15,1.07-.55,1.38-1.12l.88-1.51c.13.16.46.57.47.58.13.17.28.32.43.43.22.17.46.28.75.35.13.03.27.05.41.05.18,0,.36-.02.54-.07l1.64-.43c.34-.09.62-.27.85-.49.16.04.32.07.48.07.18,0,.36-.02.54-.07l1.29-.34c.43-.12.79-.35,1.06-.66.21.08.43.13.67.13.18,0,.36-.02.54-.07l1.26-.33c.84-.22,1.41-.88,1.51-1.7.08.1.18.19.28.27.32.25.7.38,1.1.39.17,0,.33-.02.48-.06l1.18-.31c.28-.08.69-.26,1.04-.72.15-.2.26-.41.34-.63.33.44.85.72,1.45.73.18,0,.37-.02.55-.07l1.26-.33c.9-.24,1.5-.98,1.52-1.92v-.09s0-.09,0-.09c-.01-.13-.03-.27-.04-.4.05.04.11.09.16.13.44.33.93.58,1.46.75.52.17,1.08.26,1.66.26h.02c.56,0,1.14-.07,1.73-.23.58-.15,1.15-.38,1.68-.66.52-.28,1.01-.61,1.47-.99.45-.38.87-.8,1.25-1.26.37-.46.7-.96.97-1.48.27-.52.49-1.07.65-1.62.16-.58.25-1.18.26-1.78.01-.61-.06-1.2-.22-1.75ZM55.27,12.86l-.05,2.83-.93-1.16c.33-.56.66-1.12.99-1.67ZM79,7.86c-.1.27-.24.51-.42.74-.18.23-.39.42-.64.6-.22.15-.45.26-.7.33-.14.04-.28.06-.39.06-.04,0-.09,0-.12,0-.16-.03-.22-.07-.25-.1-.03-.02-.08-.07-.13-.19-.05-.11-.07-.27-.07-.45,0-.24.05-.47.14-.71.11-.27.25-.52.43-.74.18-.23.39-.43.63-.6.22-.15.45-.26.7-.33.14-.04.27-.06.38-.06.04,0,.09,0,.13.01.14.03.21.07.25.1.03.03.08.07.13.19.05.11.08.26.07.45,0,.24-.05.47-.15.71Z" style="fill:#ffde11;"/><path d="M26.44,17.06c.01-.08.04-.16.1-.23.06-.07.13-.11.22-.14l1.62-.43c.15-.04.25.02.29.17l2.18,5.75c.4-1.17.81-2.33,1.22-3.49.41-1.15.81-2.31,1.21-3.48.06-.18.16-.29.3-.32l1.63-.43c.09-.02.16-.01.21.03.05.04.08.1.08.18.13,1.47.27,2.93.41,4.39.14,1.46.27,2.92.41,4.38v.02c0,.18-.1.29-.29.34l-1.26.33c-.2.05-.29-.02-.3-.2l-.55-5.94-2.27,6.51c-.02.07-.06.13-.11.2-.05.06-.1.1-.15.12l-1.17.31c-.06.02-.11,0-.16-.03-.05-.04-.08-.09-.1-.14-.34-.9-.68-1.8-1.02-2.68-.34-.89-.68-1.78-1.03-2.69l-.77,6.28c0,.19-.1.31-.3.36l-1.26.33c-.19.05-.28-.02-.28-.21l1.14-9.28Z" style="fill:#be202e;"/><path d="M37.32,23.21c.02-.09.05-.18.08-.26.03-.08.05-.15.08-.22l3.66-9.59c.01-.05.05-.12.11-.19.06-.07.14-.12.24-.15l1.05-.28c.1-.03.18-.02.22.02.04.04.08.08.1.11l.21.45,3.27,7.63s0,.03,0,.07c0,.03,0,.06,0,.08,0,.13-.1.22-.29.27l-1.28.34c-.09.02-.17.03-.22,0-.05-.03-.09-.07-.13-.15l-.11-.27c-.08-.19-.16-.37-.24-.56-.08-.18-.15-.37-.23-.56l-4.01,1.06c-.12.33-.23.64-.34.94-.11.29-.2.55-.28.77-.06.17-.18.28-.34.33l-1.3.34c-.08.02-.15.02-.2,0-.05-.02-.07-.06-.07-.11,0-.03,0-.05,0-.06ZM41.97,15.12c-.25.66-.49,1.33-.73,2.03-.24.7-.49,1.37-.73,2.03l2.77-.73-1.3-3.33ZM41.98,10.03c.04-.1.09-.18.15-.24.06-.06.13-.1.21-.12l1.16-.31c.07-.02.12-.01.15,0,.03.03.04.06.04.11,0,.03,0,.07-.01.11,0,.04-.02.09-.04.13l-.64,1.53c-.09.2-.2.32-.35.36l-1.01.27c-.07.02-.12.01-.14-.02-.02-.03-.03-.07-.03-.11,0-.04,0-.09,0-.13,0-.04.02-.09.04-.15l.48-1.45Z" style="fill:#be202e;"/><path d="M46.97,20.67c.04-.08.09-.16.13-.25.04-.08.09-.17.14-.25l2.93-4.95c-.51-.64-1.01-1.27-1.51-1.89-.5-.62-.97-1.21-1.42-1.77l-.03-.04c-.04-.05-.06-.1-.06-.13,0-.05.02-.08.07-.1.05-.02.1-.04.16-.07l1.53-.4c.09-.02.17-.02.24,0,.06.03.13.07.19.15l1.91,2.39,2.03-3.43c.07-.11.14-.2.2-.26.06-.06.14-.1.24-.12l1.55-.41c.07-.01.12-.02.16-.01.03,0,.05.03.05.07,0,.04-.03.1-.08.2-.48.8-.98,1.65-1.51,2.54-.53.9-1.07,1.8-1.6,2.72l2.98,3.7s.06.09.07.13c.01.04.02.07.02.09,0,.06-.05.1-.15.13l-1.64.43c-.06.02-.11.02-.16,0-.04-.01-.08-.03-.12-.06-.04-.03-.07-.06-.11-.11-.04-.05-.08-.1-.12-.15-.32-.39-.63-.78-.93-1.16-.31-.39-.62-.77-.93-1.16-.35.6-.71,1.2-1.06,1.79-.35.6-.7,1.19-1.05,1.79-.1.18-.22.29-.37.33l-1.65.44c-.1.03-.14,0-.14-.06,0-.01,0-.04.01-.08,0-.04.02-.06.02-.06Z" style="fill:#be202e;"/><path d="M56.98,8.99c0-.08.03-.15.07-.22.05-.07.12-.12.21-.14l1.29-.34c.07-.02.14-.01.21.02.06.04.09.1.09.18l-.16,9.03c0,.19-.11.31-.31.36l-1.29.34c-.19.05-.28-.02-.28-.21l.16-9.03Z" style="fill:#be202e;"/><path d="M61.51,7.79c0-.08.04-.16.1-.23s.13-.11.22-.14l1.62-.43c.15-.04.25.02.3.17l2.18,5.75c.4-1.17.81-2.33,1.22-3.48.4-1.15.81-2.31,1.21-3.48.06-.18.16-.29.3-.33l1.63-.43c.09-.02.16-.01.21.03.05.04.08.1.08.18.13,1.47.27,2.93.4,4.39.14,1.46.27,2.91.41,4.38v.02c0,.18-.1.29-.29.34l-1.26.33c-.19.05-.29-.02-.3-.2l-.55-5.94-2.27,6.52c-.02.07-.06.13-.11.2-.05.06-.1.1-.15.12l-1.17.31c-.06.01-.11,0-.16-.03-.05-.04-.08-.09-.1-.14-.34-.9-.68-1.8-1.02-2.68-.34-.89-.69-1.78-1.03-2.68l-.77,6.28c0,.19-.1.31-.3.36l-1.26.33c-.19.05-.28-.02-.28-.21l1.14-9.28Z" style="fill:#be202e;"/><path d="M72.76,9.32c0-.45.07-.9.2-1.36.12-.45.3-.89.52-1.31.22-.42.49-.83.79-1.21.31-.38.65-.73,1.02-1.04.37-.31.77-.58,1.19-.81.42-.23.87-.41,1.33-.53.45-.12.89-.18,1.31-.17.42,0,.81.07,1.18.18.36.12.69.29.99.51.3.22.55.49.76.8.21.31.37.66.48,1.05.11.39.16.81.15,1.27,0,.46-.08.91-.2,1.36-.13.45-.3.88-.52,1.31-.22.42-.49.82-.79,1.2-.31.38-.65.72-1.02,1.03-.37.31-.77.58-1.19.81-.43.23-.87.4-1.33.52-.46.12-.9.18-1.32.18-.42,0-.81-.06-1.18-.18-.36-.12-.69-.29-.99-.51-.3-.22-.55-.48-.75-.79-.21-.31-.37-.66-.48-1.04-.11-.39-.16-.81-.15-1.27ZM74.63,8.81c0,.44.06.82.21,1.16.15.34.36.61.63.82.27.21.59.34.96.41.37.06.78.04,1.21-.08.43-.11.84-.3,1.22-.57.38-.26.71-.57.99-.92.28-.35.51-.74.67-1.16.16-.42.25-.85.26-1.28,0-.43-.06-.82-.22-1.15-.15-.34-.36-.61-.63-.82-.27-.21-.59-.35-.97-.41-.37-.07-.77-.04-1.21.07-.44.12-.84.3-1.22.57-.38.26-.71.57-.99.93-.28.35-.5.74-.67,1.16-.16.42-.25.85-.26,1.28Z" style="fill:#be202e;"/><path d="M113.38,20.21c-.32-.45-.77-.71-1.32-.78-.28-.03-.57,0-.86.07-.17.04-.34.11-.51.19.04-.24.08-.48.12-.73.27-1.74.25-3.05-.06-4-.48-1.5-1.4-1.96-2.08-2.08-.42-.07-.86-.05-1.32.07-.49.13-1,.37-1.52.72-.4.27-.8.59-1.19.94-.32-.27-.7-.42-1.12-.46-.29-.02-.59,0-.9.09-.34.09-.69.25-1.04.47-.56.36-1.08.85-1.52,1.48-.38.52-.7,1.11-.95,1.78-.05.13-.1.27-.14.4-.31-.55-.7-1.01-1.15-1.35-.87-.66-1.89-.9-3.05-.71-.15.02-.3.06-.45.1-.99.26-1.97.85-2.91,1.75-.41.39-.81.85-1.19,1.38.23-.89.46-1.74.68-2.54.34-1.23.66-2.29.96-3.14.12-.35.21-.57.26-.69l1.94-4.03-3.01.46c-.18.03-.35.07-.52.11-1.11.3-2.12.92-3,1.86-.85.91-1.6,2.04-2.22,3.36-.56,1.17-1.05,2.48-1.47,3.89-.08.26-.16.53-.23.79-.36,0-.74.04-1.12.14-.42.11-.84.29-1.27.53-.78.44-1.55,1.06-2.28,1.83-.68.72-1.25,1.47-1.71,2.23-.36.58-.7,1.18-1,1.78.01-.92-.1-1.66-.34-2.26-.5-1.22-1.41-1.86-2.56-1.79-.23.01-.47.05-.7.11-.55.15-1.13.43-1.72.85h-1.17c-.43.01-.86.07-1.26.17-.81.22-1.56.64-2.21,1.26-.68.64-1.26,1.42-1.76,2.34-.07-.09-.15-.19-.23-.28-.56-.61-1.26-.99-2.09-1.12-.56-.09-1.18-.04-1.82.13-.27.07-.55.17-.83.28-.93.38-1.87,1.05-2.81,1.98-.64.64-1.24,1.35-1.77,2.13.32-1.3.64-2.52.95-3.65.34-1.23.67-2.29.95-3.14.12-.36.21-.57.26-.7l1.8-4.12-2.88.55c-.17.03-.33.06-.49.11-.85.22-1.64.65-2.36,1.26-.77.66-1.47,1.49-2.06,2.46-.53.87-1,1.85-1.41,2.92-.37.97-.71,2-1.02,3.06-.15.49-.31,1.02-.46,1.56-.48-.44-1.05-.7-1.7-.78-.31-.04-.64-.03-.98.02l.06-.1-3.99,1.06c-1.18.31-2.23.96-3.15,1.92-.74.79-1.4,1.72-1.95,2.76-.11-.59-.34-1.11-.7-1.51-.44-.51-1.02-.82-1.71-.92-.2-.03-.41-.04-.62-.03.3-.95.38-1.88.26-2.78-.14-1.02-.55-1.86-1.21-2.49-.61-.58-1.43-.95-2.44-1.09-.83-.11-1.8-.03-2.87.26-.15.04-.3.08-.47.13-1.56.49-3.09,1.3-4.56,2.41-1.03.78-2.01,1.65-2.92,2.57-.83-.2-1.69-.39-2.56-.58-1.34-.29-2.72-.38-4.1-.28-.66.05-1.33.16-2,.34-.81.22-1.64.53-2.46.93-1.57.77-3.12,2.06-4.61,3.82-.78.93-1.46,1.96-2.01,3.08-.54,1.1-.95,2.25-1.21,3.41-.27,1.18-.37,2.34-.32,3.46.05,1.16.29,2.23.69,3.15.42.95,1.03,1.75,1.82,2.38.81.64,1.84,1.02,3.02,1.11.63.06,1.31.02,2.02-.13.15-.03.3-.07.45-.11.15-.04.3-.09.46-.14-.06.19-.11.38-.16.57-.33,1.29-.47,2.62-.41,3.94.05,1.51.39,2.82,1.01,3.87.59,1.01,1.37,1.8,2.3,2.36.9.54,1.93.88,3.07,1.02,1.11.13,2.27.08,3.45-.17.2-.04.4-.09.6-.14.97-.26,1.95-.64,2.9-1.14,1.18-.62,2.29-1.42,3.31-2.38,1.04-.98,1.96-2.15,2.73-3.48.52-.89.94-1.85,1.27-2.87.36.04.74.04,1.13,0,.3-.03.6-.09.9-.17.48-.13.97-.32,1.45-.56.03-.02.06-.04.1-.06-.17.81-.33,1.57-.49,2.27-.25,1.08-.48,2-.69,2.76-.06.23-.5,1.58-.54,1.69l-1.38,2.35c.19-.03,3.37-.2,3.55-.25,1.05-.28,2.02-.83,2.87-1.65.9-.86,1.69-1.99,2.35-3.34.59-1.21,1.12-2.66,1.56-4.28.15-.54.29-1.11.44-1.69.36,0,.72-.04,1.09-.14h0c.41-.11.83-.28,1.25-.52.79-.44,1.55-1.06,2.27-1.84.55-.6,1.03-1.21,1.42-1.83.12.44.29.82.51,1.14.6.88,1.51,1.27,2.54,1.1.09-.02.19-.04.29-.06.78-.21,1.58-.71,2.39-1.51.56-.55,1.1-1.23,1.63-2.06.76.79,1.69,1.25,2.77,1.35.66.07,1.36,0,2.07-.18.54-.14,1.11-.37,1.67-.65.72-.37,1.41-.85,2.06-1.44l.23.99c.74-.19,1.45-.45,2.13-.75.78-.35,1.5-.81,2.14-1.37.65-.57,1.22-1.26,1.69-2.05.09.26.21.5.35.72.68,1.03,1.73,1.43,2.94,1.11.04-.01.08-.02.12-.03.96-.29,1.96-1,2.98-2.11.09-.1.19-.21.28-.32.63.57,1.43.83,2.33.76.23-.02.47-.06.71-.12.72-.19,1.48-.59,2.26-1.19.5-.39.99-.86,1.46-1.43.64.88,1.59,1.23,2.68.98.04,0,.08-.02.13-.03.93-.25,1.87-.91,2.88-2.04.3-.33.59-.71.88-1.13.43.5.93.86,1.51,1.07.74.27,1.52.33,2.32.18.15-.03.29-.06.44-.1.62-.16,1.23-.44,1.8-.81.18-.12.36-.24.52-.37.54.18,1.08.21,1.64.08.05-.01.1-.02.15-.04.88-.23,1.71-.76,2.45-1.56.62-.67,1.18-1.49,1.68-2.44.42-.81.81-1.66,1.16-2.53.09-.22.17-.43.25-.64-.02.23-.04.47-.06.71-.09,1.97.54,2.93,1.1,3.39.74.61,1.7.79,2.78.5.9-.24,1.84-.79,2.78-1.63.88-.79,1.67-1.79,2.36-3,.5-.89.99-1.89,1.48-2.95.5-1.09.93-2.2,1.29-3.29l.03-.1c.26-.89.17-1.74-.26-2.34ZM11.84,40.6c-.61.65-1.03.95-1.28,1.08-.19.1-.36.17-.51.21-.08.02-.15.03-.21.03-.15,0-.19-.04-.22-.07-.1-.09-.17-.21-.22-.38-.06-.18-.07-.38-.04-.63.02-.21.09-.43.22-.68l.02-.04c.24-.49.62-1.13,1.06-1.41.3-.19.59-.33.91-.41.18-.05.37-.08.56-.09.58-.04,1.18,0,1.79.15l-2.08,2.23ZM19.69,55.21c-.23.48-.48.85-.78,1.13-.29.27-.59.45-.92.55l-.06.02c-.29.08-.55.08-.79,0-.24-.08-.46-.27-.65-.58-.19-.3-.29-.81-.3-1.46-.01-.92.15-1.81.51-2.71l1.52-.06c.29-.01.56.03.83.12.23.08.42.19.57.33.14.13.25.3.32.49.07.17.09.34.09.56-.01.64-.13,1.19-.33,1.63Z" style="fill:#010101;"/><path d="M34.3,47.83c.29-.76.44-1.49.45-2.18,0-.69-.07-1.34-.23-1.97-.16-.62-.39-1.22-.68-1.78-.29-.57-.59-1.11-.9-1.63-.21.16-.38.3-.53.43-.15.13-.3.25-.45.38-.15.13-.3.25-.46.38-.16.13-.35.28-.57.47.02-.03.13-.15.35-.37.21-.22.44-.46.68-.73.24-.27.46-.51.67-.72.2-.22.32-.34.34-.36.63-.7,1.08-1.34,1.35-1.92.27-.57.4-1.08.39-1.5,0-.43-.12-.77-.34-1.02-.22-.25-.51-.41-.87-.46-.36-.06-.77,0-1.22.18-.45.17-.89.46-1.32.85-.39.36-.71.78-.95,1.25-.24.47-.41.97-.5,1.48-.1.52-.12,1.05-.08,1.58.04.54.17,1.03.36,1.5-.2.29-.39.61-.57.96-.18.35-.31.7-.4,1.07-.07.23-.07.41,0,.53.08.12.18.19.32.21.13.02.27-.01.42-.1.15-.08.25-.21.31-.4.04-.16.1-.34.2-.55.1-.21.2-.38.29-.51.19.38.4.76.61,1.16.21.39.38.81.51,1.25.13.44.2.89.2,1.36,0,.47-.08.96-.26,1.48-.15.4-.31.7-.5.91-.19.2-.37.31-.56.34-.19.03-.37-.02-.54-.15-.17-.12-.31-.33-.41-.6-.1-.23-.14-.5-.12-.79.01-.29.08-.59.2-.89.12-.3.29-.58.51-.83.22-.25.51-.45.87-.58-.44-.44-.9-.65-1.37-.64-.47.02-.9.2-1.3.54-.39.34-.72.8-.99,1.37-.2.43-.33.89-.38,1.37-.15-.33-.34-.63-.56-.88-.42-.49-.95-.82-1.57-1-.63-.18-1.29-.17-2,.03-.71.2-1.42.59-2.15,1.17-.73.58-1.41,1.37-2.04,2.37.47-.02.92.05,1.35.19.43.14.79.36,1.09.65.3.29.53.64.69,1.05.17.42.24.88.23,1.4-.02,1.04-.23,1.96-.61,2.77-.38.81-.86,1.48-1.42,2-.56.52-1.16.88-1.81,1.07-.65.19-1.25.2-1.8.01-.55-.19-1.01-.58-1.39-1.18-.38-.6-.57-1.43-.59-2.5-.02-1.65.38-3.27,1.22-4.88.84-1.61,1.94-3.17,3.32-4.69.36.08.77.13,1.23.16.46.03.94,0,1.43-.1.49-.1.97-.26,1.44-.5.47-.23.89-.56,1.26-.98.33-.39.54-.78.62-1.18.08-.4.01-.75-.2-1.06-.19-.23-.46-.39-.8-.48-.34-.09-.72-.13-1.12-.12-.41.01-.82.05-1.23.13-.41.08-.79.17-1.13.28-.08-.62-.04-1.29.13-2.01.17-.72.41-1.42.72-2.11.49.06,1.03.09,1.62.09.59,0,1.19-.06,1.81-.16.62-.1,1.25-.26,1.88-.48.63-.22,1.23-.5,1.82-.85.86-.55,1.57-1.17,2.13-1.85.56-.68.96-1.36,1.2-2.02.25-.66.33-1.3.24-1.9-.08-.6-.32-1.09-.71-1.47-.39-.38-.95-.62-1.67-.72-.72-.1-1.6,0-2.63.33-1.34.42-2.63,1.11-3.9,2.06s-2.41,2.02-3.45,3.2c-1.14-.28-2.31-.55-3.51-.81-1.2-.26-2.43-.34-3.67-.25-1.25.09-2.51.45-3.78,1.08-1.28.63-2.55,1.69-3.81,3.18-.63.75-1.17,1.57-1.61,2.47-.44.9-.77,1.82-.98,2.77-.21.95-.3,1.87-.26,2.77.04.9.22,1.71.53,2.42.31.71.77,1.3,1.37,1.78.6.47,1.37.75,2.29.83.47.05.99.01,1.54-.1.56-.12,1.11-.31,1.66-.57.55-.26,1.08-.61,1.59-1.05.5-.43.93-.96,1.28-1.58.35-.62.6-1.33.75-2.15.15-.81.16-1.74.03-2.78-.69.74-1.33,1.27-1.93,1.59-.6.32-1.13.48-1.59.47-.46,0-.85-.15-1.15-.44-.31-.28-.53-.65-.67-1.11-.14-.46-.18-.97-.12-1.53.06-.56.23-1.13.53-1.7.59-1.18,1.26-2.02,2.02-2.51.76-.49,1.55-.77,2.38-.82.83-.06,1.67.03,2.51.25.84.23,1.65.46,2.43.71-.53,1-.94,2.03-1.23,3.09-.29,1.06-.33,2.04-.13,2.93.06.35.18.66.37.95.18.28.38.53.61.74.22.21.45.38.69.53.24.14.45.24.64.3-.53-.07-.99-.19-1.39-.34-.4-.15-.79-.36-1.17-.62-.93.81-1.77,1.65-2.51,2.55-.74.9-1.38,1.82-1.9,2.79-.53.96-.92,1.97-1.19,3-.27,1.04-.38,2.1-.32,3.17.03,1.17.29,2.15.75,2.94.46.79,1.06,1.4,1.8,1.84.73.44,1.57.71,2.52.83.95.11,1.92.06,2.93-.15,1.01-.22,2.01-.58,3-1.1.99-.52,1.91-1.18,2.76-1.99.85-.8,1.59-1.75,2.23-2.84.64-1.09,1.09-2.3,1.35-3.64.11-.53.17-1.02.17-1.49.27.38.62.66,1.04.83.47.19.98.25,1.55.18.57-.06,1.13-.24,1.69-.53.56-.29,1.08-.69,1.56-1.22.47-.52.86-1.15,1.15-1.9ZM32.17,38.04c.06-.27.17-.49.32-.65.15-.16.3-.25.46-.28.16-.03.26.01.3.13.04.12,0,.32-.15.62-.14.29-.42.67-.85,1.12-.12-.35-.15-.67-.08-.94ZM23.02,43c.4-.08.66-.08.78.02.12.1.14.24.05.44-.09.2-.26.37-.5.52-.24.15-.54.23-.89.24-.35,0-.71-.14-1.1-.45.71-.42,1.27-.68,1.66-.76ZM24.07,34.13c.34-.31.7-.6,1.06-.89.36-.29.72-.56,1.08-.8.35-.24.68-.46.98-.65.82-.52,1.44-.74,1.85-.68.41.06.63.27.67.62.04.35-.07.79-.35,1.3-.28.51-.69.97-1.23,1.37-.41.28-.84.49-1.28.61-.44.13-.89.2-1.33.22-.44.02-.87.01-1.28-.03-.41-.04-.78-.1-1.12-.19.28-.29.59-.59.94-.89Z" style="fill:#28a8e0;"/><path d="M47.68,33.93c-.07-.65-.25-1.18-.56-1.59-.31-.41-.7-.65-1.17-.71-.47-.06-1,.07-1.58.39-.58.31-1.18.86-1.79,1.65-.35.44-.72.98-1.1,1.64-.38.66-.74,1.35-1.1,2.08-.36.73-.68,1.44-.98,2.14-.29.7-.52,1.31-.68,1.82.02-.15.08-.46.2-.92.12-.46.27-.99.46-1.59.19-.6.4-1.22.62-1.85.23-.64.47-1.22.73-1.74.14-.55.29-1.07.45-1.55.15-.48.31-.86.48-1.14-.79.21-1.48.63-2.08,1.26-.6.63-1.12,1.37-1.56,2.23-.44.86-.81,1.79-1.11,2.79-.3,1-.55,1.99-.77,2.97-.12.55-.28,1.35-.48,2.39-.19,1.05-.41,2.2-.66,3.46-.25,1.26-.5,2.56-.77,3.9s-.52,2.58-.78,3.71c-.26,1.13-.5,2.09-.72,2.89-.22.8-.42,1.29-.59,1.46.87-.14,1.63-.53,2.29-1.17.66-.64,1.25-1.48,1.76-2.53.51-1.05.97-2.3,1.36-3.76.4-1.46.78-3.07,1.15-4.84.31.71.73,1.1,1.26,1.16.53.06,1.08-.07,1.65-.39.57-.32,1.13-.77,1.67-1.36.54-.58.97-1.16,1.31-1.75.41-.71.81-1.54,1.21-2.51.4-.96.75-1.95,1.05-2.96.3-1.01.52-2.01.68-2.98.16-.97.2-1.85.13-2.62ZM43.17,38.19c-.06.51-.18,1.1-.36,1.78-.18.68-.39,1.37-.62,2.08-.06.14-.15.37-.27.67-.13.3-.28.64-.45,1.02-.17.38-.37.76-.58,1.15-.21.39-.43.72-.65,1.01-.22.28-.44.49-.66.61-.22.12-.42.1-.61-.06.23-1.24.45-2.4.66-3.49.21-1.09.37-1.9.48-2.44.64-1.18,1.18-2.06,1.61-2.65.43-.58.76-.93.99-1.05.23-.12.39-.04.46.22.07.26.07.65.02,1.15Z" style="fill:#28a8e0;"/><path d="M111.82,21.82c-.08-.11-.19-.17-.33-.19-.14-.02-.28,0-.41.08-.13.07-.22.17-.28.32-.18.48-.33.88-.45,1.21-.12.33-.24.64-.36.92-.12.28-.25.56-.38.84-.14.28-.31.61-.51.99-.31.56-.56.93-.75,1.12-.19.19-.32.24-.41.14-.09-.09-.13-.31-.14-.64,0-.33.02-.73.07-1.19.14-1.07.31-2.12.51-3.17.2-1.05.39-2.11.56-3.19.21-1.34.21-2.32.02-2.93-.2-.61-.51-.96-.95-1.04-.44-.08-.94.08-1.52.47-.58.39-1.16.92-1.73,1.58-.15.17-.28.33-.39.49-.11.16-.23.32-.36.48-.11.33-.26.74-.45,1.24-.19.5-.39.91-.59,1.22.15-.38.29-.8.44-1.24.15-.45.24-.88.29-1.3.05-.55,0-.96-.13-1.22-.14-.26-.33-.41-.57-.43-.25-.02-.51.06-.8.25-.29.18-.56.45-.8.79-.22.3-.41.65-.57,1.07-.16.42-.24.82-.27,1.21-.02.39.04.75.19,1.08.15.33.41.56.79.69-.2.55-.41,1.1-.61,1.66-.21.56-.41,1.12-.61,1.69-.02.04-.01.08-.02.12-.09.22-.2.51-.33.91-.16.47-.36.99-.59,1.55-.23.56-.47,1.13-.74,1.69-.27.56-.53,1.03-.8,1.4-.27.37-.53.6-.8.69-.26.09-.5-.04-.71-.39.35-.91.65-1.91.91-3.01.26-1.1.48-2.18.65-3.26.21-1.41.18-2.58-.08-3.52-.26-.94-.67-1.62-1.22-2.04-.56-.42-1.2-.57-1.94-.45-.73.12-1.47.54-2.22,1.25-.74.71-1.44,1.74-2.1,3.1-.64,1.34-1.15,3-1.52,4.98,0,0,0,.01,0,.02-.16.45-.31.84-.44,1.16-.13.32-.25.63-.37.92-.12.29-.25.57-.38.84-.14.27-.29.59-.45.96-.29.59-.54,1-.73,1.21-.19.21-.35.27-.45.18-.11-.09-.17-.3-.18-.63-.02-.33,0-.75.05-1.25.05-.49.19-1.27.41-2.36.22-1.09.48-2.32.78-3.7.3-1.38.64-2.81,1-4.29.37-1.48.73-2.86,1.09-4.15.36-1.29.69-2.38,1-3.29.31-.91.57-1.47.8-1.67-.87.14-1.63.56-2.28,1.26-.65.7-1.22,1.57-1.72,2.61-.49,1.04-.93,2.2-1.31,3.47-.38,1.27-.73,2.55-1.05,3.83-.29-.69-.7-1.07-1.21-1.13-.51-.06-1.05.07-1.62.4-.57.32-1.13.78-1.68,1.36-.55.59-1,1.17-1.35,1.76-.59.95-1.1,1.93-1.52,2.93-.41.96-.75,1.92-1.03,2.86,0,.03-.03.05-.04.07-.29.76-.58,1.47-.86,2.13-.28.65-.63,1.35-1.03,2.08-.28.48-.5.79-.67.93-.17.14-.29.16-.38.05-.09-.11-.13-.32-.12-.64,0-.32.03-.71.08-1.15.14-1.06.31-2.12.51-3.17.2-1.05.38-2.11.53-3.18.22-1.47.21-2.51-.03-3.11-.25-.6-.62-.89-1.13-.86-.51.03-1.1.31-1.76.85-.66.54-1.29,1.22-1.88,2.04-.2.27-.43.62-.67,1.05-.24.43-.47.87-.69,1.34-.22.47-.42.93-.6,1.38-.18.46-.31.83-.38,1.13.05-.27.13-.6.24-1,.11-.39.24-.82.39-1.29.15-.47.34-.96.56-1.47.22-.51.47-1.01.74-1.52.04-.22.08-.46.13-.69.05-.24.13-.52.24-.85-.83,0-1.53.28-2.1.81-.57.54-1.05,1.24-1.44,2.1-.39.87-.72,1.85-.98,2.95-.26,1.08-.47,2.16-.64,3.25,0,0,0,0,0,.01-.18.46-.37.94-.57,1.44-.2.5-.42,1-.65,1.49-.23.49-.48.96-.76,1.42-.28.46-.58.87-.92,1.24-.67.73-1.23,1.15-1.68,1.25-.45.1-.81,0-1.08-.33-.27-.31-.46-.76-.57-1.34-.11-.58-.16-1.2-.15-1.84-.42,0-.81-.02-1.18-.07-.37-.05-.69-.18-.95-.39.43.03.93.02,1.49-.06.56-.07,1.06-.23,1.51-.48.64-.34,1.27-.74,1.91-1.21.63-.47,1.19-1.03,1.67-1.7.54-.76.9-1.5,1.1-2.21.2-.71.25-1.34.14-1.9-.1-.56-.32-1.03-.66-1.4-.34-.37-.76-.6-1.27-.68-.51-.08-1.09.02-1.75.29-.66.27-1.34.76-2.05,1.46-1.01,1-1.85,2.2-2.53,3.61-.67,1.39-1.15,2.77-1.43,4.14,0,0-.01.02-.01.03-.16.47-.31.88-.44,1.21-.13.34-.25.64-.37.92-.12.28-.25.56-.4.85-.15.29-.32.62-.52.99-.31.56-.56.93-.74,1.11-.18.19-.31.23-.39.14-.09-.09-.13-.31-.14-.64,0-.33.02-.73.07-1.19.05-.48.19-1.27.41-2.36.22-1.09.48-2.32.78-3.7.3-1.38.63-2.8.99-4.28.36-1.48.71-2.86,1.07-4.15.36-1.29.69-2.38,1-3.29.31-.91.57-1.47.8-1.68-.68.12-1.29.41-1.84.87-.55.47-1.04,1.06-1.48,1.77-.43.72-.82,1.53-1.17,2.43-.35.91-.66,1.86-.95,2.86-.42,1.33-.84,2.86-1.28,4.57-.44,1.72-.81,3.42-1.1,5.1-.37,2.01-.56,3.77-.58,5.3,0,.93.13,1.59.41,2,.28.41.65.57,1.1.5.45-.08.96-.4,1.53-.95.57-.56,1.15-1.37,1.74-2.42.44-.76.86-1.6,1.28-2.5.1,1.01.37,1.81.83,2.39.57.71,1.28,1.11,2.13,1.19.85.08,1.77-.13,2.75-.63.98-.51,1.89-1.29,2.73-2.35.55-.7,1.03-1.45,1.45-2.26-.04.25-.09.49-.14.72-.04.18-.1.43-.19.74-.09.31-.2.64-.33.97-.13.33-.26.65-.4.94-.14.29-.28.5-.43.63.64-.17,1.25-.39,1.83-.65.58-.26,1.1-.59,1.56-.99.46-.4.85-.89,1.18-1.47.33-.58.57-1.28.71-2.08.14-.74.29-1.6.45-2.58.16-.97.32-2.01.49-3.11.18-.73.43-1.43.74-2.09.31-.66.65-1.27,1.02-1.82.42-.63.76-1.04,1.02-1.25.25-.21.44-.27.56-.2.12.07.19.27.19.58,0,.31-.03.68-.1,1.1-.12.68-.28,1.39-.47,2.15-.19.76-.38,1.52-.56,2.29-.19.77-.37,1.53-.55,2.3-.18.77-.31,1.49-.4,2.18-.17,1.33-.09,2.25.25,2.76.34.51.8.68,1.38.5.58-.18,1.23-.65,1.94-1.43.71-.78,1.35-1.79,1.94-3.04.02-.04.03-.07.05-.11,0,.19,0,.36.01.51.03.76.23,1.35.61,1.77.37.42.84.6,1.41.56.57-.04,1.2-.33,1.9-.87.7-.54,1.4-1.38,2.1-2.54.11-.18.33-.58.66-1.19.33-.61.68-1.26,1.05-1.95.37-.69.71-1.35,1.03-1.98.32-.63.54-1.06.65-1.28-.25.84-.59,1.77-1.01,2.79-.42,1.02-.8,1.92-1.15,2.7-.02.93.11,1.62.41,2.08.3.46.71.63,1.23.51.52-.12,1.12-.56,1.81-1.33.69-.77,1.41-1.93,2.16-3.48.14-.28.27-.57.41-.86,0,.06,0,.14,0,.2.09.98.3,1.75.63,2.3.33.55.74.91,1.23,1.09.49.18,1,.22,1.53.13.53-.1,1.03-.3,1.51-.61.48-.31.87-.68,1.19-1.1.57.47,1.12.65,1.64.53.52-.12,1-.41,1.45-.9.45-.48.86-1.08,1.24-1.81.38-.72.72-1.47,1.03-2.25.31-.78.58-1.53.82-2.24.24-.72.44-1.29.63-1.73.03-.08.05-.15.05-.22.2-.6.4-1.19.63-1.76.26-.65.51-1.3.77-1.97.21-.16.44-.38.69-.66.25-.28.5-.57.75-.86.25-.29.49-.54.7-.73.21-.19.38-.29.51-.28.12.01.2.17.22.47.02.31-.03.82-.15,1.53-.14.75-.31,1.48-.49,2.21-.19.73-.37,1.45-.56,2.18-.19.72-.35,1.44-.49,2.16-.14.71-.24,1.44-.28,2.18-.04.91.13,1.53.51,1.85.38.32.87.4,1.45.24.58-.15,1.21-.53,1.87-1.12.66-.59,1.25-1.35,1.77-2.25.46-.83.92-1.74,1.38-2.75.46-1,.85-1.99,1.18-2.98.05-.19.04-.33-.04-.44ZM58.95,32.87c.23-.59.48-1.12.76-1.6.37-.66.7-1.05,1-1.2.3-.14.53-.13.68.05.15.17.22.46.18.87-.03.41-.19.83-.46,1.26-.37.59-.79,1.08-1.27,1.46-.48.38-.98.71-1.5.98.18-.63.38-1.23.61-1.82ZM83.93,25.73c-.13.59-.26,1.15-.37,1.67-.12.52-.23,1-.33,1.42-.11.43-.19.77-.24,1.05-.88,1.56-1.56,2.61-2.04,3.14-.47.53-.8.73-.97.58-.17-.15-.21-.56-.12-1.24.09-.68.28-1.46.55-2.35.27-.89.6-1.79,1-2.72.39-.93.81-1.72,1.25-2.38.35-.46.67-.79.95-.99.28-.2.53-.2.74,0-.14.62-.28,1.22-.41,1.81ZM95.17,24.39c-.72-.11-1.24.15-1.57.77s-.51,1.4-.53,2.33c-.04.93,0,1.86.12,2.77.13.91.47,1.74,1.03,2.5-.19-.12-.4-.34-.62-.66-.22-.32-.38-.6-.48-.85-.18.93-.38,1.51-.61,1.74-.23.23-.43.16-.58-.22-.16-.38-.25-1.03-.27-1.97-.02-.94.09-2.13.33-3.56.33-1.93.74-3.53,1.22-4.78.48-1.25.92-2.06,1.31-2.41.39-.35.67-.19.84.49.17.67.11,1.96-.19,3.86Z" style="fill:#28a8e0;"/><path d="M107.78,38.24c0,1.25-.98,2.24-2.27,2.24s-2.28-.99-2.28-2.24,1.01-2.21,2.28-2.21,2.27.98,2.27,2.21ZM103.8,38.24c0,.98.73,1.77,1.73,1.77s1.69-.78,1.69-1.75-.72-1.78-1.7-1.78-1.71.8-1.71,1.77ZM105.16,39.4h-.51v-2.21c.2-.04.48-.07.85-.07.42,0,.61.07.77.16.12.09.22.27.22.49,0,.24-.19.43-.46.51v.03c.22.08.34.24.4.54.07.34.11.47.16.55h-.55c-.07-.08-.11-.28-.18-.54-.04-.24-.17-.35-.46-.35h-.24v.89ZM105.17,38.14h.24c.28,0,.51-.09.51-.32,0-.2-.15-.34-.47-.34-.13,0-.23.01-.28.03v.63Z" style="fill:#231f20;"/><path d="M40.65,58.34l-.82-3.15,2.12-.55.17.64-1.38.36.16.6,1.31-.34.16.61-1.31.34.17.65,1.46-.38.17.65-2.2.57Z" style="fill:#be202e;"/><path d="M44.4,54.87c-.09-.07-.19-.11-.31-.13-.12-.02-.23-.02-.32,0-.05.01-.1.03-.15.05-.05.02-.09.05-.13.09-.04.04-.06.08-.08.13-.02.05-.02.1,0,.16.01.05.04.1.07.13.03.03.07.05.12.07.05.02.11.03.17.03.06,0,.14.01.22.02.12,0,.24.02.36.03.13.01.25.04.36.09.11.05.21.11.3.2.09.09.16.21.2.37.05.18.05.35.02.5-.03.15-.09.28-.18.4-.09.12-.2.21-.34.29-.13.08-.28.14-.43.18-.23.06-.45.08-.68.05-.23-.02-.43-.09-.61-.2l.37-.64c.1.07.22.13.37.16.14.03.28.03.4,0,.06-.01.11-.03.16-.06.05-.03.09-.06.12-.09.03-.04.06-.08.07-.13.01-.05,0-.11,0-.17-.02-.06-.04-.11-.08-.14-.04-.03-.09-.06-.16-.08-.06-.02-.14-.03-.23-.04-.09,0-.19-.01-.3-.02-.11,0-.22-.02-.33-.04s-.21-.05-.3-.1c-.09-.05-.18-.12-.25-.21-.07-.09-.13-.2-.16-.34-.05-.17-.05-.33-.01-.48.04-.14.11-.27.2-.38.09-.11.21-.2.35-.28.14-.07.28-.13.43-.17.18-.05.37-.06.57-.05.2.02.39.07.56.16l-.35.64Z" style="fill:#be202e;"/><path d="M47.79,54.15c.05.18.05.35.02.49s-.1.27-.2.38c-.1.11-.21.2-.36.27-.14.07-.29.13-.46.18l-.38.1.31,1.19-.76.2-.82-3.15,1.16-.3c.17-.05.34-.07.5-.07.16,0,.3.02.43.06.13.05.24.12.34.23.1.11.17.25.21.43ZM47.03,54.35c-.02-.07-.05-.13-.09-.17-.04-.04-.09-.07-.15-.08-.06-.01-.12-.02-.19,0-.07,0-.13.02-.2.04l-.33.09.19.74.32-.08c.07-.02.14-.04.2-.07.06-.03.12-.06.16-.11.04-.04.07-.09.09-.15.02-.06.02-.12,0-.2Z" style="fill:#be202e;"/><path d="M48.82,56.21l-.82-3.15,2.12-.55.17.64-1.38.36.16.6,1.31-.34.16.61-1.31.34.17.65,1.46-.38.17.65-2.2.57Z" style="fill:#be202e;"/><path d="M53.76,54.85c-.18.15-.4.26-.67.32-.24.06-.48.08-.7.06-.23-.03-.43-.09-.62-.2-.19-.11-.35-.25-.49-.43-.14-.18-.24-.4-.31-.64-.07-.25-.08-.49-.05-.72.03-.23.11-.43.23-.62.12-.18.27-.34.46-.47.19-.13.4-.23.64-.29.22-.06.45-.08.69-.05.24.02.44.09.61.21l-.38.65c-.1-.08-.21-.13-.34-.14-.13-.02-.25,0-.37.02-.13.03-.25.09-.35.17-.1.08-.18.17-.23.28-.06.11-.09.22-.11.35-.01.13,0,.26.03.4.04.14.09.27.17.37.08.11.16.19.26.26.1.06.21.1.33.12.12.02.25.01.38-.02.15-.04.28-.1.37-.19.1-.09.17-.19.21-.3l.66.36c-.1.2-.24.37-.42.51Z" style="fill:#be202e;"/><path d="M54.61,54.69l-.82-3.15.76-.2.82,3.15-.76.2Z" style="fill:#be202e;"/><path d="M58.16,53.76l-.41-.55-1.22.32-.07.68-.83.22.5-3.49.74-.19,2.13,2.81-.84.22ZM56.71,51.68l-.12,1.18.79-.21-.67-.98Z" style="fill:#be202e;"/><path d="M59.27,53.47l-.82-3.15.76-.2.65,2.48,1.22-.32.17.66-1.98.52Z" style="fill:#be202e;"/><path d="M61.6,52.86l-.82-3.15.76-.2.82,3.15-.76.2Z" style="fill:#be202e;"/><path d="M64.07,49.73c-.09-.07-.19-.11-.31-.13-.12-.02-.23-.02-.32,0-.05.01-.1.03-.15.05-.05.02-.09.05-.13.09-.03.04-.06.08-.08.13-.02.05-.02.1,0,.16.01.05.04.09.07.12.03.03.07.05.12.07.05.02.11.03.17.03.07,0,.14.01.22.02.12,0,.24.02.36.03.13.01.25.04.36.09.11.05.21.11.3.2.09.09.16.21.2.37.05.18.05.35.02.5-.03.15-.09.28-.18.4-.09.12-.2.21-.34.29-.13.08-.28.14-.43.18-.23.06-.45.08-.68.05-.23-.02-.43-.09-.61-.2l.37-.64c.1.07.22.13.37.16.14.03.28.03.4,0,.06-.01.11-.03.16-.06.05-.03.09-.06.12-.09.03-.04.06-.08.07-.13.01-.05.01-.11,0-.17-.02-.06-.04-.11-.08-.14-.04-.03-.09-.06-.16-.08-.06-.02-.14-.03-.23-.04-.09,0-.19-.01-.3-.02-.11,0-.22-.02-.33-.04-.11-.02-.21-.05-.3-.1-.09-.05-.18-.12-.25-.21-.07-.09-.13-.2-.16-.34-.05-.17-.05-.33-.01-.48.04-.14.11-.27.2-.38.09-.11.21-.2.34-.28.14-.08.28-.13.43-.17.18-.05.37-.06.57-.04.2.02.39.07.56.16l-.35.64Z" style="fill:#be202e;"/><path d="M66.28,48.97l.65,2.5-.76.2-.65-2.5-.89.23-.17-.65,2.54-.66.17.65-.89.23Z" style="fill:#be202e;"/><path d="M70.04,50.65l-.41-.55-1.22.32-.07.68-.83.22.5-3.49.74-.19,2.13,2.81-.84.22ZM68.59,48.57l-.12,1.18.79-.21-.67-.98Z" style="fill:#be202e;"/><path d="M72.2,47.6c-.09-.07-.19-.11-.31-.13-.12-.02-.23-.02-.32,0-.05.01-.1.03-.15.05-.05.02-.09.05-.13.09-.03.04-.06.08-.08.12-.02.05-.02.1,0,.16.01.05.04.09.07.12.03.03.07.05.12.07.05.02.11.03.17.03.06,0,.14.01.22.02.12,0,.24.02.36.03.13.01.25.04.36.09.11.05.22.11.3.2.09.09.16.21.2.37.05.18.05.35.02.5-.03.15-.09.28-.18.4-.09.12-.2.21-.34.29-.13.08-.28.14-.43.18-.23.06-.45.08-.68.05-.23-.02-.44-.09-.61-.2l.37-.64c.1.07.22.13.37.16.14.03.28.03.4,0,.06-.01.11-.03.16-.06.05-.03.09-.06.12-.09.03-.04.06-.08.07-.13.01-.05.01-.11,0-.17-.02-.06-.04-.11-.08-.14-.04-.03-.09-.06-.16-.08-.06-.02-.14-.03-.23-.04-.09,0-.19-.01-.3-.02-.11,0-.22-.02-.33-.04-.11-.02-.21-.05-.3-.1-.09-.05-.18-.12-.25-.21-.07-.09-.13-.2-.16-.34-.05-.17-.05-.33-.01-.48.04-.14.1-.27.2-.38.09-.11.21-.2.35-.28.14-.07.28-.13.43-.17.18-.05.37-.06.57-.04.2.02.39.07.56.16l-.35.64Z" style="fill:#be202e;"/><path d="M74.88,49.39l-.82-3.15,2.12-.55.17.64-1.38.36.16.6,1.31-.34.16.61-1.31.34.17.65,1.46-.38.17.65-2.2.57Z" style="fill:#be202e;"/><path d="M79.58,48.16l-1.81-1.73h-.01s.56,2.06.56,2.06l-.74.19-.82-3.15.87-.23,1.8,1.72h.01s-.56-2.05-.56-2.05l.74-.19.82,3.15-.86.23Z" style="fill:#be202e;"/><path d="M82.2,47.47l-.82-3.15.76-.2.65,2.48,1.22-.32.17.66-1.98.52Z" style="fill:#be202e;"/><path d="M84.54,46.86l-.82-3.15.76-.2.82,3.15-.76.2Z" style="fill:#be202e;"/><path d="M88.81,45.74l-.56-2.23h-.01s-.24,2.44-.24,2.44l-.53.14-1.38-2.02h-.01s.6,2.23.6,2.23l-.72.19-.82-3.15,1.08-.28,1.24,1.83h.02s.16-2.2.16-2.2l1.1-.29.82,3.15-.75.2Z" style="fill:#be202e;"/><path d="M92.02,42.58c.05.18.05.35.02.49-.03.14-.1.27-.2.38-.1.11-.21.2-.36.27-.14.07-.29.13-.46.18l-.38.1.31,1.19-.76.2-.82-3.15,1.16-.3c.17-.05.34-.07.5-.07.16,0,.3.02.43.06.13.05.24.12.34.23.1.11.17.25.21.43ZM91.26,42.78c-.02-.07-.05-.13-.09-.17-.04-.04-.09-.07-.15-.08-.06-.01-.12-.02-.18,0-.07,0-.13.02-.2.04l-.33.09.19.74.32-.08c.07-.02.14-.04.2-.07.06-.03.12-.06.16-.11.04-.04.07-.09.09-.15.02-.06.02-.12,0-.2Z" style="fill:#be202e;"/><path d="M93.04,44.63l-.82-3.15.76-.2.82,3.15-.76.2Z" style="fill:#be202e;"/><path d="M94.46,44.26l-.82-3.15,2.12-.55.17.64-1.38.36.16.6,1.31-.34.16.61-1.31.34.17.65,1.46-.38.17.65-2.2.57Z" style="fill:#be202e;"/><path d="M97,43.6l-.17-.66,1.01-2.24-1.46.38-.17-.64,2.41-.63.16.61-1.04,2.28,1.56-.41.17.66-2.48.65Z" style="fill:#be202e;"/><path d="M102.11,42.26l-.41-.55-1.22.32-.07.68-.83.22.5-3.49.74-.19,2.13,2.81-.84.22ZM100.66,40.18l-.12,1.18.79-.21-.67-.98Z" style="fill:#be202e;"/></svg>